<?xml version="1.0" encoding="utf-8"?>
<!-- Generator: Adobe Illustrator 16.0.3, SVG Export Plug-In . SVG Version: 6.00 Build 0)  -->
<!DOCTYPE svg PUBLIC "-//W3C//DTD SVG 1.1//EN" "http://www.w3.org/Graphics/SVG/1.1/DTD/svg11.dtd">
<svg version="1.1" id="laskux" xmlns="http://www.w3.org/2000/svg" xmlns:xlink="http://www.w3.org/1999/xlink" x="0px" y="0px"
	 width="200px" height="48.918px" viewBox="0 0 200 48.918" enable-background="new 0 0 200 48.918" xml:space="preserve">
<g>
	<path fill="#335EEA" d="M82.43,24.608c-4.355-1.643-5.712-2.413-5.712-4.027c0-1.312,1.167-2.635,3.772-2.635
		c1.805,0,3.492,1.073,4.299,2.735l0.649,1.336l0.286,0.587l0.553-0.348l6.124-3.868l0.464-0.292l-0.263-0.481l-0.597-1.094
		c-2.41-4.418-6.655-6.952-11.648-6.952c-7.311,0-12.416,4.639-12.416,11.279c0,6.647,5.177,9.457,10.772,11.502
		c5.837,2.048,6.821,3.203,6.821,5.021c0,0.768,0,3.104-5.311,3.104c-3.304,0-5.828-1.541-6.924-4.228l-0.504-1.236l-0.222-0.543
		l-0.542,0.224l-6.61,2.729l-0.511,0.211l0.183,0.522l0.415,1.188c2.126,6.086,7.515,9.577,14.784,9.577
		c8.649,0,14.022-4.399,14.022-11.479C94.311,30.329,89.955,27.35,82.43,24.608z"/>
	<polygon fill="#335EEA" points="114.291,27.34 127.947,11.54 128.782,10.573 127.504,10.573 118.306,10.573 118.04,10.573 
		117.865,10.774 106.376,24.018 106.376,0.584 106.376,0 105.792,0 98.184,0 97.599,0 97.599,0.584 97.599,47.532 97.599,48.116 
		98.184,48.116 105.792,48.116 106.376,48.116 106.376,47.532 106.376,36.412 108.592,33.843 119.4,47.888 119.576,48.116 
		119.864,48.116 129.107,48.116 130.294,48.116 129.57,47.174 	"/>
	<path fill="#335EEA" d="M154.816,10.547h-0.585v0.584v20.935c0,0.255-0.014,0.507-0.037,0.756c-0.375,3.726-3.492,6.642-7.27,6.642
		c-4.028,0-7.307-3.322-7.307-7.405V11.131v-0.584h-0.584h-7.6h-0.584v0.584v20.927c0,8.916,7.211,16.17,16.074,16.17
		c8.864,0,16.074-7.25,16.074-16.162V11.131v-0.584h-0.584H154.816z M162.394,32.87c0.014-0.267,0.021-0.534,0.021-0.804
		C162.415,32.335,162.408,32.603,162.394,32.87z"/>
	<path fill="#335EEA" d="M199.416,10.629h-7.595h-0.585v0.584v6.422c0,4.078-3.315,7.397-7.391,7.397s-7.391-3.322-7.391-7.405
		v-6.414v-0.584h-0.585h-7.595h-0.585v0.584v6.414c0,4.478,1.861,8.742,5.129,11.8c-3.268,3.061-5.129,7.325-5.129,11.803v6.44
		v0.585h0.585h7.595h0.585V47.67v-6.44c0-4.084,3.315-7.405,7.391-7.405s7.391,3.317,7.391,7.396v6.449v0.585h0.585h7.595H200V47.67
		v-6.449c0-4.475-1.861-8.735-5.127-11.794C198.139,26.372,200,22.11,200,17.635v-6.422v-0.584H199.416z"/>
	<path fill="#335EEA" d="M56.818,15.889c-3.52-3.401-8.148-5.274-13.031-5.274c-10.347,0-18.765,8.417-18.765,18.762
		c0,10.349,8.418,18.767,18.765,18.767c3.55,0,6.967-0.985,9.95-2.86v2.249v0.584h0.584h7.646h0.584v-0.584V28.705v-0.584h-0.043
		C62.2,23.475,60.193,19.15,56.818,15.889z M43.787,19.379c5.181,0,9.508,3.982,9.96,9.111l-0.01,0.215v1.674
		c-0.512,5.133-4.784,9.001-9.95,9.001c-5.515,0-10-4.487-10-10.003C33.786,23.864,38.272,19.379,43.787,19.379z"/>
	<path fill="#335EEA" d="M19.294,39.437c-5.806,0-10.529-4.723-10.529-10.528V0.69V0.106H8.18H0.584H0V0.69v28.218
		c0,10.638,8.655,19.293,19.294,19.293h4.235h0.584v-0.585v-7.595v-0.585h-0.584H19.294z"/>
</g>
</svg>
