<?xml version="1.0" encoding="UTF-8" standalone="no"?><!-- Generator: Gravit.io --><svg xmlns="http://www.w3.org/2000/svg" xmlns:xlink="http://www.w3.org/1999/xlink" style="isolation:isolate" viewBox="0 0 196.1 162.5" width="196.1pt" height="162.5pt"><defs><clipPath id="_clipPath_npkj8Sj1GECZkEgjcLSwaou5tWyWRZKT"><rect width="196.1" height="162.5"/></clipPath></defs><g clip-path="url(#_clipPath_npkj8Sj1GECZkEgjcLSwaou5tWyWRZKT)"><g><g><g><path d=" M 178.336 68.977 L 160.181 66.709 C 159.465 66.623 158.754 66.842 158.217 67.316 C 157.679 67.791 157.371 68.473 157.371 69.19 L 157.37 96.424 C 157.37 97.141 157.678 97.823 158.216 98.298 C 158.675 98.703 159.265 98.924 159.87 98.924 C 159.973 98.924 160.077 98.917 160.181 98.904 L 178.337 96.633 C 179.588 96.477 180.526 95.413 180.526 94.153 L 180.526 71.457 C 180.526 70.197 179.587 69.133 178.336 68.977 Z " fill="rgb(208,225,250)"/><g><path d=" M 79.897 73.729 L 79.897 64.649 L 102.592 64.649 C 105.1 64.649 107.131 66.682 107.131 69.189 C 107.131 71.696 105.099 73.729 102.592 73.729 L 79.897 73.729 L 79.897 73.729 Z " fill="rgb(208,225,250)"/></g><g><path d=" M 79.897 100.963 L 79.897 91.887 L 102.593 91.885 C 105.1 91.884 107.131 93.916 107.131 96.424 C 107.131 98.93 105.1 100.963 102.592 100.963 L 79.897 100.963 L 79.897 100.963 Z " fill="rgb(208,225,250)"/></g></g><g><rect x="0" y="78.266" width="16.078" height="9.077" transform="matrix(1,0,0,1,0,0)" fill="rgb(59,132,242)"/></g><path d=" M 37.89 67.316 C 37.353 66.841 36.636 66.618 35.926 66.71 L 17.769 68.98 C 16.518 69.136 15.579 70.2 15.579 71.46 L 15.579 94.155 C 15.579 95.416 16.518 96.479 17.769 96.635 L 35.925 98.904 C 36.029 98.917 36.132 98.924 36.235 98.924 C 36.841 98.924 37.43 98.703 37.889 98.298 C 38.427 97.823 38.735 97.141 38.735 96.424 L 38.736 69.19 C 38.735 68.473 38.427 67.791 37.89 67.316 Z " fill="rgb(208,225,250)"/><g><path d=" M 70.816 107.771 L 70.816 57.841 C 70.816 55.334 72.849 53.301 75.356 53.301 C 77.864 53.301 79.896 55.334 79.896 57.841 L 79.897 107.771 C 79.897 110.278 77.864 112.31 75.357 112.31 C 72.849 112.311 70.816 110.278 70.816 107.771 Z " fill="rgb(46,106,229)"/></g><g><path d=" M 32.235 94.803 L 32.234 70.81 C 32.235 66.057 35.901 62.108 40.643 61.758 L 70.816 57.841 L 70.816 107.771 L 40.642 103.855 C 35.9 103.504 32.234 99.556 32.235 94.803 Z " fill="rgb(59,132,242)"/></g><g><path d=" M 48.122 85.664 L 48.122 79.953 C 48.121 74.008 52.939 69.189 58.884 69.19 L 70.819 69.189 L 70.816 96.423 L 58.884 96.425 C 52.94 96.424 48.122 91.605 48.122 85.664 Z " fill="rgb(208,225,250)"/></g><g><g><path d=" M 196.106 78.268 L 196.104 87.347 L 180.026 87.348 L 180.026 78.268 L 196.106 78.268 Z " fill="rgb(59,132,242)"/></g></g><g><path d=" M 125.288 57.841 L 125.288 107.771 C 125.288 110.278 123.256 112.31 120.749 112.31 C 118.241 112.31 116.209 110.279 116.209 107.771 L 116.209 57.841 C 116.209 55.334 118.241 53.302 120.749 53.302 C 123.255 53.302 125.289 55.334 125.288 57.841 Z " fill="rgb(46,106,229)"/></g><g><path d=" M 163.87 70.81 L 163.871 94.803 C 163.87 99.556 160.203 103.504 155.462 103.855 L 125.289 107.774 L 125.289 57.843 L 155.464 61.759 C 160.205 62.108 163.871 66.057 163.87 70.81 Z " fill="rgb(59,132,242)"/></g><g><path d=" M 147.983 79.885 L 147.983 85.726 C 147.983 91.635 143.194 96.424 137.287 96.422 L 125.289 96.424 L 125.289 69.189 L 137.288 69.189 C 143.195 69.189 147.983 73.978 147.983 79.885 Z " fill="rgb(208,225,250)"/></g></g></g><g><g><g><path d=" M 97.274 36.499 C 96.446 36.499 95.774 35.828 95.774 34.999 L 95.774 1.5 C 95.774 0.671 96.446 0 97.274 0 C 98.102 0 98.774 0.671 98.774 1.5 L 98.774 34.999 C 98.774 35.828 98.102 36.499 97.274 36.499 Z " fill="rgb(59,132,242)"/></g><g><path d=" M 97.274 162.499 C 96.446 162.499 95.774 161.827 95.774 160.999 L 95.774 127.5 C 95.774 126.672 96.446 126 97.274 126 C 98.102 126 98.774 126.672 98.774 127.5 L 98.774 160.999 C 98.774 161.827 98.102 162.499 97.274 162.499 Z " fill="rgb(59,132,242)"/></g></g></g><g><g><g><path d=" M 137.049 42.975 C 136.665 42.975 136.281 42.829 135.988 42.536 C 135.402 41.951 135.402 41 135.988 40.415 L 152.604 23.798 C 153.19 23.212 154.139 23.212 154.725 23.798 C 155.311 24.383 155.311 25.333 154.725 25.919 L 138.109 42.536 C 137.817 42.828 137.433 42.975 137.049 42.975 Z " fill="rgb(59,132,242)"/></g><g><path d=" M 40.882 139.141 C 40.498 139.141 40.114 138.995 39.821 138.702 C 39.235 138.116 39.235 137.167 39.821 136.581 L 56.437 119.966 C 57.023 119.38 57.972 119.38 58.558 119.966 C 59.144 120.552 59.144 121.501 58.558 122.087 L 41.942 138.702 C 41.65 138.994 41.266 139.141 40.882 139.141 Z " fill="rgb(59,132,242)"/></g></g></g><g><g><g><path d=" M 57.499 42.975 C 57.115 42.975 56.731 42.829 56.438 42.536 L 39.821 25.92 C 39.235 25.335 39.235 24.384 39.821 23.799 C 40.407 23.213 41.356 23.213 41.942 23.799 L 58.559 40.415 C 59.145 41 59.145 41.951 58.559 42.536 C 58.267 42.828 57.883 42.975 57.499 42.975 Z " fill="rgb(59,132,242)"/></g><g><path d=" M 153.666 139.142 C 153.282 139.142 152.898 138.996 152.605 138.703 L 135.99 122.087 C 135.404 121.501 135.404 120.552 135.99 119.966 C 136.576 119.38 137.525 119.38 138.111 119.966 L 154.726 136.582 C 155.312 137.168 155.312 138.117 154.726 138.703 C 154.433 138.995 154.049 139.142 153.666 139.142 Z " fill="rgb(59,132,242)"/></g></g></g></g></svg>