<?xml version="1.0" encoding="UTF-8" standalone="no"?><!-- Generator: Gravit.io --><svg xmlns="http://www.w3.org/2000/svg" xmlns:xlink="http://www.w3.org/1999/xlink" style="isolation:isolate" viewBox="0 0 195 159.6" width="195pt" height="159.6pt"><defs><clipPath id="_clipPath_WQbjQCaC6CN7A0ijSTEYOvO9eEBnB1Tj"><rect width="195" height="159.6"/></clipPath></defs><g clip-path="url(#_clipPath_WQbjQCaC6CN7A0ijSTEYOvO9eEBnB1Tj)"><g><g><g><g><ellipse vector-effect="non-scaling-stroke" cx="96.93495177624939" cy="153.72970897111685" rx="33.333" ry="5.915999999999997" fill="rgb(238,245,255)"/></g><g><path d=" M 76.119 154.188 C 75.015 154.188 74.119 153.292 74.119 152.188 L 74.119 140.188 C 74.119 139.084 75.015 138.188 76.119 138.188 C 77.223 138.188 78.119 139.084 78.119 140.188 L 78.119 152.188 C 78.119 153.292 77.223 154.188 76.119 154.188 Z " fill="rgb(59,132,242)"/></g><g><path d=" M 118.119 154.188 C 117.015 154.188 116.119 153.292 116.119 152.188 L 116.119 140.188 C 116.119 139.084 117.015 138.188 118.119 138.188 C 119.223 138.188 120.119 139.084 120.119 140.188 L 120.119 152.188 C 120.119 153.292 119.223 154.188 118.119 154.188 Z " fill="rgb(59,132,242)"/></g><g><path d=" M 160.738 105.533 C 160.226 105.533 159.715 105.338 159.324 104.947 L 148.717 94.342 C 147.936 93.562 147.936 92.295 148.717 91.514 C 149.498 90.733 150.764 90.733 151.545 91.514 L 162.152 102.119 C 162.933 102.899 162.933 104.166 162.152 104.947 C 161.762 105.337 161.25 105.533 160.738 105.533 Z " fill="rgb(59,132,242)"/></g><g><path d=" M 44.119 96.188 L 29.119 96.188 C 28.015 96.188 27.119 95.292 27.119 94.188 C 27.119 93.084 28.015 92.188 29.119 92.188 L 44.119 92.188 C 45.223 92.188 46.119 93.084 46.119 94.188 C 46.119 95.292 45.223 96.188 44.119 96.188 Z " fill="rgb(59,132,242)"/></g><g><path d=" M 28.119 106.188 C 27.015 106.188 26.119 105.292 26.119 104.188 L 26.119 63.188 C 26.119 62.084 27.015 61.188 28.119 61.188 C 29.223 61.188 30.119 62.084 30.119 63.188 L 30.119 104.188 C 30.119 105.292 29.223 106.188 28.119 106.188 Z " fill="rgb(59,132,242)"/></g><path d=" M 150.529 24.812 L 126.345 0.77 C 125.97 0.397 125.463 0.188 124.935 0.188 L 53.837 0.188 C 48.641 0.188 43.119 3.323 43.119 9.132 L 43.119 130.328 C 43.119 135.808 48.428 141.188 53.837 141.188 L 142.033 141.188 C 147.721 141.188 151.119 135.667 151.119 130.328 L 151.119 26.23 C 151.119 25.698 150.907 25.187 150.529 24.812 Z " fill="rgb(208,225,250)"/><g><path d=" M 149.101 25.674 L 130.511 25.674 C 127.368 25.674 124.812 23.127 124.812 19.984 L 124.812 2.001 L 149.101 25.674 Z " fill-rule="evenodd" fill="rgb(60,147,246)"/><path d=" M 149.121 27.674 C 149.115 27.674 149.107 27.673 149.101 27.674 L 130.511 27.674 C 126.266 27.674 122.812 24.224 122.812 19.984 L 122.812 2.001 C 122.812 1.197 123.293 0.471 124.035 0.158 C 124.774 -0.155 125.631 0.006 126.208 0.569 L 150.338 24.087 C 150.815 24.452 151.121 25.027 151.121 25.674 C 151.121 26.779 150.226 27.674 149.121 27.674 Z  M 126.812 6.744 L 126.812 19.984 C 126.812 22.019 128.471 23.674 130.511 23.674 L 144.183 23.674 L 126.812 6.744 Z " fill="rgb(60,147,246)"/></g><g><path d=" M 68.079 80.748 C 66.276 80.748 64.809 79.282 64.809 77.48 C 64.809 75.678 66.276 74.212 68.079 74.212 C 69.88 74.212 71.346 75.678 71.346 77.48 C 71.346 79.282 69.881 80.748 68.079 80.748 Z " fill="rgb(59,132,242)"/></g><g><path d=" M 127.291 80.748 C 125.489 80.748 124.023 79.282 124.023 77.48 C 124.023 75.678 125.489 74.212 127.291 74.212 C 129.094 74.212 130.561 75.678 130.561 77.48 C 130.561 79.282 129.094 80.748 127.291 80.748 Z " fill="rgb(59,132,242)"/></g><g><path d=" M 116.685 111.48 C 116.173 111.48 115.662 111.285 115.271 110.894 C 105.581 101.203 89.81 101.205 80.117 110.894 C 79.336 111.675 78.07 111.675 77.288 110.894 C 76.507 110.113 76.507 108.846 77.288 108.066 C 88.539 96.814 106.847 96.815 118.098 108.066 C 118.879 108.847 118.879 110.113 118.098 110.894 C 117.709 111.285 117.197 111.48 116.685 111.48 Z " fill="rgb(59,132,242)"/></g><g><path d=" M 28.763 15.194 L 55.027 61.816 L 2.5 61.816 L 28.763 15.194 L 28.763 15.194 Z " fill="rgb(59,132,242)"/><path d=" M 55.047 64.316 C 55.039 64.316 55.033 64.316 55.027 64.316 L 2.5 64.316 C 1.611 64.316 0.79 63.844 0.342 63.077 C -0.107 62.31 -0.114 61.363 0.322 60.589 L 26.585 13.967 C 27.028 13.181 27.86 12.694 28.763 12.694 C 29.666 12.694 30.498 13.18 30.941 13.967 L 57.064 60.34 C 57.367 60.754 57.546 61.264 57.546 61.817 C 57.547 63.197 56.428 64.316 55.047 64.316 Z  M 6.778 59.316 L 50.749 59.316 L 28.763 20.288 L 6.778 59.316 Z " fill="rgb(59,132,242)"/></g><g><g><path d=" M 25.239 37.906 L 26.583 46.81 C 26.752 47.818 27.592 48.658 28.768 48.658 L 28.768 48.658 C 29.776 48.658 30.785 47.818 30.952 46.81 L 32.297 37.906 C 32.633 35.72 30.952 33.873 28.769 33.873 L 28.769 33.873 C 26.582 33.873 25.071 35.72 25.239 37.906 Z " fill="rgb(255,255,255)"/></g><g><circle vector-effect="non-scaling-stroke" cx="28.766951776249357" cy="52.52170897111685" r="2.0159999999999982" fill="rgb(255,255,255)"/></g></g></g></g></g></g></svg>