<?xml version="1.0" encoding="UTF-8" standalone="no"?><!-- Generator: Gravit.io --><svg xmlns="http://www.w3.org/2000/svg" xmlns:xlink="http://www.w3.org/1999/xlink" style="isolation:isolate" viewBox="0 0 139.4 120.8" width="139.4pt" height="120.8pt"><defs><clipPath id="_clipPath_Jf0p0tDKWs2p5Nccbl5Hddn1maQECuaS"><rect width="139.4" height="120.8"/></clipPath></defs><g clip-path="url(#_clipPath_Jf0p0tDKWs2p5Nccbl5Hddn1maQECuaS)"><rect width="139.4" height="120.8" style="fill:rgb(0,0,0)" fill-opacity="0"/><g><g><g><path d=" M 50.205 95.262 L 89.201 95.262 L 89.201 111.404 L 50.205 111.404 L 50.205 95.262 Z " fill="rgb(46,106,229)"/></g><g><path d=" M 132.252 97.523 L 7.156 97.523 C 3.203 97.523 0 94.319 0 90.367 L 0 7.155 C 0 3.203 3.203 0 7.156 0 L 132.252 0 C 136.203 0 139.406 3.203 139.406 7.155 L 139.406 90.367 C 139.406 94.319 136.203 97.523 132.252 97.523 Z " fill="rgb(59,132,242)"/></g><g><path d=" M 101.84 120.808 L 37.568 120.808 C 36.794 120.808 36.165 120.181 36.165 119.407 L 36.165 114.861 C 36.165 111.779 38.664 109.279 41.747 109.279 L 97.661 109.279 C 100.745 109.279 103.243 111.779 103.243 114.861 L 103.243 119.407 C 103.242 120.181 102.613 120.808 101.84 120.808 Z " fill="rgb(59,132,242)"/></g><g><rect x="6.242" y="5.645" width="126.922" height="75.496" transform="matrix(1,0,0,1,0,0)" fill="rgb(255,255,255)"/></g><path d=" M 99.2 66.593 L 71.881 18.097 C 71.438 17.31 70.606 16.824 69.703 16.824 C 68.8 16.824 67.968 17.31 67.525 18.097 L 40.066 66.843 C 39.63 67.616 39.637 68.564 40.086 69.331 C 40.534 70.098 41.356 70.569 42.244 70.569 L 97.162 70.569 C 97.168 70.568 97.176 70.568 97.182 70.569 C 98.563 70.569 99.682 69.45 99.682 68.069 C 99.682 67.518 99.503 67.008 99.2 66.593 Z " fill="rgb(59,132,242)"/><g><g><path d=" M 65.214 41.675 L 66.918 52.957 C 67.13 54.234 68.194 55.299 69.684 55.299 L 69.684 55.299 C 70.963 55.299 72.24 54.235 72.451 52.957 L 74.154 41.675 C 74.58 38.908 72.451 36.567 69.684 36.567 L 69.684 36.567 C 66.918 36.566 65.002 38.908 65.214 41.675 Z " fill="rgb(255,255,255)"/></g><g><circle vector-effect="non-scaling-stroke" cx="69.6840029296875" cy="60.19399932861327" r="2.555000000000007" fill="rgb(255,255,255)"/></g></g></g></g></g></svg>