<?xml version="1.0" encoding="UTF-8" standalone="no"?><!-- Generator: Gravit.io --><svg xmlns="http://www.w3.org/2000/svg" xmlns:xlink="http://www.w3.org/1999/xlink" style="isolation:isolate" viewBox="0 0 140 140" width="140pt" height="140pt"><defs><clipPath id="_clipPath_komkg0jGuCmb1cmamssBwX7tYWSKxhZA"><rect width="140" height="140"/></clipPath></defs><g clip-path="url(#_clipPath_komkg0jGuCmb1cmamssBwX7tYWSKxhZA)"><path d=" M 88.979 77.395 L 77.395 88.98 C 76.893 89.486 76.892 90.304 77.395 90.808 L 96.215 109.627 C 96.72 110.132 97.539 110.132 98.043 109.627 L 109.627 98.044 C 109.868 97.803 110.005 97.475 110.005 97.132 C 110.005 96.789 109.871 96.461 109.628 96.217 L 90.806 77.395 C 90.564 77.155 90.236 77.017 89.893 77.017 C 89.55 77.017 89.22 77.154 88.979 77.395 Z " fill="rgb(208,225,250)"/><g><path d=" M 100.07 50.036 C 100.07 50.036 100.07 50.036 100.07 50.036 C 100.07 63.369 94.887 75.913 85.479 85.356 C 76.045 94.823 63.489 100.049 50.125 100.072 C 36.759 100.094 24.183 94.913 14.717 85.48 C 5.228 76.021 0 63.435 0 50.035 C 0 36.704 5.183 24.16 14.595 14.717 C 24.029 5.25 36.584 0.024 49.948 0 C 63.315 -0.024 75.888 5.158 85.356 14.593 C 94.845 24.052 100.07 36.641 100.07 50.036 Z  M 9.045 50.035 C 9.045 61.012 13.327 71.324 21.102 79.071 C 28.857 86.8 39.158 91.046 50.107 91.026 C 61.058 91.007 71.342 86.724 79.071 78.971 C 86.779 71.236 91.024 60.958 91.025 50.035 C 91.025 39.061 86.744 28.749 78.969 21.001 C 71.211 13.272 60.912 9.027 49.963 9.045 C 39.014 9.064 28.728 13.345 21.002 21.101 C 13.292 28.838 9.045 39.115 9.045 50.035 Z " fill="rgb(59,132,242)"/></g><g><path d=" M 137.145 123.358 L 105.425 91.644 L 91.641 105.426 L 123.36 137.146 C 127.167 140.95 133.339 140.951 137.146 137.146 C 140.951 133.341 140.951 127.169 137.145 123.358 Z  M 130.034 133.564 C 128.176 133.564 126.672 132.057 126.672 130.199 C 126.672 128.342 128.176 126.837 130.034 126.837 C 131.892 126.837 133.398 128.342 133.396 130.198 C 133.398 132.058 131.893 133.563 130.034 133.564 Z " fill="rgb(46,106,229)"/></g></g></svg>