<?xml version="1.0" encoding="UTF-8" standalone="no"?><!-- Generator: Gravit.io --><svg xmlns="http://www.w3.org/2000/svg" xmlns:xlink="http://www.w3.org/1999/xlink" style="isolation:isolate" viewBox="0 0 168.1 185.7" width="168.1pt" height="185.7pt"><defs><clipPath id="_clipPath_z5WoaaB9RaphTZ63n235tZBdY2yOPScs"><rect width="168.1" height="185.7"/></clipPath></defs><g clip-path="url(#_clipPath_z5WoaaB9RaphTZ63n235tZBdY2yOPScs)"><g><path d=" M 138.269 14.877 C 138.269 6.818 131.872 0 123.813 0 L 45.859 0 C 37.801 0 31.269 6.818 31.269 14.877 L 31.269 152.581 C 31.269 160.638 37.801 167 45.859 167 L 123.813 167 C 131.872 167 138.269 160.638 138.269 152.581 L 138.269 14.877 L 138.269 14.877 Z " fill="rgb(208,225,250)"/><circle vector-effect="non-scaling-stroke" cx="83.91399999999992" cy="154.6849999999999" r="4.829999999999998" fill="rgb(59,132,242)"/><circle vector-effect="non-scaling-stroke" cx="81.41699999999993" cy="13.644999999999987" r="1.2150000000000034" fill="rgb(59,132,242)"/><circle vector-effect="non-scaling-stroke" cx="87.9699999999999" cy="13.644999999999996" r="2.1509999999999962" fill="rgb(59,132,242)"/><rect x="40.162" y="23.768" width="89.867" height="119.82" transform="matrix(1,0,0,1,0,0)" fill="rgb(255,255,255)"/><g><path d=" M 95.769 100.758 C 89.459 100.758 84.324 95.625 84.324 89.315 L 84.324 58.644 L 84.324 58.007 L 83.689 58.007 L 75.433 58.007 L 74.798 58.007 L 74.798 58.644 L 74.798 89.315 C 74.798 100.878 84.205 110.287 95.769 110.287 L 100.373 110.287 L 101.008 110.287 L 101.008 109.65 L 101.008 101.395 L 101.008 100.758 L 100.373 100.758 L 95.769 100.758 Z " fill="rgb(59,132,242)"/></g><circle vector-effect="non-scaling-stroke" cx="136.64699999999996" cy="154.372" r="31.35300000000001" fill="rgb(59,132,242)"/><path d=" M 149.384 156.395 C 148.603 155.614 147.337 155.614 146.556 156.395 L 138.915 164.036 L 138.915 140.558 C 138.915 139.454 138.019 138.558 136.915 138.558 C 135.811 138.558 134.915 139.454 134.915 140.558 L 134.915 164.036 L 127.273 156.395 C 126.492 155.614 125.226 155.614 124.445 156.395 C 123.664 157.176 123.664 158.442 124.445 159.223 L 135.501 170.278 C 135.892 170.669 136.403 170.864 136.915 170.864 C 137.427 170.864 137.938 170.669 138.329 170.278 L 149.384 159.223 C 150.165 158.441 150.165 157.176 149.384 156.395 Z " fill="rgb(255,255,255)"/></g></g></svg>