<?xml version="1.0" encoding="utf-8"?>
<!-- Generator: Adobe Illustrator 16.0.3, SVG Export Plug-In . SVG Version: 6.00 Build 0)  -->
<!DOCTYPE svg PUBLIC "-//W3C//DTD SVG 1.1//EN" "http://www.w3.org/Graphics/SVG/1.1/DTD/svg11.dtd">
<svg version="1.1" xmlns="http://www.w3.org/2000/svg" xmlns:xlink="http://www.w3.org/1999/xlink" x="0px" y="0px" width="940px"
	 height="660px" viewBox="0 0 940 660" enable-background="new 0 0 940 660" xml:space="preserve">
<g id="_x38_-raportointi">
	<g id="Layer_59">
	</g>
	<g id="Layer_67">
	</g>
	<g id="Layer_62">
	</g>
	<g id="Layer_61">
	</g>
	<g id="Layer_60">
	</g>
	<g id="Layer_63">
	</g>
	<g id="Layer_64">
	</g>
	<g id="Layer_65">
	</g>
	<g id="Layer_74">
	</g>
</g>
<g id="_x37_-liitearkisto">
	<rect fill="#EEF5FF" width="940" height="660"/>
	<g id="Layer_44">
		<g>
			<g>
				<g>
					<path fill="#2E6AE5" d="M591.343,264.211H472.19l-23.575-33.007h-86.143c-4.508,0-8.17,3.652-8.17,8.168v201.481
						c0.324,0.01,0.65,0.03,0.971,0.047L402.494,312.1c0.871-3.218,3.786-5.448,7.121-5.448h189.893v-34.275
						C599.508,267.871,595.85,264.211,591.343,264.211z"/>
				</g>
			</g>
		</g>
		<g id="Layer_48">
			<g>
				<g>
					<path fill="#FFFFFF" d="M565,395.05c0,6.538-5.935,11.95-12.477,11.95H405.5c-6.542,0-12.5-5.412-12.5-11.95V188.469
						c0-6.539,5.958-11.469,12.5-11.469h131.145L565,205.102V395.05z"/>
				</g>
			</g>
			<g>
				<g>
					<path fill="#3B84F2" d="M565.381,205H548.42c-6.542,0-11.42-5.884-11.42-12.423v-15.949L565.381,205z"/>
				</g>
			</g>
			<g>
				<g>
					<g>
						<g>
							<path fill="#2E6AE5" d="M438.604,201.105c-0.938-0.939-2.463-0.923-3.381,0.034l-5.027,5.239l-12.269-4.061l-2.575,2.575
								l10.227,6.297l-5.176,5.391l-3.316-0.544l-2.328,2.327l4.877,1.71l1.71,4.878l2.327-2.328l-0.544-3.318l5.392-5.175
								l6.295,10.227l2.577-2.575l-4.06-12.27l5.236-5.027C439.526,203.568,439.543,202.043,438.604,201.105z"/>
						</g>
					</g>
				</g>
			</g>
			<g>
				<g>
					<path fill="#3B84F2" d="M502,205h-50c-0.553,0-1-0.448-1-1s0.447-1,1-1h50c0.553,0,1,0.448,1,1S502.553,205,502,205z"/>
				</g>
			</g>
			<g>
				<g>
					<path fill="#3B84F2" d="M502,214h-50c-0.553,0-1-0.448-1-1s0.447-1,1-1h50c0.553,0,1,0.448,1,1S502.553,214,502,214z"/>
				</g>
			</g>
			<g>
				<g>
					<path fill="#3B84F2" d="M485,223h-33c-0.553,0-1-0.448-1-1s0.447-1,1-1h33c0.553,0,1,0.448,1,1S485.553,223,485,223z"/>
				</g>
			</g>
			<g>
				<g>
					<path fill="#3B84F2" d="M535,257H416c-0.553,0-1-0.448-1-1s0.447-1,1-1h119c0.553,0,1,0.448,1,1S535.553,257,535,257z"/>
				</g>
			</g>
			<g>
				<g>
					<path fill="#3B84F2" d="M535,271H416c-0.553,0-1-0.448-1-1s0.447-1,1-1h119c0.553,0,1,0.448,1,1S535.553,271,535,271z"/>
				</g>
			</g>
			<g>
				<g>
					<path fill="#3B84F2" d="M495,285h-79c-0.553,0-1-0.448-1-1s0.447-1,1-1h79c0.553,0,1,0.448,1,1S495.553,285,495,285z"/>
				</g>
			</g>
		</g>
		<g id="Layer_46">
		</g>
		<g>
			<g>
				<path fill="#3B84F2" d="M572.745,449.823H361.682c-4.856,0-8.387-4.612-7.119-9.302l47.939-131.431
					c0.865-3.213,3.783-5.449,7.117-5.449h211.063c4.859,0,7.121,4.643,7.121,9.305l-47.938,131.425
					C578.999,447.589,576.077,449.823,572.745,449.823z"/>
			</g>
		</g>
	</g>
	<g id="Layer_55">
		<rect x="306.313" y="464.921" fill="none" width="48.278" height="43.341"/>
		<text transform="matrix(1 0 0 1 306.3135 491.8701)" fill="#D0E1FA" font-family="'Barlow-Bold'" font-size="38.5">€</text>
		<rect x="637.445" y="205.154" fill="none" width="48.278" height="43.342"/>
		<text transform="matrix(1 0 0 1 637.4463 232.1035)" fill="#D0E1FA" font-family="'Barlow-Bold'" font-size="38.5">€</text>
	</g>
	<g id="Layer_49">
	</g>
	<g id="Layer_47">
		<path fill="#FFFFFF" d="M727.988,291.62c0.959,0.001,2.012-0.773,2.012-1.729v-10.765c0-0.955-1.336-2.126-2.291-2.126h-18.375
			h-0.016h-47.306c-0.462,0-1.041,0.381-1.365,0.705c-0.323,0.325-0.647,0.96-0.647,1.421v10.765c0,0.953,0.918,1.729,1.872,1.729
			c3.497,0,6.411,2.844,6.411,6.337c0,3.495-2.949,6.339-6.449,6.341c-0.955-0.002-1.834,0.773-1.834,1.729v10.765
			c0,0.954,1.057,2.208,2.013,2.208h18.375h0.014h47.308c0.459,0,1.18-0.423,1.504-0.746c0.322-0.324,0.787-1.002,0.787-1.462
			v-10.765c0-0.953-1.059-1.729-2.014-1.729c-3.496,0-6.34-2.844-6.34-6.338S724.49,291.621,727.988,291.62z"/>
		<path fill="#8FB8FD" d="M707,277v42h-3.916h24.625c0.459,0,1.18-0.423,1.504-0.746c0.322-0.324,0.787-1.002,0.787-1.462v-10.765
			c0-0.953-1.059-1.729-2.014-1.729c-3.496,0-6.443-2.844-6.443-6.338s3.001-6.339,6.5-6.34c0.957,0.001,1.957-0.773,1.957-1.729
			v-10.765c0-0.955-1.336-2.126-2.291-2.126H707z"/>
		
			<line fill="none" stroke="#FFFFFF" stroke-width="2" stroke-linecap="round" stroke-linejoin="round" stroke-miterlimit="10" stroke-dasharray="0,6" x1="712" y1="283" x2="712" y2="314"/>
		
			<line fill="none" stroke="#8FB8FD" stroke-width="2" stroke-linecap="round" stroke-linejoin="round" stroke-miterlimit="10" x1="675" y1="290" x2="698" y2="290"/>
		
			<line fill="none" stroke="#8FB8FD" stroke-width="2" stroke-linecap="round" stroke-linejoin="round" stroke-miterlimit="10" x1="675" y1="298" x2="698" y2="298"/>
		
			<line fill="none" stroke="#8FB8FD" stroke-width="2" stroke-linecap="round" stroke-linejoin="round" stroke-miterlimit="10" x1="675" y1="305" x2="689" y2="305"/>
	</g>
	<g id="Layer_50">
		<g>
			<g>
				<g>
					<path fill="#3B84F2" d="M643.15,451.466c-9.186,0-16.63-2.637-16.63-5.891v7.617h0.03c0.507,3.092,7.744,5.543,16.6,5.543
						c8.857,0,16.094-2.451,16.6-5.543h0.032v-7.617C659.782,448.829,652.336,451.466,643.15,451.466z"/>
				</g>
			</g>
			<g>
				<g>
					<path fill="#EA5525" d="M626.521,445.229v0.347c0-0.116,0.011-0.231,0.03-0.347H626.521z"/>
				</g>
			</g>
			<g>
				<g>
					<path fill="#EA5525" d="M659.75,445.229c0.02,0.115,0.032,0.23,0.032,0.347v-0.347H659.75z"/>
				</g>
			</g>
		</g>
		<g>
			<path fill="#8FB8FD" d="M643.15,443.733c-9.186,0-16.63-2.638-16.63-5.891v8.08h0.03c0.507,3.091,7.744,5.543,16.6,5.543
				c8.857,0,16.094-2.452,16.6-5.543h0.032v-8.08C659.782,441.096,652.336,443.733,643.15,443.733z"/>
			<path fill="#EA5525" d="M626.521,437.496v0.347c0-0.116,0.011-0.231,0.03-0.347H626.521z"/>
			<path fill="#EA5525" d="M659.75,437.496c0.02,0.115,0.032,0.23,0.032,0.347v-0.347H659.75z"/>
		</g>
		<ellipse fill="#8FB8FD" cx="643.15" cy="430.573" rx="16.632" ry="5.89"/>
		<g>
			<g>
				<g>
					<path fill="#3B84F2" d="M643.15,436.463c-9.186,0-16.63-2.638-16.63-5.891v7.618h0.03c0.507,3.092,7.744,5.543,16.6,5.543
						c8.857,0,16.094-2.451,16.6-5.543h0.032v-7.618C659.782,433.825,652.336,436.463,643.15,436.463z"/>
				</g>
			</g>
			<g>
				<g>
					<path fill="#EA5525" d="M626.521,430.226v0.347c0-0.116,0.011-0.232,0.03-0.347H626.521z"/>
				</g>
			</g>
			<g>
				<g>
					<path fill="#EA5525" d="M659.75,430.226c0.02,0.114,0.032,0.23,0.032,0.347v-0.347H659.75z"/>
				</g>
			</g>
		</g>
	</g>
	<g id="Layer_51">
	</g>
	<g id="Layer_52">
		<g>
			<g>
				<path fill="#3B84F2" d="M321,373.563c0-3.624-2.938-6.563-6.561-6.563h-61.879c-3.623,0-6.561,2.938-6.561,6.563v34.875
					c0,3.624,2.938,6.563,6.561,6.563h61.879c3.623,0,6.561-2.938,6.561-6.563V373.563z"/>
			</g>
		</g>
		<g>
			<g>
				<rect x="246" y="376" fill="#D0E1FA" width="75" height="12"/>
			</g>
		</g>
		<g>
			<g>
				<circle fill="#D0E1FA" cx="309.199" cy="402.124" r="5.5"/>
			</g>
		</g>
		<g>
			<g>
				<path fill="#D0E1FA" d="M282,401h-27c-0.553,0-1-0.447-1-1s0.447-1,1-1h27c0.553,0,1,0.447,1,1S282.553,401,282,401z"/>
			</g>
		</g>
		<g>
			<g>
				<path fill="#D0E1FA" d="M272,406h-17c-0.553,0-1-0.447-1-1s0.447-1,1-1h17c0.553,0,1,0.447,1,1S272.553,406,272,406z"/>
			</g>
		</g>
	</g>
	<g id="Layer_53">
		<g>
			<g>
				<g>
					<path fill="#D0E1FA" d="M330.602,218.586c-1,0.003-1.807,0.815-1.805,1.814l0.083,30.843c0,3.991-3.241,7.231-7.238,7.231
						c-3.995,0-7.236-3.24-7.236-7.237l-0.082-31.752c0-2.492,2.024-4.518,4.522-4.519c2.499,0,4.523,2.026,4.523,4.524v26.235
						c0,0.002,0,0.004,0,0.005c-0.003,0.997-0.811,1.804-1.809,1.804c-1,0-1.811-0.81-1.809-1.809l-0.002-12.665
						c0-0.999-0.809-1.81-1.811-1.81c-0.997,0-1.808,0.811-1.808,1.81l0.001,12.665c0,2.998,2.43,5.427,5.428,5.427
						c2.999,0,5.427-2.429,5.427-5.427c0-0.004,0-0.007,0-0.011v-26.225c0-4.497-3.645-8.143-8.143-8.143
						c-4.496,0.003-8.141,3.646-8.141,8.141l0.084,31.754c0,5.989,4.858,10.85,10.854,10.851
						c5.995-0.001,10.857-4.861,10.857-10.856l-0.083-30.848C332.413,219.392,331.601,218.584,330.602,218.586z"/>
				</g>
			</g>
		</g>
	</g>
	<g id="Layer_56">
		<g>
			<g>
				<polygon fill="#FFFFFF" points="564,387.923 557.615,394.986 551.139,388.246 544.607,394.986 537.973,388.246 531.283,394.986 
					524.563,388.246 516.438,394.986 508,387.932 508,477.409 517.729,470.346 525.879,477.086 533.246,470.346 540.298,477.086 
					547.197,470.346 554.022,477.086 558.855,470.346 564,477.399 				"/>
			</g>
			<g>
				<path fill="#FFFFFF" d="M508.5,477.909c-0.076,0-0.153-0.018-0.225-0.053c-0.169-0.085-0.275-0.258-0.275-0.447v-89.478
					c0-0.195,0.114-0.373,0.292-0.454c0.177-0.083,0.386-0.053,0.534,0.075l7.867,6.774l7.552-6.461
					c0.198-0.17,0.496-0.159,0.679,0.026l6.374,6.386l6.352-6.385c0.094-0.095,0.222-0.147,0.354-0.147c0,0,0,0,0.001,0
					c0.133,0,0.261,0.054,0.354,0.148l6.309,6.379l6.238-6.377c0.188-0.191,0.525-0.193,0.715,0l6.236,6.367l6.278-6.684
					c0.141-0.149,0.354-0.196,0.549-0.122c0.19,0.075,0.315,0.26,0.315,0.465v89.477c0,0.215-0.137,0.405-0.34,0.474
					c-0.201,0.068-0.427,0-0.558-0.17l-4.99-6.53l-4.683,6.214c-0.087,0.115-0.22,0.188-0.363,0.198
					c-0.15,0.008-0.286-0.043-0.388-0.144l-6.468-6.395l-6.532,6.396c-0.192,0.189-0.5,0.192-0.696,0.003l-6.681-6.414l-6.959,6.421
					c-0.185,0.173-0.468,0.178-0.66,0.016l-7.722-6.485l-9.162,6.827C508.711,477.876,508.605,477.909,508.5,477.909z
					 M517.979,469.846c0.114,0,0.229,0.039,0.321,0.117l7.688,6.457l6.981-6.441c0.193-0.181,0.494-0.176,0.686,0.007l6.67,6.404
					l6.538-6.401c0.193-0.191,0.506-0.191,0.701,0.002l6.411,6.338l4.734-6.283c0.095-0.125,0.271-0.216,0.399-0.199
					c0.155,0,0.303,0.072,0.397,0.196l4.493,5.88v-86.736l-5.771,5.9c-0.093,0.099-0.223-0.086-0.359-0.086
					c-0.001,0-0.003,0-0.005,0c-0.135,0-0.263,0.189-0.357,0.093l-6.244-6.253l-6.072,6.436c-0.094,0.096-0.191,0.181-0.191,0.181
					v0.015c0,0-0.427-0.046-0.521-0.141l-6.394-6.378l-6.392,6.385c-0.094,0.095-0.241,0.148-0.375,0.148l0,0
					c-0.133,0-0.271-0.052-0.364-0.146l-6.406-6.413l-7.529,6.439c-0.188,0.16-0.465,0.161-0.652-0.001L509,389.022v87.391
					l8.681-6.469C517.77,469.879,517.875,469.846,517.979,469.846z"/>
			</g>
		</g>
		<g>
			<g>
				<path fill="#3B84F2" d="M537.371,427.452c0.406-0.345,0.658-0.805,0.76-1.379c0.051-0.202,0.168-0.286,0.354-0.253l2.91,0.531
					c0.102,0.018,0.172,0.056,0.215,0.114c0.041,0.06,0.055,0.139,0.037,0.24c-0.219,1.333-0.844,2.387-1.871,3.163
					c-1.029,0.775-2.336,1.163-3.922,1.163c-1.164,0-2.188-0.231-3.074-0.695c-0.885-0.464-1.572-1.122-2.063-1.974
					c-0.488-0.852-0.732-1.843-0.732-2.973v-0.911c0-0.084-0.043-0.126-0.127-0.126h-1.619c-0.084,0-0.156-0.029-0.215-0.089
					c-0.059-0.059-0.088-0.131-0.088-0.215v-1.265c0-0.085,0.029-0.156,0.088-0.216c0.059-0.059,0.131-0.088,0.215-0.088h1.619
					c0.084,0,0.127-0.042,0.127-0.127v-0.784c0-0.084-0.043-0.127-0.127-0.127h-1.619c-0.084,0-0.156-0.029-0.215-0.088
					c-0.059-0.06-0.088-0.131-0.088-0.215v-1.266c0-0.084,0.029-0.155,0.088-0.215c0.059-0.059,0.131-0.089,0.215-0.089h1.619
					c0.084,0,0.127-0.042,0.127-0.126v-0.911c0-1.13,0.24-2.121,0.721-2.973s1.164-1.505,2.049-1.961
					c0.887-0.455,1.918-0.683,3.1-0.683c1.602,0,2.926,0.396,3.973,1.188c1.045,0.793,1.67,1.872,1.871,3.238v0.051
					c0,0.152-0.092,0.245-0.277,0.278l-2.961,0.38h-0.051c-0.15,0-0.252-0.093-0.303-0.278c-0.102-0.557-0.35-0.995-0.746-1.315
					s-0.898-0.481-1.506-0.481c-0.691,0-1.248,0.229-1.67,0.684s-0.633,1.046-0.633,1.771v1.013c0,0.084,0.043,0.126,0.127,0.126
					h5.035c0.102,0,0.176,0.034,0.227,0.102s0.061,0.151,0.025,0.253l-0.379,1.265c-0.051,0.169-0.16,0.253-0.328,0.253h-4.58
					c-0.084,0-0.127,0.043-0.127,0.127v0.784c0,0.085,0.043,0.127,0.127,0.127h4.174c0.102,0,0.178,0.033,0.229,0.101
					s0.059,0.152,0.025,0.253l-0.379,1.266c-0.051,0.169-0.162,0.253-0.33,0.253h-3.719c-0.084,0-0.127,0.042-0.127,0.126v1.063
					c0,0.726,0.211,1.313,0.633,1.759c0.422,0.447,0.979,0.67,1.67,0.67C536.461,427.971,536.967,427.799,537.371,427.452z"/>
			</g>
		</g>
		<g>
			<g>
				<path fill="#3B84F2" d="M554,441h-36c-0.553,0-1-0.447-1-1s0.447-1,1-1h36c0.553,0,1,0.447,1,1S554.553,441,554,441z"/>
			</g>
		</g>
		<g>
			<g>
				<path fill="#3B84F2" d="M554,447h-36c-0.553,0-1-0.447-1-1s0.447-1,1-1h36c0.553,0,1,0.447,1,1S554.553,447,554,447z"/>
			</g>
		</g>
		<g>
			<g>
				<path fill="#3B84F2" d="M547,454h-23c-0.553,0-1-0.447-1-1s0.447-1,1-1h23c0.553,0,1,0.447,1,1S547.553,454,547,454z"/>
			</g>
		</g>
	</g>
	<g id="Layer_57">
		<g>
			<path fill="#3B84F2" d="M712.342,389H678c-0.553,0-1-0.447-1-1v-21c0-0.553,0.447-1,1-1h40.125c0.313,0,0.606,0.146,0.796,0.394
				c0.188,0.249,0.251,0.571,0.168,0.872l-5.783,21C713.187,388.699,712.792,389,712.342,389z M679,387h32.58l5.232-19H679V387z"/>
		</g>
		<g>
			<path fill="#3B84F2" d="M702,395h-24c-0.553,0-1-0.447-1-1v-35.311l-7.976-2.289c-0.53-0.152-0.837-0.706-0.685-1.237
				s0.705-0.835,1.237-0.685l8.699,2.497c0.429,0.123,0.724,0.515,0.724,0.961V393h23c0.553,0,1,0.447,1,1S702.553,395,702,395z"/>
		</g>
		<g>
			<path fill="#3B84F2" d="M686.646,402.001c-2.389,0-4.332-1.943-4.332-4.331s1.943-4.33,4.332-4.33c2.388,0,4.33,1.942,4.33,4.33
				S689.034,402.001,686.646,402.001z M686.646,395.34c-1.286,0-2.332,1.045-2.332,2.33s1.046,2.331,2.332,2.331
				c1.285,0,2.33-1.046,2.33-2.331S687.932,395.34,686.646,395.34z"/>
		</g>
		<g>
			<path fill="#3B84F2" d="M703.744,402.001c-2.388,0-4.33-1.943-4.33-4.331s1.942-4.33,4.33-4.33s4.331,1.942,4.331,4.33
				S706.132,402.001,703.744,402.001z M703.744,395.34c-1.285,0-2.33,1.045-2.33,2.33s1.045,2.331,2.33,2.331
				s2.331-1.046,2.331-2.331S705.029,395.34,703.744,395.34z"/>
		</g>
		<g>
			<path fill="#3B84F2" d="M716,375h-38c-0.553,0-1-0.447-1-1s0.447-1,1-1h38c0.553,0,1,0.447,1,1S716.553,375,716,375z"/>
		</g>
		<g>
			<path fill="#3B84F2" d="M713,382h-35c-0.553,0-1-0.447-1-1s0.447-1,1-1h35c0.553,0,1,0.447,1,1S713.553,382,713,382z"/>
		</g>
		<g>
			<path fill="#3B84F2" d="M687,389c-0.553,0-1-0.447-1-1v-21c0-0.553,0.447-1,1-1s1,0.447,1,1v21C688,388.553,687.553,389,687,389z
				"/>
		</g>
		<g>
			<path fill="#3B84F2" d="M698,388c-0.553,0-1-0.447-1-1v-20c0-0.553,0.447-1,1-1s1,0.447,1,1v20C699,387.553,698.553,388,698,388z
				"/>
		</g>
		<g>
			<path fill="#3B84F2" d="M708,389c-0.553,0-1-0.447-1-1v-21c0-0.553,0.447-1,1-1s1,0.447,1,1v21C709,388.553,708.553,389,708,389z
				"/>
		</g>
	</g>
	<g id="Layer_58">
		<path fill="#8FB8FD" d="M274.855,271.63l-16.557-16.742c-0.424-0.425-1.064-0.434-1.498-0.019l-17.459,16.74
			c-0.217,0.208-0.342,0.494-0.342,0.794v38.62c0,0.608,0.542,0.977,1.15,0.977h34.1c0.608,0,0.75-0.368,0.75-0.977v-38.618
			C275,272.115,275.061,271.836,274.855,271.63z"/>
		<path fill="#FFFFFF" d="M239,299.421v11.986c0,0.711,0.627,1.593,1.337,1.593h33.45c0.711,0,1.213-0.882,1.213-1.593v-11.984
			L239,299.421z"/>
		<circle fill="#EEF5FF" cx="257.103" cy="267.095" r="2.45"/>
		
			<line fill="none" stroke="#8FB8FD" stroke-linecap="round" stroke-linejoin="round" stroke-miterlimit="10" x1="245.5" y1="303" x2="245.5" y2="308"/>
		
			<line fill="none" stroke="#8FB8FD" stroke-linecap="round" stroke-linejoin="round" stroke-miterlimit="10" x1="248.5" y1="303" x2="248.5" y2="308"/>
		
			<line fill="none" stroke="#8FB8FD" stroke-linecap="round" stroke-linejoin="round" stroke-miterlimit="10" x1="252.5" y1="303" x2="252.5" y2="308"/>
		
			<line fill="none" stroke="#8FB8FD" stroke-linecap="round" stroke-linejoin="round" stroke-miterlimit="10" x1="261.5" y1="303" x2="261.5" y2="308"/>
		
			<line fill="none" stroke="#8FB8FD" stroke-linecap="round" stroke-linejoin="round" stroke-miterlimit="10" x1="257.5" y1="303" x2="257.5" y2="308"/>
		
			<line fill="none" stroke="#8FB8FD" stroke-linecap="round" stroke-linejoin="round" stroke-miterlimit="10" x1="269.5" y1="303" x2="269.5" y2="308"/>
		
			<line fill="none" stroke="#8FB8FD" stroke-linecap="round" stroke-linejoin="round" stroke-miterlimit="10" x1="267.5" y1="303" x2="267.5" y2="308"/>
		<rect x="246.406" y="276.063" fill="none" width="52.103" height="54.027"/>
		<text transform="matrix(1 0 0 1 246.4063 293.1738)" fill="#FFFFFF" font-family="'Barlow-Bold'" font-size="24.4447">%</text>
	</g>
</g>
<g id="_x36_-Asiakasrekisteri">
	<g id="Layer_78">
	</g>
	<g id="Layer_80">
	</g>
	<g id="Layer_81">
	</g>
	<g id="Layer_82">
	</g>
	<g id="Layer_83">
	</g>
	<g id="Layer_84">
	</g>
</g>
<g id="_x35_-Tuoterekisteri">
	<g id="Layer_76">
	</g>
	<g id="Layer_69">
	</g>
	<g id="Layer_70">
	</g>
	<g id="Layer_66">
	</g>
	<g id="Layer_72">
	</g>
	<g id="Layer_75">
	</g>
	<g id="Layer_73">
	</g>
</g>
<g id="_x34_-toistuva_laskutus">
	<g id="Layer_34">
		<g id="Layer_43">
		</g>
		<g id="Layer_42">
		</g>
	</g>
	<g id="Layer_36">
	</g>
	<g id="Layer_38">
	</g>
	<g id="Layer_37">
	</g>
	<g id="Layer_39">
	</g>
	<g id="Layer_40_copy_2">
	</g>
	<g id="Layer_40_copy_3">
	</g>
</g>
<g id="_x33_-Ryhmälaskutus">
	<g id="Layer_25">
	</g>
	<g id="Layer_27">
	</g>
	<g id="Layer_29">
	</g>
	<g id="Layer_28">
	</g>
	<g id="Layer_30">
	</g>
	<g id="Layer_31">
	</g>
	<g id="Layer_32">
	</g>
	<g id="Layer_35">
	</g>
</g>
<g id="_x32_-Puhelinsovellus">
	<g id="Layer_1">
	</g>
	<g id="Layer_2">
	</g>
	<g id="Layer_3">
	</g>
	<g id="luuri">
	</g>
	<g id="Layer_10">
	</g>
	<g id="Layer_13">
	</g>
	<g id="Layer_12">
	</g>
	<g id="credit-card">
	</g>
	<g id="Layer_14">
	</g>
	<g id="lasku">
		<g id="Layer_6">
		</g>
	</g>
	<g id="kansio">
	</g>
	<g id="Layer_11">
	</g>
	<g id="Layer_71">
	</g>
</g>
<g id="_x31_-sahkopostilasku">
	<g id="Layer_16">
		<g id="Layer_17">
		</g>
	</g>
	<g id="Layer_20">
	</g>
	<g id="Layer_21">
	</g>
	<g id="Layer_19">
	</g>
</g>
</svg>
