<?xml version="1.0" encoding="utf-8"?>
<!-- Generator: Adobe Illustrator 16.0.3, SVG Export Plug-In . SVG Version: 6.00 Build 0)  -->
<!DOCTYPE svg PUBLIC "-//W3C//DTD SVG 1.1//EN" "http://www.w3.org/Graphics/SVG/1.1/DTD/svg11.dtd">
<svg version="1.1" xmlns="http://www.w3.org/2000/svg" xmlns:xlink="http://www.w3.org/1999/xlink" x="0px" y="0px" width="940px"
	 height="660px" viewBox="0 0 940 660" enable-background="new 0 0 940 660" xml:space="preserve">
<g id="_x38_-raportointi">
	<g id="Layer_59">
		<rect fill="#EEF5FF" width="940" height="660"/>
	</g>
	<g id="Layer_67">
		<rect x="663.661" y="170.839" fill="none" width="48.278" height="43.342"/>
		<text transform="matrix(1 0 0 1 663.6621 197.7881)" fill="#D0E1FA" font-family="'Barlow-Bold'" font-size="38.5">€</text>
		<rect x="281.096" y="473.739" fill="none" width="48.277" height="43.342"/>
		<text transform="matrix(1 0 0 1 281.0967 500.6895)" fill="#D0E1FA" font-family="'Barlow-Bold'" font-size="38.5">€</text>
		<rect x="184.057" y="255.79" fill="none" width="44.547" height="46.193"/>
		<text transform="matrix(1 0 0 1 184.0566 282.7388)" fill="#D0E1FA" font-family="'Barlow-Bold'" font-size="38.5">%</text>
		<rect x="631.456" y="460.79" fill="none" width="44.546" height="46.193"/>
		<text transform="matrix(1 0 0 1 631.457 487.7393)" fill="#D0E1FA" font-family="'Barlow-Bold'" font-size="38.5">%</text>
	</g>
	<g id="Layer_62">
		<g>
			<g>
				<path fill="#2E6AE5" d="M581.613,494.644H354.031c-5.461,0-9.888-4.428-9.888-9.89V184.608c0-5.462,4.427-9.89,9.888-9.89
					h227.582c5.462,0,9.889,4.428,9.889,9.89v300.146C591.502,490.216,587.075,494.644,581.613,494.644z"/>
			</g>
		</g>
		<g>
			<g>
				<path fill="#FFFFFF" d="M564.459,196H371.186c-3.459,0-6.186,2.729-6.186,6.188v99.75v62.023v99.75
					c0,3.459,2.727,6.289,6.186,6.289h193.273c3.459,0,6.541-2.83,6.541-6.289v-108.15v-45.224V202.188
					C571,198.729,567.918,196,564.459,196z"/>
			</g>
		</g>
		<g>
			<g>
				<path fill="#3B84F2" d="M512.137,205.829h-88.628c-2.991,0-5.253-2.71-4.72-5.654l5.34-29.337
					c0.416-2.279,2.399-3.939,4.716-3.939h77.953c2.317,0,4.306,1.66,4.722,3.939l5.337,29.337
					C517.393,203.119,515.132,205.829,512.137,205.829z"/>
			</g>
		</g>
		<g>
			<g>
				<path fill="#3B84F2" d="M524.878,205.829H410.77c-2.329,0-4.214-1.888-4.214-4.215v-14.347c0-2.327,1.885-4.215,4.214-4.215
					h114.108c2.328,0,4.212,1.888,4.212,4.215v14.347C529.09,203.941,527.206,205.829,524.878,205.829z"/>
			</g>
		</g>
		<g>
			<g>
				<g>
					<path fill="#3B84F2" d="M481.592,175.575v-9.417c0-7.604-6.164-13.768-13.769-13.768s-13.769,6.163-13.769,13.768v9.417
						H481.592z M467.823,159.553c2.028,0,3.673,1.644,3.673,3.674s-1.645,3.672-3.673,3.672c-2.03,0-3.673-1.642-3.673-3.672
						S465.793,159.553,467.823,159.553z"/>
				</g>
			</g>
		</g>
	</g>
	<g id="Layer_61">
		<g>
			<g>
				<g>
					<g>
						<path fill="#8FB8FD" d="M598.993,413.923v-45.967c-24.732,0.152-44.736,20.243-44.736,45.013
							c0,24.768,20.004,44.857,44.736,45.01c0.095,0.002,0.187,0.007,0.281,0.007c16.452,0,30.835-8.829,38.689-22.003
							L598.993,413.923z"/>
					</g>
				</g>
			</g>
			<g>
				<path fill="#D0E1FA" d="M605.098,412.235l38.969,22.06c4.02-6.736,6.332-14.604,6.332-23.016
					c0-10.529-3.626-20.207-9.682-27.875L605.098,412.235z"/>
			</g>
			<g>
				<g>
					<g>
						<path fill="#2E6AE5" d="M604.535,361.567c-0.093,0-0.186,0.008-0.277,0.008v45.594l35.615-28.459
							C631.629,368.273,618.869,361.567,604.535,361.567z"/>
					</g>
				</g>
			</g>
		</g>
	</g>
	<g>
		<g>
			<g>
				<g>
					<path fill="#3B84F2" d="M686.392,309.814c-0.14-0.182-0.321-0.29-0.542-0.325l-4.725-0.722
						c-0.259-0.826-0.613-1.671-1.061-2.53c0.311-0.431,0.773-1.039,1.395-1.818c0.619-0.786,1.059-1.358,1.316-1.721
						c0.139-0.19,0.205-0.386,0.205-0.592c0-0.242-0.058-0.433-0.178-0.569c-0.622-0.877-2.039-2.344-4.26-4.391
						c-0.207-0.172-0.425-0.258-0.648-0.258c-0.258,0-0.463,0.076-0.621,0.232l-3.665,2.761c-0.707-0.359-1.481-0.679-2.325-0.953
						l-0.72-4.753c-0.019-0.223-0.117-0.408-0.298-0.554c-0.182-0.147-0.391-0.22-0.633-0.22H663.9c-0.498,0-0.81,0.241-0.932,0.724
						c-0.223,0.861-0.475,2.459-0.748,4.803c-0.808,0.259-1.591,0.585-2.35,0.98l-3.563-2.763c-0.223-0.172-0.445-0.258-0.672-0.258
						c-0.378,0-1.192,0.615-2.439,1.849c-1.248,1.23-2.098,2.153-2.545,2.773c-0.152,0.226-0.232,0.422-0.232,0.596
						c0,0.206,0.087,0.413,0.26,0.618c1.15,1.396,2.072,2.582,2.76,3.564c-0.426,0.789-0.763,1.584-1.006,2.376l-4.802,0.723
						c-0.188,0.034-0.355,0.146-0.488,0.333c-0.142,0.19-0.21,0.39-0.21,0.596v5.734c0,0.222,0.068,0.425,0.208,0.604
						c0.135,0.181,0.317,0.288,0.54,0.323l4.729,0.697c0.239,0.844,0.592,1.694,1.055,2.557c-0.305,0.43-0.771,1.036-1.392,1.821
						c-0.62,0.782-1.058,1.354-1.319,1.716c-0.137,0.191-0.205,0.386-0.205,0.595c0,0.223,0.063,0.421,0.182,0.593
						c0.672,0.93,2.093,2.377,4.262,4.34c0.188,0.189,0.403,0.281,0.645,0.281c0.26,0,0.475-0.075,0.646-0.229l3.642-2.766
						c0.706,0.363,1.479,0.682,2.326,0.956l0.719,4.753c0.02,0.223,0.119,0.406,0.297,0.555c0.182,0.147,0.394,0.219,0.635,0.219
						h5.734c0.5,0,0.808-0.239,0.929-0.723c0.222-0.86,0.472-2.462,0.747-4.804c0.812-0.258,1.592-0.584,2.354-0.98l3.563,2.79
						c0.24,0.154,0.466,0.229,0.668,0.229c0.381,0,1.189-0.609,2.431-1.832c1.238-1.222,2.093-2.149,2.556-2.789
						c0.154-0.172,0.231-0.37,0.231-0.593c0-0.225-0.084-0.44-0.259-0.646c-1.238-1.516-2.161-2.703-2.764-3.564
						c0.346-0.638,0.683-1.42,1.008-2.351l4.777-0.723c0.206-0.035,0.377-0.148,0.517-0.334c0.14-0.189,0.208-0.392,0.208-0.596
						v-5.73C686.6,310.195,686.531,309.993,686.392,309.814z M671.439,317.908c-1.29,1.29-2.847,1.937-4.672,1.937
						c-1.827,0-3.385-0.646-4.676-1.937c-1.289-1.292-1.937-2.852-1.937-4.676c0-1.82,0.645-3.378,1.937-4.67
						c1.291-1.292,2.851-1.939,4.676-1.939s3.382,0.647,4.672,1.939c1.291,1.292,1.938,2.85,1.938,4.67
						C673.377,315.057,672.73,316.616,671.439,317.908z"/>
				</g>
			</g>
		</g>
	</g>
	<g>
		<path fill="#D0E1FA" d="M709.645,289.459c-0.087-0.114-0.201-0.184-0.344-0.205l-2.986-0.458c-0.164-0.521-0.388-1.056-0.671-1.6
			c0.195-0.271,0.488-0.657,0.88-1.151c0.395-0.497,0.671-0.858,0.833-1.088c0.09-0.12,0.13-0.244,0.13-0.375
			c0-0.153-0.036-0.272-0.111-0.36c-0.395-0.554-1.289-1.482-2.695-2.777c-0.131-0.108-0.269-0.163-0.41-0.163
			c-0.164,0-0.293,0.049-0.392,0.147l-2.32,1.746c-0.446-0.228-0.938-0.429-1.472-0.603l-0.455-3.007
			c-0.012-0.141-0.074-0.259-0.188-0.351c-0.116-0.093-0.247-0.14-0.4-0.14h-3.627c-0.315,0-0.514,0.153-0.59,0.459
			c-0.141,0.544-0.3,1.555-0.473,3.038c-0.512,0.163-1.009,0.37-1.488,0.621l-2.252-1.749c-0.145-0.108-0.283-0.163-0.428-0.163
			c-0.236,0-0.752,0.39-1.543,1.169c-0.787,0.779-1.325,1.363-1.607,1.756c-0.1,0.143-0.148,0.268-0.148,0.376
			c0,0.131,0.055,0.262,0.164,0.392c0.729,0.883,1.311,1.634,1.746,2.255c-0.27,0.5-0.482,1.003-0.636,1.503l-3.038,0.457
			c-0.121,0.022-0.226,0.093-0.311,0.212c-0.088,0.121-0.132,0.246-0.132,0.377v3.627c0,0.142,0.044,0.27,0.131,0.384
			c0.086,0.113,0.201,0.183,0.343,0.204l2.992,0.441c0.151,0.533,0.373,1.071,0.667,1.617c-0.194,0.272-0.488,0.656-0.881,1.151
			c-0.392,0.495-0.67,0.857-0.835,1.087c-0.085,0.12-0.129,0.244-0.129,0.376c0,0.142,0.039,0.267,0.115,0.376
			c0.425,0.588,1.323,1.504,2.694,2.745c0.12,0.12,0.257,0.179,0.407,0.179c0.164,0,0.301-0.049,0.409-0.146l2.306-1.75
			c0.444,0.229,0.936,0.431,1.469,0.605l0.457,3.006c0.012,0.141,0.075,0.258,0.19,0.351c0.112,0.094,0.246,0.139,0.399,0.139h3.627
			c0.317,0,0.51-0.151,0.588-0.456c0.141-0.545,0.299-1.558,0.473-3.039c0.515-0.164,1.01-0.369,1.49-0.621l2.251,1.766
			c0.155,0.097,0.296,0.146,0.425,0.146c0.24,0,0.753-0.387,1.538-1.16c0.783-0.774,1.323-1.359,1.616-1.764
			c0.099-0.109,0.146-0.234,0.146-0.376c0-0.143-0.053-0.279-0.164-0.408c-0.781-0.959-1.366-1.71-1.746-2.256
			c0.217-0.403,0.43-0.898,0.636-1.486l3.022-0.458c0.132-0.021,0.239-0.094,0.326-0.211c0.088-0.12,0.132-0.248,0.132-0.377v-3.626
			C709.776,289.7,709.732,289.572,709.645,289.459z M700.185,294.58c-0.815,0.816-1.801,1.226-2.955,1.226
			c-1.157,0-2.142-0.409-2.957-1.226c-0.816-0.816-1.227-1.804-1.227-2.958c0-1.152,0.407-2.138,1.227-2.955
			c0.815-0.817,1.802-1.227,2.957-1.227c1.154,0,2.14,0.409,2.955,1.227c0.817,0.817,1.227,1.803,1.227,2.955
			C701.411,292.776,701.002,293.764,700.185,294.58z"/>
	</g>
	<g id="Layer_60">
		<g>
			<g>
				<g>
					<path fill="#3B84F2" d="M266.494,394.724h-4.629c-0.541,0-0.982,0.439-0.982,0.983v52.284c0,0.543,0.441,0.982,0.982,0.982
						h4.629h3.929l1.964-3.929v-50.321H266.494z"/>
				</g>
			</g>
			<g>
				<g>
					<path fill="#D0E1FA" d="M278.981,383.874h-2.947h-4.629c-0.543,0-0.982,0.439-0.982,0.982v64.117h5.611h2.947
						c0.543,0,0.982-0.439,0.982-0.982v-63.135C279.964,384.313,279.524,383.874,278.981,383.874z"/>
				</g>
			</g>
			<g>
				<g>
					<path fill="#3B84F2" d="M243.484,427.273h-4.629c-0.543,0-0.982,0.44-0.982,0.983v19.734c0,0.543,0.439,0.982,0.982,0.982
						h4.629h3.929l5.895-21.7H243.484z"/>
				</g>
			</g>
			<g>
				<g>
					<path fill="#D0E1FA" d="M255.972,416.424h-2.947l-0.001,0.001v-0.001h-4.628c-0.542,0-0.982,0.44-0.982,0.982v31.567h5.61
						v-0.001l0.001,0.001h2.947c0.542,0,0.981-0.439,0.981-0.982v-30.585C256.953,416.864,256.514,416.424,255.972,416.424z"/>
				</g>
			</g>
			<g>
				<g>
					<path fill="#3B84F2" d="M289.504,427.273L289.504,427.273L289.504,427.273h-4.629c-0.541,0-0.982,0.44-0.982,0.983v19.734
						c0,0.543,0.441,0.982,0.982,0.982h4.629v-0.001v0.001h3.929l5.895-21.7H289.504z"/>
				</g>
			</g>
			<g>
				<g>
					<path fill="#D0E1FA" d="M301.991,416.424h-2.947h-4.628c-0.541,0-0.983,0.44-0.983,0.982v31.567h5.611h2.947
						c0.542,0,0.982-0.439,0.982-0.982v-30.585C302.974,416.864,302.533,416.424,301.991,416.424z"/>
				</g>
			</g>
		</g>
	</g>
	<g id="Layer_63">
		<g>
			<path fill="#2E6AE5" d="M441.5,328h-11c-0.828,0-1.5-0.671-1.5-1.5v-24c0-0.829,0.672-1.5,1.5-1.5h11c0.828,0,1.5,0.671,1.5,1.5
				v24C443,327.329,442.328,328,441.5,328z M432,325h8v-21h-8V325z"/>
		</g>
		<g>
			<path fill="#2E6AE5" d="M463.5,328h-12c-0.828,0-1.5-0.671-1.5-1.5v-46c0-0.829,0.672-1.5,1.5-1.5h12c0.828,0,1.5,0.671,1.5,1.5
				v46C465,327.329,464.328,328,463.5,328z M453,325h9v-43h-9V325z"/>
		</g>
		<g>
			<path fill="#2E6AE5" d="M508.5,328h-11c-0.828,0-1.5-0.671-1.5-1.5v-42c0-0.829,0.672-1.5,1.5-1.5h11c0.828,0,1.5,0.671,1.5,1.5
				v42C510,327.329,509.328,328,508.5,328z M499,325h8v-39h-8V325z"/>
		</g>
		<g>
			<path fill="#2E6AE5" d="M485.5,328h-12c-0.828,0-1.5-0.671-1.5-1.5v-32c0-0.829,0.672-1.5,1.5-1.5h12c0.828,0,1.5,0.671,1.5,1.5
				v32C487,327.329,486.328,328,485.5,328z M475,325h9v-29h-9V325z"/>
		</g>
		<g>
			<path fill="#3B84F2" d="M436.196,283.881c-3.144,0-5.7-2.556-5.7-5.698c0-3.143,2.557-5.7,5.7-5.7s5.7,2.557,5.7,5.7
				C441.896,281.325,439.34,283.881,436.196,283.881z M436.196,275.482c-1.489,0-2.7,1.211-2.7,2.7c0,1.488,1.211,2.698,2.7,2.698
				s2.7-1.21,2.7-2.698C438.896,276.694,437.686,275.482,436.196,275.482z"/>
		</g>
		<g>
			<path fill="#3B84F2" d="M458.427,266.528c-3.145,0-5.702-2.558-5.702-5.702c0-3.143,2.558-5.7,5.702-5.7
				c3.142,0,5.698,2.557,5.698,5.7C464.125,263.97,461.568,266.528,458.427,266.528z M458.427,258.126
				c-1.49,0-2.702,1.211-2.702,2.7c0,1.49,1.212,2.702,2.702,2.702c1.488,0,2.698-1.212,2.698-2.702
				C461.125,259.337,459.915,258.126,458.427,258.126z"/>
		</g>
		<g>
			<path fill="#3B84F2" d="M480.652,280.228c-3.142,0-5.697-2.557-5.697-5.699s2.556-5.699,5.697-5.699
				c3.144,0,5.701,2.557,5.701,5.699S483.796,280.228,480.652,280.228z M480.652,271.829c-1.487,0-2.697,1.211-2.697,2.699
				s1.21,2.699,2.697,2.699c1.489,0,2.701-1.211,2.701-2.699S482.142,271.829,480.652,271.829z"/>
		</g>
		<g>
			<path fill="#3B84F2" d="M501.002,261.875c-3.143,0-5.699-2.558-5.699-5.702c0-3.143,2.557-5.699,5.699-5.699
				c3.144,0,5.701,2.557,5.701,5.699C506.703,259.317,504.146,261.875,501.002,261.875z M501.002,253.474
				c-1.488,0-2.699,1.211-2.699,2.699c0,1.49,1.211,2.702,2.699,2.702c1.489,0,2.701-1.212,2.701-2.702
				C503.703,254.685,502.491,253.474,501.002,253.474z"/>
		</g>
		<g>
			<path fill="#3B84F2" d="M440.544,276.296c-0.41,0-0.818-0.167-1.115-0.497c-0.554-0.616-0.504-1.564,0.111-2.118l12.774-11.499
				c0.616-0.554,1.563-0.505,2.119,0.111c0.554,0.616,0.504,1.564-0.111,2.118l-12.774,11.499
				C441.261,276.169,440.902,276.296,440.544,276.296z"/>
		</g>
		<g>
			<path fill="#3B84F2" d="M475.172,273.629c-0.302,0-0.606-0.091-0.871-0.279l-12.018-8.582c-0.674-0.481-0.83-1.418-0.349-2.092
				c0.481-0.675,1.418-0.83,2.093-0.349l12.018,8.582c0.674,0.481,0.83,1.418,0.349,2.092
				C476.101,273.411,475.64,273.629,475.172,273.629z"/>
		</g>
		<g>
			<path fill="#3B84F2" d="M483.969,273.509c-0.4,0-0.8-0.16-1.096-0.475c-0.565-0.605-0.534-1.554,0.071-2.12l13.605-12.729
				c0.604-0.566,1.553-0.534,2.12,0.07c0.565,0.605,0.534,1.554-0.071,2.12l-13.605,12.729
				C484.704,273.375,484.336,273.509,483.969,273.509z"/>
		</g>
		<g>
			<path fill="#3B84F2" d="M517,328h-99.5c-0.828,0-1.5-0.671-1.5-1.5V272c0-0.829,0.672-1.5,1.5-1.5s1.5,0.671,1.5,1.5v53h98
				c0.828,0,1.5,0.671,1.5,1.5S517.828,328,517,328z"/>
		</g>
		<g>
			<path fill="#3B84F2" d="M422,280h-4c-0.828,0-1.5-0.671-1.5-1.5s0.672-1.5,1.5-1.5h4c0.828,0,1.5,0.671,1.5,1.5
				S422.828,280,422,280z"/>
		</g>
		<g>
			<path fill="#3B84F2" d="M422,291h-4c-0.828,0-1.5-0.671-1.5-1.5s0.672-1.5,1.5-1.5h4c0.828,0,1.5,0.671,1.5,1.5
				S422.828,291,422,291z"/>
		</g>
		<g>
			<path fill="#3B84F2" d="M422,304h-4c-0.828,0-1.5-0.671-1.5-1.5s0.672-1.5,1.5-1.5h4c0.828,0,1.5,0.671,1.5,1.5
				S422.828,304,422,304z"/>
		</g>
		<g>
			<path fill="#3B84F2" d="M422,317h-4c-0.828,0-1.5-0.671-1.5-1.5s0.672-1.5,1.5-1.5h4c0.828,0,1.5,0.671,1.5,1.5
				S422.828,317,422,317z"/>
		</g>
		<g>
			<path fill="#3B84F2" d="M416.5,372h-15c-0.828,0-1.5-0.672-1.5-1.5v-15c0-0.828,0.672-1.5,1.5-1.5h15c0.828,0,1.5,0.672,1.5,1.5
				v15C418,371.328,417.328,372,416.5,372z M403,369h12v-12h-12V369z"/>
		</g>
		<g>
			<path fill="#3B84F2" d="M528,359H428c-0.828,0-1.5-0.672-1.5-1.5s0.672-1.5,1.5-1.5h100c0.828,0,1.5,0.672,1.5,1.5
				S528.828,359,528,359z"/>
		</g>
		<g>
			<path fill="#3B84F2" d="M479,369h-51c-0.828,0-1.5-0.672-1.5-1.5s0.672-1.5,1.5-1.5h51c0.828,0,1.5,0.672,1.5,1.5
				S479.828,369,479,369z"/>
		</g>
		<g>
			<path fill="#3B84F2" d="M416.5,406h-15c-0.828,0-1.5-0.672-1.5-1.5v-16c0-0.828,0.672-1.5,1.5-1.5h15c0.828,0,1.5,0.672,1.5,1.5
				v16C418,405.328,417.328,406,416.5,406z M403,403h12v-13h-12V403z"/>
		</g>
		<g>
			<path fill="#3B84F2" d="M528,392H428c-0.828,0-1.5-0.672-1.5-1.5s0.672-1.5,1.5-1.5h100c0.828,0,1.5,0.672,1.5,1.5
				S528.828,392,528,392z"/>
		</g>
		<g>
			<path fill="#3B84F2" d="M479,403h-51c-0.828,0-1.5-0.672-1.5-1.5s0.672-1.5,1.5-1.5h51c0.828,0,1.5,0.672,1.5,1.5
				S479.828,403,479,403z"/>
		</g>
		<g>
			<path fill="#2E6AE5" d="M410.313,367.638c-0.397,0-0.779-0.158-1.061-0.439l-6.345-6.345c-0.586-0.586-0.586-1.535,0-2.121
				s1.535-0.586,2.121,0l5.284,5.284l7.824-7.825c0.586-0.586,1.535-0.586,2.121,0s0.586,1.535,0,2.121l-8.885,8.886
				C411.092,367.479,410.71,367.638,410.313,367.638z"/>
		</g>
		<g>
			<path fill="#2E6AE5" d="M410.313,401.238c-0.397,0-0.779-0.158-1.061-0.439l-6.345-6.346c-0.586-0.586-0.586-1.535,0-2.121
				s1.535-0.586,2.121,0l5.284,5.285l7.824-7.826c0.586-0.586,1.535-0.586,2.121,0s0.586,1.535,0,2.121l-8.885,8.887
				C411.092,401.08,410.71,401.238,410.313,401.238z"/>
		</g>
	</g>
	<g id="Layer_64">
		<g>
			<g>
				<path fill="#D0E1FA" d="M329.164,306.119l-9.412-9.411c-0.411-0.41-1.076-0.41-1.486,0l-19.533,19.534
					c-0.41,0.41-0.41,1.075,0,1.485l9.411,9.412c0.196,0.196,0.463,0.308,0.741,0.308c0.279,0,0.546-0.111,0.743-0.308
					l19.536-19.536c0.196-0.197,0.308-0.464,0.308-0.742S329.36,306.315,329.164,306.119z"/>
			</g>
		</g>
		<g>
			<g>
				<path fill="#2E6AE5" d="M276.372,338.298c-3.092,3.093-3.092,8.108,0,11.2l0,0c3.093,3.093,8.107,3.093,11.202,0l25.77-25.772
					l-11.199-11.2L276.372,338.298z"/>
			</g>
		</g>
		<g opacity="0.2">
			<g>
				<circle fill="#FFFFFF" cx="351.395" cy="274.477" r="36.981"/>
			</g>
		</g>
		<g>
			<g>
				<g>
					<g>
						<path fill="#3B84F2" d="M351.395,315.132C351.395,315.132,351.395,315.132,351.395,315.132
							c-10.834,0-21.025-4.211-28.699-11.856c-7.691-7.665-11.938-17.867-11.957-28.727c-0.02-10.86,4.193-21.078,11.857-28.771
							c7.685-7.711,17.912-11.958,28.8-11.958c10.832,0,21.024,4.211,28.697,11.858c7.692,7.665,11.938,17.867,11.958,28.727
							c0.02,10.86-4.191,21.077-11.857,28.77C372.508,310.885,362.279,315.132,351.395,315.132z M351.396,241.171
							c-8.919,0-17.298,3.479-23.593,9.796c-6.28,6.302-9.729,14.672-9.714,23.568c0.015,8.897,3.495,17.255,9.795,23.533
							c6.286,6.264,14.636,9.714,23.511,9.714c8.917,0,17.296-3.479,23.592-9.796c6.279-6.302,9.729-14.672,9.715-23.568
							c-0.016-8.896-3.495-17.254-9.797-23.533C368.619,244.62,360.269,241.171,351.396,241.171z"/>
					</g>
				</g>
			</g>
		</g>
		<g>
			<g>
				<circle fill="#DFF3FA" cx="282.015" cy="343.722" r="2.733"/>
			</g>
		</g>
	</g>
	<g id="Layer_65">
		<g>
			<g>
				<path fill="#FFFFFF" d="M633,245.265c0-3.46-2.804-6.265-6.264-6.265h-63.474c-3.46,0-6.263,2.805-6.263,6.265v37.471
					c0,3.46,2.803,6.265,6.263,6.265h63.474c3.46,0,6.264-2.805,6.264-6.265V245.265z"/>
			</g>
		</g>
		<g>
			<g>
				<path fill="#3B84F2" d="M626.41,228h-63.074c-3.459,0-6.336,3.278-6.336,6.738V246h76v-11.262
					C633,231.278,629.869,228,626.41,228z"/>
			</g>
		</g>
		<g>
			<g>
				<path fill="#2E6AE5" d="M567.5,235.5c-0.828,0-1.5-0.671-1.5-1.5v-7c0-0.829,0.672-1.5,1.5-1.5s1.5,0.671,1.5,1.5v7
					C569,234.829,568.328,235.5,567.5,235.5z"/>
			</g>
		</g>
		<g>
			<g>
				<path fill="#2E6AE5" d="M576.5,235.5c-0.828,0-1.5-0.671-1.5-1.5v-7c0-0.829,0.672-1.5,1.5-1.5s1.5,0.671,1.5,1.5v7
					C578,234.829,577.328,235.5,576.5,235.5z"/>
			</g>
		</g>
		<g>
			<g>
				<path fill="#2E6AE5" d="M585.5,235.5c-0.828,0-1.5-0.671-1.5-1.5v-7c0-0.829,0.672-1.5,1.5-1.5s1.5,0.671,1.5,1.5v7
					C587,234.829,586.328,235.5,585.5,235.5z"/>
			</g>
		</g>
		<g>
			<g>
				<path fill="#2E6AE5" d="M595.5,235.5c-0.828,0-1.5-0.671-1.5-1.5v-7c0-0.829,0.672-1.5,1.5-1.5s1.5,0.671,1.5,1.5v7
					C597,234.829,596.328,235.5,595.5,235.5z"/>
			</g>
		</g>
		<g>
			<g>
				<path fill="#2E6AE5" d="M603.5,235.5c-0.828,0-1.5-0.671-1.5-1.5v-7c0-0.829,0.672-1.5,1.5-1.5s1.5,0.671,1.5,1.5v7
					C605,234.829,604.328,235.5,603.5,235.5z"/>
			</g>
		</g>
		<g>
			<g>
				<path fill="#2E6AE5" d="M613.5,235.5c-0.828,0-1.5-0.671-1.5-1.5v-7c0-0.829,0.672-1.5,1.5-1.5s1.5,0.671,1.5,1.5v7
					C615,234.829,614.328,235.5,613.5,235.5z"/>
			</g>
		</g>
		<g>
			<g>
				<path fill="#2E6AE5" d="M622.5,235.5c-0.828,0-1.5-0.671-1.5-1.5v-7c0-0.829,0.672-1.5,1.5-1.5s1.5,0.671,1.5,1.5v7
					C624,234.829,623.328,235.5,622.5,235.5z"/>
			</g>
		</g>
		<g>
			<g>
				<circle fill="#D0E1FA" cx="578.267" cy="254.812" r="2.188"/>
			</g>
		</g>
		<g>
			<g>
				<circle fill="#3B84F2" cx="589.397" cy="254.812" r="2.188"/>
			</g>
		</g>
		<g>
			<g>
				<circle fill="#3B84F2" cx="600.527" cy="254.812" r="2.188"/>
			</g>
		</g>
		<g>
			<g>
				<circle fill="#3B84F2" cx="611.657" cy="254.812" r="2.188"/>
			</g>
		</g>
		<g>
			<g>
				<circle fill="#3B84F2" cx="622.788" cy="254.812" r="2.187"/>
			</g>
		</g>
		<g>
			<g>
				<circle fill="#3B84F2" cx="567.137" cy="263.211" r="2.187"/>
			</g>
		</g>
		<g>
			<g>
				<circle fill="#3B84F2" cx="578.267" cy="263.211" r="2.188"/>
			</g>
		</g>
		<g>
			<g>
				<circle fill="#3B84F2" cx="589.397" cy="263.211" r="2.188"/>
			</g>
		</g>
		<g>
			<g>
				<circle fill="#3B84F2" cx="600.527" cy="263.211" r="2.188"/>
			</g>
		</g>
		<g>
			<g>
				<circle fill="#3B84F2" cx="611.657" cy="263.211" r="2.188"/>
			</g>
		</g>
		<g>
			<g>
				<circle fill="#3B84F2" cx="622.788" cy="263.211" r="2.187"/>
			</g>
		</g>
		<g>
			<g>
				<circle fill="#3B84F2" cx="567.137" cy="271.611" r="2.187"/>
			</g>
		</g>
		<g>
			<g>
				<circle fill="#3B84F2" cx="578.267" cy="271.611" r="2.188"/>
			</g>
		</g>
		<g>
			<g>
				<circle fill="#3B84F2" cx="589.397" cy="271.611" r="2.188"/>
			</g>
		</g>
		<g>
			<g>
				<circle fill="#3B84F2" cx="600.527" cy="271.611" r="2.188"/>
			</g>
		</g>
		<g>
			<g>
				<circle fill="#3B84F2" cx="611.657" cy="271.611" r="2.188"/>
			</g>
		</g>
		<g>
			<g>
				<circle fill="#3B84F2" cx="622.788" cy="271.611" r="2.187"/>
			</g>
		</g>
		<g>
			<g>
				<circle fill="#3B84F2" cx="567.137" cy="280.011" r="2.187"/>
			</g>
		</g>
		<g>
			<g>
				<circle fill="#3B84F2" cx="578.267" cy="280.011" r="2.188"/>
			</g>
		</g>
		<g>
			<g>
				<circle fill="#D0E1FA" cx="589.397" cy="280.011" r="2.188"/>
			</g>
		</g>
		<g>
			<g>
				<circle fill="#D0E1FA" cx="600.527" cy="280.011" r="2.188"/>
			</g>
		</g>
	</g>
	<g id="Layer_74">
		<g>
			<g>
				<path fill="#8FB8FD" d="M287.736,187.316h-10.178c-0.328,0-0.609-0.225-0.686-0.542c-0.716-2.993-3.08-5.352-6.077-6.056
					c-0.319-0.075-0.546-0.358-0.546-0.685v-10.176c0-0.421,0.365-0.745,0.781-0.7c4.447,0.471,8.566,2.429,11.774,5.635
					c3.196,3.198,5.156,7.307,5.632,11.74C288.482,186.95,288.158,187.316,287.736,187.316z"/>
			</g>
		</g>
		<g>
			<g>
				<path fill="#3B84F2" d="M288.443,190.743c-0.392,3.755-1.846,7.279-4.214,10.218c-0.265,0.327-0.753,0.356-1.05,0.059
					l-5.699-5.699l-1.499-1.499c-0.231-0.231-0.271-0.593-0.099-0.871c0.459-0.742,0.802-1.566,1.004-2.44
					c0.074-0.321,0.357-0.55,0.688-0.55h10.17C288.163,189.96,288.489,190.325,288.443,190.743z"/>
			</g>
		</g>
		<g>
			<g>
				<path fill="#D0E1FA" d="M281.313,202.893c0.297,0.297,0.269,0.785-0.058,1.05c-3.48,2.818-7.785,4.353-12.327,4.353
					c-5.243,0-10.17-2.042-13.878-5.747c-3.686-3.688-5.724-8.581-5.748-13.788c-0.021-5.231,2.051-10.269,5.748-13.967
					c3.207-3.206,7.327-5.164,11.774-5.635c0.416-0.045,0.78,0.281,0.78,0.7v10.176c0,0.328-0.226,0.611-0.545,0.685
					c-3.605,0.848-6.301,4.091-6.301,7.951c0,4.504,3.664,8.168,8.169,8.168c1.583,0,3.062-0.455,4.314-1.236
					c0.281-0.174,0.642-0.138,0.876,0.097L281.313,202.893z"/>
			</g>
		</g>
	</g>
</g>
<g id="_x37_-liitearkisto">
	<g id="Layer_44">
		<g id="Layer_48">
		</g>
		<g id="Layer_46">
		</g>
	</g>
	<g id="Layer_55">
	</g>
	<g id="Layer_49">
	</g>
	<g id="Layer_47">
	</g>
	<g id="Layer_50">
	</g>
	<g id="Layer_51">
	</g>
	<g id="Layer_52">
	</g>
	<g id="Layer_53">
	</g>
	<g id="Layer_56">
	</g>
	<g id="Layer_57">
	</g>
	<g id="Layer_58">
	</g>
</g>
<g id="_x36_-Asiakasrekisteri">
	<g id="Layer_78">
	</g>
	<g id="Layer_80">
	</g>
	<g id="Layer_81">
	</g>
	<g id="Layer_82">
	</g>
	<g id="Layer_83">
	</g>
	<g id="Layer_84">
	</g>
</g>
<g id="_x35_-Tuoterekisteri">
	<g id="Layer_76">
	</g>
	<g id="Layer_69">
	</g>
	<g id="Layer_70">
	</g>
	<g id="Layer_66">
	</g>
	<g id="Layer_72">
	</g>
	<g id="Layer_75">
	</g>
	<g id="Layer_73">
	</g>
</g>
<g id="_x34_-toistuva_laskutus">
	<g id="Layer_34">
		<g id="Layer_43">
		</g>
		<g id="Layer_42">
		</g>
	</g>
	<g id="Layer_36">
	</g>
	<g id="Layer_38">
	</g>
	<g id="Layer_37">
	</g>
	<g id="Layer_39">
	</g>
	<g id="Layer_40_copy_2">
	</g>
	<g id="Layer_40_copy_3">
	</g>
</g>
<g id="_x33_-Ryhmälaskutus">
	<g id="Layer_25">
	</g>
	<g id="Layer_27">
	</g>
	<g id="Layer_29">
	</g>
	<g id="Layer_28">
	</g>
	<g id="Layer_30">
	</g>
	<g id="Layer_31">
	</g>
	<g id="Layer_32">
	</g>
	<g id="Layer_35">
	</g>
</g>
<g id="_x32_-Puhelinsovellus">
	<g id="Layer_1">
	</g>
	<g id="Layer_2">
	</g>
	<g id="Layer_3">
	</g>
	<g id="luuri">
	</g>
	<g id="Layer_10">
	</g>
	<g id="Layer_13">
	</g>
	<g id="Layer_12">
	</g>
	<g id="credit-card">
	</g>
	<g id="Layer_14">
	</g>
	<g id="lasku">
		<g id="Layer_6">
		</g>
	</g>
	<g id="kansio">
	</g>
	<g id="Layer_11">
	</g>
	<g id="Layer_71">
	</g>
</g>
<g id="_x31_-sahkopostilasku">
	<g id="Layer_16">
		<g id="Layer_17">
		</g>
	</g>
	<g id="Layer_20">
	</g>
	<g id="Layer_21">
	</g>
	<g id="Layer_19">
	</g>
</g>
</svg>
