<?xml version="1.0" encoding="utf-8"?>
<!-- Generator: Adobe Illustrator 16.0.3, SVG Export Plug-In . SVG Version: 6.00 Build 0)  -->
<!DOCTYPE svg PUBLIC "-//W3C//DTD SVG 1.1//EN" "http://www.w3.org/Graphics/SVG/1.1/DTD/svg11.dtd">
<svg version="1.1" xmlns="http://www.w3.org/2000/svg" xmlns:xlink="http://www.w3.org/1999/xlink" x="0px" y="0px" width="940px"
	 height="660px" viewBox="0 0 940 660" enable-background="new 0 0 940 660" xml:space="preserve">
<g id="_x38_-raportointi">
	<g id="Layer_59">
	</g>
	<g id="Layer_67">
	</g>
	<g id="Layer_62">
	</g>
	<g id="Layer_61">
	</g>
	<g id="Layer_60">
	</g>
	<g id="Layer_63">
	</g>
	<g id="Layer_64">
	</g>
	<g id="Layer_65">
	</g>
	<g id="Layer_74">
	</g>
</g>
<g id="_x37_-liitearkisto">
	<g id="Layer_44">
		<g id="Layer_48">
		</g>
		<g id="Layer_46">
		</g>
	</g>
	<g id="Layer_55">
	</g>
	<g id="Layer_49">
	</g>
	<g id="Layer_47">
	</g>
	<g id="Layer_50">
	</g>
	<g id="Layer_51">
	</g>
	<g id="Layer_52">
	</g>
	<g id="Layer_53">
	</g>
	<g id="Layer_56">
	</g>
	<g id="Layer_57">
	</g>
	<g id="Layer_58">
	</g>
</g>
<g id="_x36_-Asiakasrekisteri">
	<g id="Layer_78">
	</g>
	<g id="Layer_80">
	</g>
	<g id="Layer_81">
	</g>
	<g id="Layer_82">
	</g>
	<g id="Layer_83">
	</g>
	<g id="Layer_84">
	</g>
</g>
<g id="_x35_-Tuoterekisteri">
	<g id="Layer_76">
	</g>
	<g id="Layer_69">
	</g>
	<g id="Layer_70">
	</g>
	<g id="Layer_66">
	</g>
	<g id="Layer_72">
	</g>
	<g id="Layer_75">
	</g>
	<g id="Layer_73">
	</g>
</g>
<g id="_x34_-toistuva_laskutus">
	<g id="Layer_34">
		<g id="Layer_43">
		</g>
		<g id="Layer_42">
		</g>
	</g>
	<g id="Layer_36">
	</g>
	<g id="Layer_38">
	</g>
	<g id="Layer_37">
	</g>
	<g id="Layer_39">
	</g>
	<g id="Layer_40_copy_2">
	</g>
	<g id="Layer_40_copy_3">
	</g>
</g>
<g id="_x33_-Ryhmälaskutus">
	<g id="Layer_25">
	</g>
	<g id="Layer_27">
	</g>
	<g id="Layer_29">
	</g>
	<g id="Layer_28">
	</g>
	<g id="Layer_30">
	</g>
	<g id="Layer_31">
	</g>
	<g id="Layer_32">
	</g>
	<g id="Layer_35">
	</g>
</g>
<g id="_x32_-Puhelinsovellus">
	<g id="Layer_1">
	</g>
	<g id="Layer_2">
	</g>
	<g id="Layer_3">
	</g>
	<g id="luuri">
	</g>
	<g id="Layer_10">
	</g>
	<g id="Layer_13">
	</g>
	<g id="Layer_12">
	</g>
	<g id="credit-card">
	</g>
	<g id="Layer_14">
	</g>
	<g id="lasku">
		<g id="Layer_6">
		</g>
	</g>
	<g id="kansio">
	</g>
	<g id="Layer_11">
	</g>
	<g id="Layer_71">
	</g>
</g>
<g id="_x31_-sahkopostilasku">
	<g>
		<g>
			<rect fill="#EEF5FF" width="940" height="660"/>
		</g>
	</g>
	<g>
		<g>
			<path fill="#D0E1FA" d="M302.733,168.511c0.616-0.526,1.001-1.226,1.155-2.098c0.077-0.308,0.256-0.437,0.539-0.385l4.427,0.809
				c0.154,0.026,0.263,0.083,0.327,0.173c0.064,0.09,0.083,0.211,0.058,0.366c-0.334,2.028-1.284,3.632-2.849,4.813
				c-1.566,1.181-3.555,1.771-5.967,1.771c-1.771,0-3.33-0.353-4.678-1.059c-1.347-0.706-2.394-1.707-3.138-3.003
				c-0.745-1.295-1.116-2.804-1.116-4.523v-1.386c0-0.128-0.064-0.192-0.192-0.192h-2.464c-0.129,0-0.238-0.044-0.327-0.135
				c-0.09-0.09-0.135-0.199-0.135-0.327v-1.925c0-0.128,0.044-0.237,0.135-0.327c0.09-0.089,0.198-0.135,0.327-0.135h2.464
				c0.128,0,0.192-0.063,0.192-0.192v-1.193c0-0.128-0.064-0.193-0.192-0.193h-2.464c-0.129,0-0.238-0.044-0.327-0.135
				c-0.09-0.089-0.135-0.198-0.135-0.327v-1.925c0-0.128,0.044-0.237,0.135-0.327c0.09-0.09,0.198-0.135,0.327-0.135h2.464
				c0.128,0,0.192-0.064,0.192-0.193v-1.386c0-1.719,0.366-3.228,1.097-4.524c0.732-1.295,1.771-2.291,3.119-2.983
				c1.347-0.693,2.919-1.04,4.716-1.04c2.438,0,4.453,0.603,6.044,1.809c1.591,1.207,2.541,2.849,2.849,4.928v0.077
				c0,0.231-0.141,0.372-0.423,0.423l-4.505,0.578h-0.077c-0.231,0-0.385-0.141-0.462-0.424c-0.154-0.847-0.533-1.514-1.136-2.002
				c-0.603-0.487-1.367-0.731-2.291-0.731c-1.053,0-1.9,0.347-2.541,1.04c-0.642,0.693-0.963,1.592-0.963,2.695v1.54
				c0,0.129,0.064,0.193,0.193,0.193h7.661c0.154,0,0.27,0.052,0.346,0.154c0.077,0.103,0.09,0.231,0.039,0.385l-0.577,1.925
				c-0.077,0.257-0.244,0.385-0.5,0.385h-6.969c-0.129,0-0.193,0.064-0.193,0.193v1.193c0,0.129,0.064,0.192,0.193,0.192h6.353
				c0.154,0,0.269,0.052,0.346,0.154c0.077,0.103,0.09,0.231,0.039,0.385l-0.578,1.925c-0.077,0.257-0.244,0.385-0.5,0.385h-5.659
				c-0.129,0-0.193,0.064-0.193,0.192v1.617c0,1.104,0.321,1.996,0.963,2.676c0.641,0.68,1.488,1.02,2.541,1.02
				C301.347,169.3,302.117,169.037,302.733,168.511z"/>
		</g>
	</g>
	<g>
		<g>
			<path fill="#D0E1FA" d="M235.615,359.881c1.873,1.001,3.311,2.394,4.312,4.178s1.501,3.83,1.501,6.141
				c0,0.668-0.039,1.348-0.115,2.04c-0.308,2.516-1.078,4.473-2.31,5.871c-1.232,1.399-2.887,2.099-4.967,2.099
				c-1.797,0-3.183-0.525-4.158-1.578c-0.077-0.103-0.167-0.103-0.27,0c-0.514,0.514-1.136,0.898-1.867,1.154
				c-0.731,0.257-1.482,0.386-2.252,0.386c-1.361,0-2.483-0.353-3.369-1.06c-0.885-0.705-1.431-1.61-1.636-2.714
				c-0.077-0.437-0.115-0.886-0.115-1.348c0-0.436,0.051-1.091,0.154-1.963c0.154-1.155,0.41-2.22,0.77-3.196
				c0.436-1.257,1.148-2.226,2.137-2.906c0.988-0.68,2.072-1.021,3.253-1.021c1.257,0,2.233,0.385,2.926,1.155
				c0.051,0.077,0.102,0.109,0.154,0.096c0.051-0.013,0.077-0.058,0.077-0.135l0.077-0.615c0.025-0.282,0.192-0.424,0.5-0.424h2.695
				c0.308,0,0.449,0.167,0.423,0.5l-0.962,7.161c-0.026,0.181-0.039,0.438-0.039,0.771c0,0.719,0.147,1.296,0.443,1.732
				c0.295,0.437,0.737,0.654,1.328,0.654c1.565,0,2.566-1.463,3.003-4.389c0.102-0.642,0.154-1.348,0.154-2.118
				c0-2.746-0.783-4.837-2.348-6.275c-1.566-1.437-3.671-2.155-6.314-2.155c-2.105,0-4.023,0.449-5.756,1.347
				c-1.732,0.899-3.144,2.201-4.235,3.908c-1.091,1.707-1.752,3.715-1.983,6.025c-0.052,0.385-0.077,0.938-0.077,1.655
				c0,2.721,0.782,4.851,2.348,6.391c1.565,1.54,3.709,2.311,6.429,2.311c1.232,0,2.361-0.141,3.388-0.424
				c1.026-0.282,1.861-0.641,2.502-1.078c0.051-0.051,0.141-0.077,0.27-0.077c0.179,0,0.295,0.064,0.346,0.193l1.54,2.079
				c0.077,0.128,0.115,0.23,0.115,0.308c0,0.128-0.064,0.23-0.192,0.308c-0.95,0.719-2.189,1.29-3.715,1.714
				c-1.527,0.423-3.087,0.635-4.678,0.635c-2.362,0-4.466-0.5-6.314-1.501c-1.848-1.001-3.298-2.445-4.351-4.332
				c-1.053-1.886-1.579-4.087-1.579-6.603c0-0.641,0.039-1.283,0.116-1.925c0.308-2.849,1.225-5.371,2.753-7.565
				c1.527-2.194,3.458-3.895,5.794-5.101c2.335-1.207,4.851-1.81,7.546-1.81C231.559,358.38,233.741,358.88,235.615,359.881z
				 M227.415,376.647c0.385-0.295,0.693-0.687,0.924-1.174c0.282-0.539,0.487-1.348,0.616-2.426
				c0.051-0.462,0.077-0.962,0.077-1.501c0-0.411-0.013-0.693-0.039-0.848c-0.052-0.487-0.25-0.879-0.597-1.174
				s-0.789-0.443-1.328-0.443c-0.514,0-0.982,0.148-1.405,0.443c-0.423,0.295-0.751,0.687-0.982,1.174
				c-0.257,0.488-0.462,1.335-0.616,2.541c-0.077,0.565-0.115,1.04-0.115,1.425c0,0.23,0.025,0.5,0.077,0.809
				c0.102,0.514,0.327,0.911,0.674,1.193c0.346,0.283,0.802,0.424,1.367,0.424C226.58,377.091,227.03,376.943,227.415,376.647z"/>
		</g>
	</g>
	<g>
		<g>
			<path fill="#D0E1FA" d="M671.233,473.211c0.616-0.525,1.001-1.226,1.155-2.099c0.077-0.308,0.256-0.436,0.539-0.385l4.428,0.809
				c0.154,0.025,0.263,0.084,0.327,0.173c0.064,0.091,0.083,0.212,0.058,0.366c-0.333,2.027-1.284,3.632-2.849,4.813
				c-1.566,1.181-3.555,1.771-5.968,1.771c-1.771,0-3.33-0.353-4.678-1.059c-1.347-0.705-2.394-1.706-3.138-3.003
				c-0.745-1.296-1.116-2.804-1.116-4.523v-1.386c0-0.129-0.064-0.193-0.193-0.193h-2.464c-0.129,0-0.238-0.044-0.327-0.135
				c-0.09-0.089-0.135-0.198-0.135-0.327v-1.925c0-0.128,0.044-0.237,0.135-0.327c0.089-0.09,0.198-0.135,0.327-0.135h2.464
				c0.128,0,0.193-0.063,0.193-0.192v-1.193c0-0.128-0.064-0.192-0.193-0.192h-2.464c-0.129,0-0.238-0.045-0.327-0.135
				c-0.09-0.09-0.135-0.199-0.135-0.327v-1.926c0-0.128,0.044-0.236,0.135-0.327c0.089-0.089,0.198-0.135,0.327-0.135h2.464
				c0.128,0,0.193-0.063,0.193-0.192v-1.386c0-1.72,0.366-3.228,1.097-4.523s1.771-2.291,3.118-2.984
				c1.348-0.692,2.919-1.039,4.716-1.039c2.438,0,4.453,0.604,6.044,1.81s2.541,2.849,2.849,4.928v0.077
				c0,0.23-0.141,0.372-0.423,0.424l-4.504,0.577h-0.077c-0.231,0-0.385-0.141-0.462-0.424c-0.154-0.847-0.533-1.514-1.136-2.002
				c-0.604-0.487-1.367-0.731-2.291-0.731c-1.053,0-1.899,0.347-2.541,1.04c-0.642,0.692-0.962,1.591-0.962,2.694v1.54
				c0,0.129,0.064,0.192,0.192,0.192h7.662c0.154,0,0.27,0.052,0.347,0.154c0.077,0.103,0.089,0.231,0.039,0.385l-0.578,1.925
				c-0.077,0.257-0.244,0.386-0.5,0.386h-6.969c-0.128,0-0.192,0.064-0.192,0.192v1.193c0,0.129,0.064,0.192,0.192,0.192h6.353
				c0.154,0,0.27,0.052,0.347,0.154s0.089,0.23,0.039,0.385l-0.578,1.925c-0.077,0.257-0.244,0.385-0.5,0.385h-5.66
				c-0.128,0-0.192,0.064-0.192,0.193v1.616c0,1.104,0.321,1.996,0.962,2.676c0.642,0.681,1.488,1.021,2.541,1.021
				C669.848,474,670.618,473.737,671.233,473.211z"/>
		</g>
	</g>
	<g>
		<g>
			<path fill="#D0E1FA" d="M617.023,185.197c-0.937-0.539-1.681-1.276-2.233-2.214c-0.552-0.937-0.828-1.957-0.828-3.061
				s0.275-2.118,0.828-3.042c0.552-0.924,1.296-1.662,2.233-2.214c0.937-0.552,1.97-0.828,3.099-0.828
				c1.104,0,2.118,0.276,3.042,0.828c0.924,0.552,1.662,1.29,2.214,2.214c0.552,0.924,0.828,1.938,0.828,3.042
				s-0.27,2.124-0.808,3.061c-0.539,0.938-1.277,1.675-2.214,2.214c-0.938,0.539-1.958,0.809-3.061,0.809
				C618.993,186.006,617.96,185.736,617.023,185.197z M622.144,182.002c0.552-0.564,0.828-1.257,0.828-2.079
				c0-0.795-0.276-1.476-0.828-2.041c-0.552-0.564-1.226-0.847-2.021-0.847c-0.822,0-1.515,0.283-2.079,0.847
				c-0.565,0.565-0.847,1.245-0.847,2.041c0,0.822,0.282,1.515,0.847,2.079c0.564,0.564,1.257,0.847,2.079,0.847
				C620.918,182.849,621.592,182.566,622.144,182.002z M618.275,200.982c-0.052-0.103-0.039-0.231,0.039-0.385l14.514-26.103
				c0.128-0.205,0.321-0.308,0.578-0.308h2.849c0.179,0,0.294,0.052,0.346,0.154c0.051,0.103,0.039,0.231-0.038,0.385
				l-14.476,26.103c-0.129,0.206-0.321,0.308-0.578,0.308h-2.888C618.441,201.136,618.326,201.085,618.275,200.982z
				 M632.077,200.655c-0.938-0.551-1.682-1.295-2.233-2.233c-0.552-0.937-0.828-1.957-0.828-3.061c0-1.104,0.276-2.118,0.828-3.042
				c0.551-0.924,1.295-1.656,2.233-2.195c0.937-0.539,1.957-0.808,3.061-0.808c1.104,0,2.124,0.27,3.061,0.808
				c0.937,0.539,1.681,1.271,2.233,2.195c0.551,0.924,0.828,1.938,0.828,3.042c0,1.104-0.276,2.124-0.828,3.061
				c-0.552,0.938-1.296,1.682-2.233,2.233c-0.938,0.552-1.958,0.828-3.061,0.828C634.034,201.483,633.014,201.207,632.077,200.655z
				 M637.178,197.44c0.564-0.564,0.847-1.257,0.847-2.079c0-0.795-0.283-1.476-0.847-2.041c-0.565-0.564-1.245-0.847-2.041-0.847
				c-0.796,0-1.476,0.276-2.041,0.828c-0.565,0.552-0.847,1.239-0.847,2.06c0,0.822,0.275,1.515,0.828,2.079
				c0.552,0.564,1.238,0.847,2.06,0.847C635.933,198.287,636.613,198.005,637.178,197.44z"/>
		</g>
	</g>
	<g>
		<g>
			<path fill="#D0E1FA" d="M354.124,502.297c-0.937-0.538-1.681-1.276-2.233-2.213c-0.552-0.938-0.828-1.957-0.828-3.062
				c0-1.103,0.276-2.117,0.828-3.041c0.552-0.924,1.296-1.662,2.233-2.214c0.937-0.552,1.969-0.828,3.099-0.828
				c1.103,0,2.117,0.276,3.042,0.828s1.661,1.29,2.214,2.214c0.552,0.924,0.828,1.938,0.828,3.041c0,1.104-0.27,2.124-0.809,3.062
				c-0.539,0.937-1.277,1.675-2.214,2.213c-0.937,0.539-1.958,0.809-3.061,0.809C356.093,503.105,355.06,502.836,354.124,502.297z
				 M359.244,499.102c0.552-0.564,0.828-1.257,0.828-2.079c0-0.795-0.276-1.476-0.828-2.04c-0.552-0.564-1.226-0.847-2.021-0.847
				c-0.822,0-1.515,0.282-2.079,0.847c-0.565,0.564-0.847,1.245-0.847,2.04c0,0.822,0.282,1.515,0.847,2.079
				c0.564,0.565,1.257,0.848,2.079,0.848C358.018,499.949,358.692,499.667,359.244,499.102z M355.375,518.082
				c-0.052-0.102-0.038-0.23,0.039-0.385l14.514-26.103c0.128-0.205,0.321-0.309,0.578-0.309h2.849c0.179,0,0.295,0.052,0.347,0.154
				c0.051,0.103,0.038,0.23-0.039,0.385l-14.476,26.104c-0.129,0.205-0.321,0.308-0.577,0.308h-2.887
				C355.542,518.236,355.426,518.186,355.375,518.082z M369.177,517.755c-0.937-0.552-1.681-1.296-2.233-2.232
				c-0.552-0.938-0.828-1.957-0.828-3.062c0-1.103,0.275-2.117,0.828-3.041c0.552-0.924,1.296-1.655,2.233-2.194
				c0.937-0.539,1.957-0.809,3.061-0.809c1.103,0,2.124,0.27,3.061,0.809c0.937,0.539,1.681,1.271,2.233,2.194
				c0.552,0.924,0.828,1.938,0.828,3.041c0,1.104-0.276,2.124-0.828,3.062c-0.552,0.937-1.296,1.681-2.233,2.232
				c-0.937,0.552-1.958,0.828-3.061,0.828C371.134,518.583,370.114,518.307,369.177,517.755z M374.278,514.54
				c0.564-0.564,0.847-1.257,0.847-2.079c0-0.795-0.283-1.476-0.847-2.04c-0.565-0.564-1.245-0.847-2.041-0.847
				c-0.796,0-1.476,0.275-2.041,0.827c-0.565,0.553-0.847,1.239-0.847,2.06c0,0.822,0.276,1.515,0.828,2.079
				c0.552,0.565,1.238,0.848,2.06,0.848C373.033,515.388,373.713,515.105,374.278,514.54z"/>
		</g>
	</g>
	<g id="Layer_16">
		<g>
			<g>
				<path fill="#2E6AE5" d="M570.625,245.346l-24.04-17.717l-20.523-14.721l-41.631-29.937l-6.449-4.706
					c-4.69-3.519-11.14-3.526-15.831-0.008l-6.45,4.687l-86.78,62.403l-39.871,28.983l39.871,28.479l92.644,66.589
					c4.689,3.52,11.139,3.52,15.831,0l93.229-66.589l39.873-28.479L570.625,245.346z"/>
			</g>
		</g>
		<g id="Layer_17">
			<g>
				<g>
					<path fill="#FFFFFF" d="M570,439.283c0,7.65-6.384,13.717-14.038,13.717H383.913c-7.655,0-13.913-6.066-13.913-13.717v-241.74
						c0-7.652,6.258-14.543,13.913-14.543h153.466L570,217.006V439.283z"/>
				</g>
			</g>
			<g>
				<g>
					<path fill="#8FB8FD" d="M571.007,218h-19.848c-7.655,0-14.159-7.997-14.159-15.649v-18.665L571.007,218z"/>
				</g>
			</g>
			<g>
				<g>
					<path fill="#3B84F2" d="M486,215h-59c-0.828,0-1.5-0.671-1.5-1.5s0.672-1.5,1.5-1.5h59c0.829,0,1.5,0.671,1.5,1.5
						S486.829,215,486,215z"/>
				</g>
			</g>
			<g>
				<g>
					<path fill="#3B84F2" d="M465,227h-38c-0.828,0-1.5-0.671-1.5-1.5s0.672-1.5,1.5-1.5h38c0.828,0,1.5,0.671,1.5,1.5
						S465.828,227,465,227z"/>
				</g>
			</g>
			<g>
				<g>
					<path fill="#3B84F2" d="M543,260H399c-0.828,0-1.5-0.671-1.5-1.5s0.672-1.5,1.5-1.5h144c0.829,0,1.5,0.671,1.5,1.5
						S543.829,260,543,260z"/>
				</g>
			</g>
			<g>
				<g>
					<path fill="#3B84F2" d="M543,279H399c-0.828,0-1.5-0.671-1.5-1.5s0.672-1.5,1.5-1.5h144c0.829,0,1.5,0.671,1.5,1.5
						S543.829,279,543,279z"/>
				</g>
			</g>
			<g>
				<g>
					<path fill="#3B84F2" d="M472,297h-73c-0.828,0-1.5-0.671-1.5-1.5s0.672-1.5,1.5-1.5h73c0.829,0,1.5,0.671,1.5,1.5
						S472.829,297,472,297z"/>
				</g>
			</g>
			<g>
				<g>
					<path fill="#3B84F2" d="M406.06,231.644c-7.231,0-13.114-5.883-13.114-13.114c0-7.232,5.883-13.115,13.114-13.115
						c7.23,0,13.113,5.883,13.113,13.115C419.172,225.761,413.29,231.644,406.06,231.644z M406.06,208.414
						c-5.577,0-10.114,4.538-10.114,10.115c0,5.577,4.537,10.114,10.114,10.114c5.576,0,10.113-4.537,10.113-10.114
						C416.172,212.952,411.636,208.414,406.06,208.414z"/>
				</g>
			</g>
			<g>
				<g>
					<path fill="#3B84F2" d="M540.5,410h-148c-0.828,0-1.5-0.672-1.5-1.5v-73c0-0.828,0.672-1.5,1.5-1.5h148
						c0.829,0,1.5,0.672,1.5,1.5v73C542,409.328,541.329,410,540.5,410z M394,407h145v-70H394V407z"/>
				</g>
			</g>
			<g>
				<g>
					<path fill="#3B84F2" d="M543,359H394c-0.828,0-1.5-0.672-1.5-1.5s0.672-1.5,1.5-1.5h149c0.829,0,1.5,0.672,1.5,1.5
						S543.829,359,543,359z"/>
				</g>
			</g>
			<g>
				<g>
					<path fill="#3B84F2" d="M543,383H394c-0.828,0-1.5-0.672-1.5-1.5s0.672-1.5,1.5-1.5h149c0.829,0,1.5,0.672,1.5,1.5
						S543.829,383,543,383z"/>
				</g>
			</g>
			<g>
				<g>
					<path fill="#3B84F2" d="M508.5,404.5c-0.829,0-1.5-0.672-1.5-1.5v-68c0-0.828,0.671-1.5,1.5-1.5s1.5,0.672,1.5,1.5v68
						C510,403.828,509.329,404.5,508.5,404.5z"/>
				</g>
			</g>
			<g>
				<g>
					<path fill="#3B84F2" d="M393.5,433.5c-0.828,0-1.5-0.672-1.5-1.5v-12c0-0.828,0.672-1.5,1.5-1.5s1.5,0.672,1.5,1.5v12
						C395,432.828,394.328,433.5,393.5,433.5z"/>
				</g>
			</g>
		</g>
		<g>
			<g>
				<path fill="#8FB8FD" d="M570.878,302.556l-93.355,66.843c-4.692,3.52-11.206,3.52-15.896,0l-93.199-66.843L328,273.824v171.802
					c0,3.517,1.698,6.272,4.043,8.618c2.346,1.76,5.802,2.756,8.735,2.756H598.77c3.518,0,6.114-0.994,8.46-2.756
					c2.344-2.346,3.77-5.102,3.77-8.618V273.824L570.878,302.556z"/>
			</g>
		</g>
		<g>
			<g>
				<path fill="#3B84F2" d="M606.979,454.421c-2.344,1.758-4.69,2.932-8.208,2.932H340.777c-2.933,0-5.865-1.174-8.21-2.932
					l137.205-117.858L606.979,454.421z"/>
			</g>
		</g>
	</g>
	<g>
		<g>
			<path fill="#2E6AE5" d="M646.479,318.981c5.559,2.97,9.824,7.103,12.794,12.395c2.97,5.294,4.456,11.367,4.456,18.221
				c0,1.981-0.114,3.999-0.343,6.055c-0.914,7.465-3.199,13.271-6.854,17.422c-3.655,4.151-8.567,6.226-14.736,6.226
				c-5.332,0-9.444-1.561-12.337-4.684c-0.229-0.304-0.496-0.304-0.8,0c-1.524,1.524-3.37,2.667-5.541,3.427
				c-2.17,0.763-4.398,1.143-6.683,1.143c-4.038,0-7.368-1.046-9.996-3.142c-2.627-2.094-4.247-4.778-4.855-8.054
				c-0.229-1.294-0.343-2.628-0.343-3.998c0-1.294,0.151-3.236,0.457-5.826c0.457-3.428,1.217-6.587,2.285-9.481
				c1.294-3.731,3.407-6.606,6.34-8.625c2.931-2.018,6.149-3.027,9.653-3.027c3.73,0,6.625,1.142,8.682,3.427
				c0.152,0.229,0.304,0.325,0.457,0.285c0.152-0.037,0.229-0.171,0.229-0.399l0.229-1.828c0.075-0.837,0.571-1.256,1.485-1.256
				h7.997c0.914,0,1.332,0.496,1.257,1.484l-2.856,21.248c-0.077,0.534-0.114,1.296-0.114,2.285c0,2.133,0.437,3.847,1.313,5.141
				c0.875,1.296,2.188,1.942,3.941,1.942c4.645,0,7.614-4.341,8.91-13.023c0.304-1.902,0.457-3.998,0.457-6.283
				c0-8.148-2.324-14.354-6.968-18.62c-4.646-4.265-10.892-6.397-18.735-6.397c-6.246,0-11.938,1.333-17.078,3.998
				c-5.141,2.667-9.33,6.531-12.566,11.595c-3.238,5.066-5.198,11.024-5.883,17.879c-0.154,1.143-0.229,2.78-0.229,4.912
				c0,8.073,2.322,14.394,6.968,18.963c4.645,4.57,11.004,6.854,19.078,6.854c3.655,0,7.006-0.418,10.053-1.257
				c3.045-0.837,5.521-1.902,7.425-3.198c0.152-0.151,0.417-0.229,0.8-0.229c0.532,0,0.875,0.191,1.028,0.571l4.57,6.169
				c0.229,0.38,0.342,0.686,0.342,0.914c0,0.38-0.191,0.685-0.571,0.913c-2.818,2.132-6.494,3.827-11.024,5.084
				c-4.532,1.257-9.159,1.885-13.88,1.885c-7.007,0-13.251-1.485-18.734-4.455c-5.483-2.971-9.787-7.254-12.909-12.852
				c-3.124-5.598-4.684-12.127-4.684-19.592c0-1.903,0.114-3.808,0.343-5.712c0.914-8.454,3.636-15.937,8.168-22.448
				c4.53-6.511,10.262-11.556,17.192-15.136c6.929-3.579,14.394-5.369,22.391-5.369
				C634.445,314.526,640.919,316.011,646.479,318.981z M622.147,368.731c1.142-0.874,2.056-2.036,2.742-3.484
				c0.837-1.599,1.446-3.998,1.828-7.196c0.152-1.371,0.229-2.856,0.229-4.455c0-1.218-0.04-2.057-0.114-2.514
				c-0.154-1.445-0.743-2.607-1.771-3.484c-1.028-0.874-2.342-1.313-3.941-1.313c-1.524,0-2.913,0.439-4.169,1.313
				c-1.257,0.877-2.228,2.039-2.913,3.484c-0.762,1.447-1.371,3.961-1.828,7.54c-0.229,1.676-0.343,3.084-0.343,4.227
				c0,0.686,0.075,1.485,0.229,2.398c0.303,1.524,0.971,2.705,1.999,3.542c1.028,0.839,2.379,1.257,4.055,1.257
				C619.671,370.046,621.005,369.608,622.147,368.731z"/>
		</g>
	</g>
	<g id="Layer_20">
		<g id="Send">
			<g>
				<g>
					<polygon fill="#2E6AE5" points="263.084,261.87 249.028,269.596 276.363,280.908 					"/>
				</g>
			</g>
			<g>
				<g>
					<path fill="#8FB8FD" d="M277.408,251.441l22.747-14.074l-109.957-15.078l39.963,57.678l18.867-10.371l-0.003-0.001l0.003,0.001
						l14.056-7.726l-70.745-38.199L277.408,251.441z"/>
				</g>
			</g>
			<g>
				<g>
					<polygon fill="#3B84F2" points="263.084,261.87 276.363,280.908 277.408,251.441 192.338,223.671 					"/>
				</g>
			</g>
		</g>
	</g>
	<g id="Layer_21">
		<g>
			<g>
				<circle fill="#FFFFFF" cx="310.002" cy="395.687" r="32.314"/>
			</g>
		</g>
		<g>
			<g>
				<path fill="#3B84F2" d="M306.705,409.632c-0.512,0-1.024-0.195-1.414-0.586l-14.653-14.652c-0.781-0.781-0.781-2.047,0-2.828
					c0.781-0.781,2.048-0.781,2.828,0l13.239,13.238l19.104-19.104c0.781-0.781,2.047-0.781,2.829,0
					c0.781,0.781,0.781,2.047,0,2.828l-20.519,20.519C307.729,409.437,307.217,409.632,306.705,409.632z"/>
			</g>
		</g>
	</g>
	<g>
		<g>
			<g>
				<path fill="#8FB8FD" d="M279.681,472.077c6.112,0,11.066-6.019,11.066-13.442s-1.626-13.441-11.066-13.441
					c-9.439,0-11.067,6.018-11.067,13.441S273.57,472.077,279.681,472.077z"/>
			</g>
		</g>
		<g>
			<g>
				<path fill="#8FB8FD" d="M258.779,492.602C258.777,492.149,258.774,492.474,258.779,492.602L258.779,492.602z"/>
			</g>
		</g>
		<g>
			<g>
				<path fill="#8FB8FD" d="M300.583,492.955C300.589,492.83,300.585,492.096,300.583,492.955L300.583,492.955z"/>
			</g>
		</g>
		<g>
			<g>
				<path fill="#8FB8FD" d="M300.561,492.06c-0.205-12.934-1.894-16.618-14.82-18.952c0,0-1.819,2.319-6.059,2.319
					c-4.24,0-6.06-2.319-6.06-2.319c-12.784,2.308-14.576,5.938-14.811,18.53c-0.02,1.028-0.028,1.083-0.031,0.964
					c0,0.224,0.001,0.637,0.001,1.357c0,0,3.078,6.204,20.901,6.204c17.824,0,20.902-6.204,20.902-6.204c0-0.463,0-0.785,0-1.004
					C300.58,493.029,300.573,492.885,300.561,492.06z"/>
			</g>
		</g>
	</g>
	<g id="Layer_19">
		<g>
			<g>
				<path fill="#8FB8FD" d="M682.98,226h-32.914c-3.973,0-7.066,3.562-7.066,7.534v21.914c0,3.973,3.094,7.552,7.066,7.552H653
					v8.441l8.573-8.441h21.407c3.972,0,7.02-3.579,7.02-7.552v-21.914C690,229.562,686.953,226,682.98,226z"/>
			</g>
		</g>
		<g>
			<g>
				<circle fill="#EEF5FF" cx="654.056" cy="244.858" r="3.483"/>
			</g>
		</g>
		<g>
			<g>
				<circle fill="#EEF5FF" cx="666.156" cy="244.858" r="3.483"/>
			</g>
		</g>
		<g>
			<g>
				<circle fill="#EEF5FF" cx="678.257" cy="244.858" r="3.483"/>
			</g>
		</g>
	</g>
</g>
</svg>
