<?xml version="1.0" encoding="UTF-8" standalone="no"?><!-- Generator: Gravit.io --><svg xmlns="http://www.w3.org/2000/svg" xmlns:xlink="http://www.w3.org/1999/xlink" style="isolation:isolate" viewBox="0 0 940 420" width="940pt" height="420pt"><defs><clipPath id="_clipPath_LIhbvD2ShQI2s5LTUi9ha2Ii1W0mKAzU"><rect width="940" height="420"/></clipPath></defs><g clip-path="url(#_clipPath_LIhbvD2ShQI2s5LTUi9ha2Ii1W0mKAzU)"><g/><g><g/></g><g/><g/><g><g/></g><g/><g><g/></g><g><g><g style="mix-blend-mode:color;"><rect x="0" y="0" width="940" height="420" transform="matrix(1,0,0,1,0,0)" fill="rgb(238,245,255)"/></g></g><g><g><path d=" M 302.733 44.511 C 303.349 43.985 303.734 43.285 303.888 42.413 C 303.965 42.105 304.144 41.976 304.427 42.028 L 308.854 42.837 C 309.008 42.863 309.117 42.92 309.181 43.01 C 309.245 43.1 309.264 43.221 309.239 43.376 C 308.905 45.404 307.955 47.008 306.39 48.189 C 304.824 49.37 302.835 49.96 300.423 49.96 C 298.652 49.96 297.093 49.607 295.745 48.901 C 294.398 48.195 293.351 47.194 292.607 45.898 C 291.862 44.603 291.491 43.094 291.491 41.375 L 291.491 39.989 C 291.491 39.861 291.427 39.797 291.299 39.797 L 288.835 39.797 C 288.706 39.797 288.597 39.753 288.508 39.662 C 288.418 39.572 288.373 39.463 288.373 39.335 L 288.373 37.41 C 288.373 37.282 288.417 37.173 288.508 37.083 C 288.598 36.994 288.706 36.948 288.835 36.948 L 291.299 36.948 C 291.427 36.948 291.491 36.885 291.491 36.756 L 291.491 35.563 C 291.491 35.435 291.427 35.37 291.299 35.37 L 288.835 35.37 C 288.706 35.37 288.597 35.326 288.508 35.235 C 288.418 35.146 288.373 35.037 288.373 34.908 L 288.373 32.983 C 288.373 32.855 288.417 32.746 288.508 32.656 C 288.598 32.566 288.706 32.521 288.835 32.521 L 291.299 32.521 C 291.427 32.521 291.491 32.457 291.491 32.328 L 291.491 30.942 C 291.491 29.223 291.857 27.714 292.588 26.418 C 293.32 25.123 294.359 24.127 295.707 23.435 C 297.054 22.742 298.626 22.395 300.423 22.395 C 302.861 22.395 304.876 22.998 306.467 24.204 C 308.058 25.411 309.008 27.053 309.316 29.132 L 309.316 29.209 C 309.316 29.44 309.175 29.581 308.893 29.632 L 304.388 30.21 L 304.311 30.21 C 304.08 30.21 303.926 30.069 303.849 29.786 C 303.695 28.939 303.316 28.272 302.713 27.784 C 302.11 27.297 301.346 27.053 300.422 27.053 C 299.369 27.053 298.522 27.4 297.881 28.093 C 297.239 28.786 296.918 29.685 296.918 30.788 L 296.918 32.328 C 296.918 32.457 296.982 32.521 297.111 32.521 L 304.772 32.521 C 304.926 32.521 305.042 32.573 305.118 32.675 C 305.195 32.778 305.208 32.906 305.157 33.06 L 304.58 34.985 C 304.503 35.242 304.336 35.37 304.08 35.37 L 297.111 35.37 C 296.982 35.37 296.918 35.434 296.918 35.563 L 296.918 36.756 C 296.918 36.885 296.982 36.948 297.111 36.948 L 303.464 36.948 C 303.618 36.948 303.733 37 303.81 37.102 C 303.887 37.205 303.9 37.333 303.849 37.487 L 303.271 39.412 C 303.194 39.669 303.027 39.797 302.771 39.797 L 297.112 39.797 C 296.983 39.797 296.919 39.861 296.919 39.989 L 296.919 41.606 C 296.919 42.71 297.24 43.602 297.882 44.282 C 298.523 44.962 299.37 45.302 300.423 45.302 C 301.347 45.3 302.117 45.037 302.733 44.511 Z " fill="rgb(208,225,250)"/></g></g><g><g><path d=" M 235.615 235.881 C 237.488 236.882 238.926 238.275 239.927 240.059 C 240.928 241.843 241.428 243.889 241.428 246.2 C 241.428 246.868 241.389 247.548 241.313 248.24 C 241.005 250.756 240.235 252.713 239.003 254.111 C 237.771 255.51 236.116 256.21 234.036 256.21 C 232.239 256.21 230.853 255.685 229.878 254.632 C 229.801 254.529 229.711 254.529 229.608 254.632 C 229.094 255.146 228.472 255.53 227.741 255.786 C 227.01 256.043 226.259 256.172 225.489 256.172 C 224.128 256.172 223.006 255.819 222.12 255.112 C 221.235 254.407 220.689 253.502 220.484 252.398 C 220.407 251.961 220.369 251.512 220.369 251.05 C 220.369 250.614 220.42 249.959 220.523 249.087 C 220.677 247.932 220.933 246.867 221.293 245.891 C 221.729 244.634 222.441 243.665 223.43 242.985 C 224.418 242.305 225.502 241.964 226.683 241.964 C 227.94 241.964 228.916 242.349 229.609 243.119 C 229.66 243.196 229.711 243.228 229.763 243.215 C 229.814 243.202 229.84 243.157 229.84 243.08 L 229.917 242.465 C 229.942 242.183 230.109 242.041 230.417 242.041 L 233.112 242.041 C 233.42 242.041 233.561 242.208 233.535 242.541 L 232.573 249.702 C 232.547 249.883 232.534 250.14 232.534 250.473 C 232.534 251.192 232.681 251.769 232.977 252.205 C 233.272 252.642 233.714 252.859 234.305 252.859 C 235.87 252.859 236.871 251.396 237.308 248.47 C 237.41 247.828 237.462 247.122 237.462 246.352 C 237.462 243.606 236.679 241.515 235.114 240.077 C 233.548 238.64 231.443 237.922 228.8 237.922 C 226.695 237.922 224.777 238.371 223.044 239.269 C 221.312 240.168 219.9 241.47 218.809 243.177 C 217.718 244.884 217.057 246.892 216.826 249.202 C 216.774 249.587 216.749 250.14 216.749 250.857 C 216.749 253.578 217.531 255.708 219.097 257.248 C 220.662 258.788 222.806 259.559 225.526 259.559 C 226.758 259.559 227.887 259.418 228.914 259.135 C 229.94 258.853 230.775 258.494 231.416 258.057 C 231.467 258.006 231.557 257.98 231.686 257.98 C 231.865 257.98 231.981 258.044 232.032 258.173 L 233.572 260.252 C 233.649 260.38 233.687 260.482 233.687 260.56 C 233.687 260.688 233.623 260.79 233.495 260.868 C 232.545 261.587 231.306 262.158 229.78 262.582 C 228.253 263.005 226.693 263.217 225.102 263.217 C 222.74 263.217 220.636 262.717 218.788 261.716 C 216.94 260.715 215.49 259.271 214.437 257.384 C 213.384 255.498 212.858 253.297 212.858 250.781 C 212.858 250.14 212.897 249.498 212.974 248.856 C 213.282 246.007 214.199 243.485 215.727 241.291 C 217.254 239.097 219.185 237.396 221.521 236.19 C 223.856 234.983 226.372 234.38 229.067 234.38 C 231.559 234.38 233.741 234.88 235.615 235.881 Z  M 227.415 252.647 C 227.8 252.352 228.108 251.96 228.339 251.473 C 228.621 250.934 228.826 250.125 228.955 249.047 C 229.006 248.585 229.032 248.085 229.032 247.546 C 229.032 247.135 229.019 246.853 228.993 246.698 C 228.941 246.211 228.743 245.819 228.396 245.524 C 228.049 245.229 227.607 245.081 227.068 245.081 C 226.554 245.081 226.086 245.229 225.663 245.524 C 225.24 245.819 224.912 246.211 224.681 246.698 C 224.424 247.186 224.219 248.033 224.065 249.239 C 223.988 249.804 223.95 250.279 223.95 250.664 C 223.95 250.894 223.975 251.164 224.027 251.473 C 224.129 251.987 224.354 252.384 224.701 252.666 C 225.047 252.949 225.503 253.09 226.068 253.09 C 226.58 253.091 227.03 252.943 227.415 252.647 Z " fill="rgb(208,225,250)"/></g></g><g><g><path d=" M 671.233 349.211 C 671.849 348.686 672.234 347.985 672.388 347.112 C 672.465 346.804 672.644 346.676 672.927 346.727 L 677.355 347.536 C 677.509 347.561 677.618 347.62 677.682 347.709 C 677.746 347.8 677.765 347.921 677.74 348.075 C 677.407 350.102 676.456 351.707 674.891 352.888 C 673.325 354.069 671.336 354.659 668.923 354.659 C 667.152 354.659 665.593 354.306 664.245 353.6 C 662.898 352.895 661.851 351.894 661.107 350.597 C 660.362 349.301 659.991 347.793 659.991 346.074 L 659.991 344.688 C 659.991 344.559 659.927 344.495 659.798 344.495 L 657.334 344.495 C 657.205 344.495 657.096 344.451 657.007 344.36 C 656.917 344.271 656.872 344.162 656.872 344.033 L 656.872 342.108 C 656.872 341.98 656.916 341.871 657.007 341.781 C 657.096 341.691 657.205 341.646 657.334 341.646 L 659.798 341.646 C 659.926 341.646 659.991 341.583 659.991 341.454 L 659.991 340.261 C 659.991 340.133 659.927 340.069 659.798 340.069 L 657.334 340.069 C 657.205 340.069 657.096 340.024 657.007 339.934 C 656.917 339.844 656.872 339.735 656.872 339.607 L 656.872 337.681 C 656.872 337.553 656.916 337.445 657.007 337.354 C 657.096 337.265 657.205 337.219 657.334 337.219 L 659.798 337.219 C 659.926 337.219 659.991 337.156 659.991 337.027 L 659.991 335.641 C 659.991 333.921 660.357 332.413 661.088 331.118 C 661.819 329.823 662.859 328.827 664.206 328.134 C 665.554 327.442 667.125 327.095 668.922 327.095 C 671.36 327.095 673.375 327.699 674.966 328.905 C 676.557 330.111 677.507 331.754 677.815 333.833 L 677.815 333.91 C 677.815 334.14 677.674 334.282 677.392 334.334 L 672.888 334.911 L 672.811 334.911 C 672.58 334.911 672.426 334.77 672.349 334.487 C 672.195 333.64 671.816 332.973 671.213 332.485 C 670.609 331.998 669.846 331.754 668.922 331.754 C 667.869 331.754 667.023 332.101 666.381 332.794 C 665.739 333.486 665.419 334.385 665.419 335.488 L 665.419 337.028 C 665.419 337.157 665.483 337.22 665.611 337.22 L 673.273 337.22 C 673.427 337.22 673.543 337.272 673.62 337.374 C 673.697 337.477 673.709 337.605 673.659 337.759 L 673.081 339.684 C 673.004 339.941 672.837 340.07 672.581 340.07 L 665.612 340.07 C 665.484 340.07 665.42 340.134 665.42 340.262 L 665.42 341.455 C 665.42 341.584 665.484 341.647 665.612 341.647 L 671.965 341.647 C 672.119 341.647 672.235 341.699 672.312 341.801 C 672.389 341.903 672.401 342.031 672.351 342.186 L 671.773 344.111 C 671.696 344.368 671.529 344.496 671.273 344.496 L 665.613 344.496 C 665.485 344.496 665.421 344.56 665.421 344.689 L 665.421 346.305 C 665.421 347.409 665.742 348.301 666.383 348.981 C 667.025 349.662 667.871 350.002 668.924 350.002 C 669.848 350 670.618 349.737 671.233 349.211 Z " fill="rgb(208,225,250)"/></g></g><g><g><path d=" M 617.023 61.197 C 616.086 60.658 615.342 59.921 614.79 58.983 C 614.238 58.046 613.962 57.026 613.962 55.922 C 613.962 54.818 614.237 53.804 614.79 52.88 C 615.342 51.956 616.086 51.218 617.023 50.666 C 617.96 50.114 618.993 49.838 620.122 49.838 C 621.226 49.838 622.24 50.114 623.164 50.666 C 624.088 51.218 624.826 51.956 625.378 52.88 C 625.93 53.804 626.206 54.818 626.206 55.922 C 626.206 57.026 625.936 58.046 625.398 58.983 C 624.859 59.921 624.121 60.658 623.184 61.197 C 622.246 61.736 621.226 62.006 620.123 62.006 C 618.993 62.006 617.96 61.736 617.023 61.197 Z  M 622.144 58.002 C 622.696 57.438 622.972 56.745 622.972 55.923 C 622.972 55.128 622.696 54.447 622.144 53.882 C 621.592 53.318 620.918 53.035 620.123 53.035 C 619.301 53.035 618.608 53.318 618.044 53.882 C 617.479 54.447 617.197 55.127 617.197 55.923 C 617.197 56.745 617.479 57.438 618.044 58.002 C 618.608 58.566 619.301 58.849 620.123 58.849 C 620.918 58.849 621.592 58.566 622.144 58.002 Z  M 618.275 76.982 C 618.223 76.879 618.236 76.751 618.314 76.597 L 632.828 50.494 C 632.956 50.289 633.149 50.186 633.406 50.186 L 636.255 50.186 C 636.434 50.186 636.549 50.238 636.601 50.34 C 636.652 50.443 636.64 50.571 636.563 50.725 L 622.087 76.828 C 621.958 77.034 621.766 77.136 621.509 77.136 L 618.621 77.136 C 618.441 77.136 618.326 77.085 618.275 76.982 Z  M 632.077 76.655 C 631.139 76.104 630.395 75.36 629.844 74.422 C 629.292 73.485 629.016 72.465 629.016 71.361 C 629.016 70.257 629.292 69.243 629.844 68.319 C 630.395 67.395 631.139 66.663 632.077 66.124 C 633.014 65.585 634.034 65.316 635.138 65.316 C 636.242 65.316 637.262 65.586 638.199 66.124 C 639.136 66.663 639.88 67.395 640.432 68.319 C 640.983 69.243 641.26 70.257 641.26 71.361 C 641.26 72.465 640.984 73.485 640.432 74.422 C 639.88 75.36 639.136 76.104 638.199 76.655 C 637.261 77.207 636.241 77.483 635.138 77.483 C 634.034 77.483 633.014 77.207 632.077 76.655 Z  M 637.178 73.44 C 637.742 72.876 638.025 72.183 638.025 71.361 C 638.025 70.566 637.742 69.885 637.178 69.32 C 636.613 68.756 635.933 68.473 635.137 68.473 C 634.341 68.473 633.661 68.749 633.096 69.301 C 632.531 69.853 632.249 70.54 632.249 71.361 C 632.249 72.183 632.524 72.876 633.077 73.44 C 633.629 74.004 634.315 74.287 635.137 74.287 C 635.933 74.287 636.613 74.005 637.178 73.44 Z " fill="rgb(208,225,250)"/></g></g><g><g><path d=" M 354.124 378.297 C 353.187 377.759 352.443 377.021 351.891 376.084 C 351.339 375.146 351.063 374.127 351.063 373.022 C 351.063 371.919 351.339 370.905 351.891 369.981 C 352.443 369.057 353.187 368.319 354.124 367.767 C 355.061 367.215 356.093 366.939 357.223 366.939 C 358.326 366.939 359.34 367.215 360.265 367.767 C 361.19 368.319 361.926 369.057 362.479 369.981 C 363.031 370.905 363.307 371.919 363.307 373.022 C 363.307 374.126 363.037 375.146 362.498 376.084 C 361.959 377.021 361.221 377.759 360.284 378.297 C 359.347 378.836 358.326 379.106 357.223 379.106 C 356.093 379.105 355.06 378.836 354.124 378.297 Z  M 359.244 375.102 C 359.796 374.538 360.072 373.845 360.072 373.023 C 360.072 372.228 359.796 371.547 359.244 370.983 C 358.692 370.419 358.018 370.136 357.223 370.136 C 356.401 370.136 355.708 370.418 355.144 370.983 C 354.579 371.547 354.297 372.228 354.297 373.023 C 354.297 373.845 354.579 374.538 355.144 375.102 C 355.708 375.667 356.401 375.95 357.223 375.95 C 358.018 375.949 358.692 375.667 359.244 375.102 Z  M 355.375 394.082 C 355.323 393.98 355.337 393.852 355.414 393.697 L 369.928 367.594 C 370.056 367.389 370.249 367.285 370.506 367.285 L 373.355 367.285 C 373.534 367.285 373.65 367.337 373.702 367.439 C 373.753 367.542 373.74 367.669 373.663 367.824 L 359.187 393.928 C 359.058 394.133 358.866 394.236 358.61 394.236 L 355.723 394.236 C 355.542 394.236 355.426 394.186 355.375 394.082 Z  M 369.177 393.755 C 368.24 393.203 367.496 392.459 366.944 391.523 C 366.392 390.585 366.116 389.566 366.116 388.461 C 366.116 387.358 366.391 386.344 366.944 385.42 C 367.496 384.496 368.24 383.765 369.177 383.226 C 370.114 382.687 371.134 382.417 372.238 382.417 C 373.341 382.417 374.362 382.687 375.299 383.226 C 376.236 383.765 376.98 384.497 377.532 385.42 C 378.084 386.344 378.36 387.358 378.36 388.461 C 378.36 389.565 378.084 390.585 377.532 391.523 C 376.98 392.46 376.236 393.204 375.299 393.755 C 374.362 394.307 373.341 394.583 372.238 394.583 C 371.134 394.583 370.114 394.307 369.177 393.755 Z  M 374.278 390.54 C 374.842 389.976 375.125 389.283 375.125 388.461 C 375.125 387.666 374.842 386.985 374.278 386.421 C 373.713 385.857 373.033 385.574 372.237 385.574 C 371.441 385.574 370.761 385.849 370.196 386.401 C 369.631 386.954 369.349 387.64 369.349 388.461 C 369.349 389.283 369.625 389.976 370.177 390.54 C 370.729 391.105 371.415 391.388 372.237 391.388 C 373.033 391.388 373.713 391.105 374.278 390.54 Z " fill="rgb(208,225,250)"/></g></g><g><g><g><path d=" M 570.625 121.346 L 546.585 103.629 L 526.062 88.908 L 484.431 58.971 L 477.982 54.265 C 473.292 50.746 466.842 50.739 462.151 54.257 L 455.701 58.944 L 368.921 121.347 L 329.05 150.33 L 368.921 178.809 L 461.565 245.398 C 466.254 248.918 472.704 248.918 477.396 245.398 L 570.625 178.809 L 610.498 150.33 L 570.625 121.346 Z " fill="rgb(46,106,229)"/></g></g><g><g><g><path d=" M 570 315.283 C 570 322.933 563.616 329 555.962 329 L 383.913 329 C 376.258 329 370 322.934 370 315.283 L 370 73.543 C 370 65.891 376.258 59 383.913 59 L 537.379 59 L 570 93.006 L 570 315.283 Z " fill="rgb(255,255,255)"/></g></g><g><g><path d=" M 571.007 94 L 551.159 94 C 543.504 94 537 86.003 537 78.351 L 537 59.686 L 571.007 94 Z " fill="rgb(143,184,253)"/></g></g><g><g><path d=" M 486 91 L 427 91 C 426.172 91 425.5 90.329 425.5 89.5 C 425.5 88.671 426.172 88 427 88 L 486 88 C 486.829 88 487.5 88.671 487.5 89.5 C 487.5 90.329 486.829 91 486 91 Z " fill="rgb(59,132,242)"/></g></g><g><g><path d=" M 465 103 L 427 103 C 426.172 103 425.5 102.329 425.5 101.5 C 425.5 100.671 426.172 100 427 100 L 465 100 C 465.828 100 466.5 100.671 466.5 101.5 C 466.5 102.329 465.828 103 465 103 Z " fill="rgb(59,132,242)"/></g></g><g><g><path d=" M 543 136 L 399 136 C 398.172 136 397.5 135.329 397.5 134.5 C 397.5 133.671 398.172 133 399 133 L 543 133 C 543.829 133 544.5 133.671 544.5 134.5 C 544.5 135.329 543.829 136 543 136 Z " fill="rgb(59,132,242)"/></g></g><g><g><path d=" M 543 155 L 399 155 C 398.172 155 397.5 154.329 397.5 153.5 C 397.5 152.671 398.172 152 399 152 L 543 152 C 543.829 152 544.5 152.671 544.5 153.5 C 544.5 154.329 543.829 155 543 155 Z " fill="rgb(59,132,242)"/></g></g><g><g><path d=" M 472 173 L 399 173 C 398.172 173 397.5 172.329 397.5 171.5 C 397.5 170.671 398.172 170 399 170 L 472 170 C 472.829 170 473.5 170.671 473.5 171.5 C 473.5 172.329 472.829 173 472 173 Z " fill="rgb(59,132,242)"/></g></g><g><g><path d=" M 406.06 107.644 C 398.829 107.644 392.946 101.761 392.946 94.53 C 392.946 87.298 398.829 81.415 406.06 81.415 C 413.29 81.415 419.173 87.298 419.173 94.53 C 419.172 101.761 413.29 107.644 406.06 107.644 Z  M 406.06 84.414 C 400.483 84.414 395.946 88.952 395.946 94.529 C 395.946 100.106 400.483 104.643 406.06 104.643 C 411.636 104.643 416.173 100.106 416.173 94.529 C 416.172 88.952 411.636 84.414 406.06 84.414 Z " fill="rgb(59,132,242)"/></g></g><g><g><path d=" M 540.5 286 L 392.5 286 C 391.672 286 391 285.328 391 284.5 L 391 211.5 C 391 210.672 391.672 210 392.5 210 L 540.5 210 C 541.329 210 542 210.672 542 211.5 L 542 284.5 C 542 285.328 541.329 286 540.5 286 Z  M 394 283 L 539 283 L 539 213 L 394 213 L 394 283 Z " fill="rgb(59,132,242)"/></g></g><g><g><path d=" M 543 235 L 394 235 C 393.172 235 392.5 234.328 392.5 233.5 C 392.5 232.672 393.172 232 394 232 L 543 232 C 543.829 232 544.5 232.672 544.5 233.5 C 544.5 234.328 543.829 235 543 235 Z " fill="rgb(59,132,242)"/></g></g><g><g><path d=" M 543 259 L 394 259 C 393.172 259 392.5 258.328 392.5 257.5 C 392.5 256.672 393.172 256 394 256 L 543 256 C 543.829 256 544.5 256.672 544.5 257.5 C 544.5 258.328 543.829 259 543 259 Z " fill="rgb(59,132,242)"/></g></g><g><g><path d=" M 508.5 280.5 C 507.671 280.5 507 279.828 507 279 L 507 211 C 507 210.172 507.671 209.5 508.5 209.5 C 509.329 209.5 510 210.172 510 211 L 510 279 C 510 279.828 509.329 280.5 508.5 280.5 Z " fill="rgb(59,132,242)"/></g></g><g><g><path d=" M 393.5 309.5 C 392.672 309.5 392 308.828 392 308 L 392 296 C 392 295.172 392.672 294.5 393.5 294.5 C 394.328 294.5 395 295.172 395 296 L 395 308 C 395 308.828 394.328 309.5 393.5 309.5 Z " fill="rgb(59,132,242)"/></g></g></g><g><g><path d=" M 570.878 178.556 L 477.523 245.399 C 472.831 248.919 466.317 248.919 461.627 245.399 L 368.428 178.556 L 328 149.824 L 328 321.626 C 328 325.143 329.698 327.898 332.043 330.244 C 334.389 332.004 337.845 333 340.778 333 L 598.77 333 C 602.288 333 604.884 332.006 607.23 330.244 C 609.574 327.898 611 325.142 611 321.626 L 611 149.824 L 570.878 178.556 Z " fill="rgb(143,184,253)"/></g></g><g><g><path d=" M 606.979 330.421 C 604.635 332.179 602.289 333.353 598.771 333.353 L 340.777 333.353 C 337.844 333.353 334.912 332.179 332.567 330.421 L 469.772 212.563 L 606.979 330.421 Z " fill="rgb(59,132,242)"/></g></g></g><g><g><path d=" M 646.479 194.981 C 652.038 197.951 656.303 202.084 659.273 207.376 C 662.243 212.67 663.729 218.743 663.729 225.597 C 663.729 227.578 663.615 229.596 663.386 231.652 C 662.472 239.117 660.187 244.923 656.532 249.074 C 652.877 253.225 647.965 255.3 641.796 255.3 C 636.464 255.3 632.352 253.739 629.459 250.616 C 629.23 250.312 628.963 250.312 628.659 250.616 C 627.135 252.14 625.289 253.283 623.118 254.043 C 620.948 254.806 618.72 255.186 616.435 255.186 C 612.397 255.186 609.067 254.14 606.439 252.044 C 603.812 249.95 602.192 247.266 601.584 243.99 C 601.355 242.696 601.241 241.362 601.241 239.992 C 601.241 238.698 601.392 236.756 601.698 234.166 C 602.155 230.738 602.915 227.579 603.983 224.685 C 605.277 220.954 607.39 218.079 610.323 216.06 C 613.254 214.042 616.472 213.033 619.976 213.033 C 623.706 213.033 626.601 214.175 628.658 216.46 C 628.81 216.689 628.962 216.785 629.115 216.745 C 629.267 216.708 629.344 216.574 629.344 216.346 L 629.573 214.518 C 629.648 213.681 630.144 213.262 631.058 213.262 L 639.055 213.262 C 639.969 213.262 640.387 213.758 640.312 214.746 L 637.456 235.994 C 637.379 236.528 637.342 237.29 637.342 238.279 C 637.342 240.412 637.779 242.126 638.655 243.42 C 639.53 244.716 640.843 245.362 642.596 245.362 C 647.241 245.362 650.21 241.021 651.506 232.339 C 651.81 230.437 651.963 228.341 651.963 226.056 C 651.963 217.908 649.639 211.702 644.995 207.436 C 640.349 203.171 634.103 201.039 626.26 201.039 C 620.014 201.039 614.322 202.372 609.182 205.037 C 604.041 207.704 599.852 211.568 596.616 216.632 C 593.378 221.698 591.418 227.656 590.733 234.511 C 590.579 235.654 590.504 237.291 590.504 239.423 C 590.504 247.496 592.826 253.817 597.472 258.386 C 602.117 262.956 608.476 265.24 616.55 265.24 C 620.205 265.24 623.556 264.822 626.603 263.983 C 629.648 263.146 632.124 262.081 634.028 260.785 C 634.18 260.634 634.445 260.556 634.828 260.556 C 635.36 260.556 635.703 260.747 635.856 261.127 L 640.426 267.296 C 640.655 267.676 640.768 267.982 640.768 268.21 C 640.768 268.59 640.577 268.895 640.197 269.123 C 637.379 271.255 633.703 272.95 629.173 274.207 C 624.641 275.464 620.014 276.092 615.293 276.092 C 608.286 276.092 602.042 274.607 596.559 271.637 C 591.076 268.666 586.772 264.383 583.65 258.785 C 580.526 253.187 578.966 246.658 578.966 239.193 C 578.966 237.29 579.08 235.385 579.309 233.481 C 580.223 225.027 582.945 217.544 587.477 211.033 C 592.007 204.522 597.739 199.477 604.669 195.897 C 611.598 192.318 619.063 190.528 627.06 190.528 C 634.445 190.526 640.919 192.011 646.479 194.981 Z  M 622.147 244.731 C 623.289 243.857 624.203 242.695 624.889 241.247 C 625.726 239.648 626.335 237.249 626.717 234.051 C 626.869 232.68 626.946 231.195 626.946 229.596 C 626.946 228.378 626.906 227.539 626.832 227.082 C 626.678 225.637 626.089 224.475 625.061 223.598 C 624.033 222.724 622.719 222.285 621.12 222.285 C 619.596 222.285 618.207 222.724 616.951 223.598 C 615.694 224.475 614.723 225.637 614.038 227.082 C 613.276 228.529 612.667 231.043 612.21 234.622 C 611.981 236.298 611.867 237.706 611.867 238.849 C 611.867 239.535 611.942 240.334 612.096 241.247 C 612.399 242.771 613.067 243.952 614.095 244.789 C 615.123 245.628 616.474 246.046 618.15 246.046 C 619.671 246.046 621.005 245.608 622.147 244.731 Z " fill="rgb(46,106,229)"/></g></g><g><g><g><g><path d=" M 263.084 137.87 L 249.028 145.596 L 276.363 156.908 L 263.084 137.87 Z " fill="rgb(46,106,229)"/></g></g><g><g><path d=" M 277.408 127.441 L 300.155 113.367 L 190.198 98.289 L 230.161 155.967 L 249.028 145.596 L 249.025 145.595 L 249.028 145.596 L 263.084 137.87 L 192.339 99.671 L 277.408 127.441 Z " fill="rgb(143,184,253)"/></g></g><g><g><path d=" M 263.084 137.87 L 276.363 156.908 L 277.408 127.441 L 192.338 99.671 L 263.084 137.87 Z " fill="rgb(59,132,242)"/></g></g></g></g><g><g><g><circle vector-effect="non-scaling-stroke" cx="310.002" cy="271.68700000000024" r="32.31400000000002" fill="rgb(255,255,255)"/></g></g><g><g><path d=" M 306.705 285.632 C 306.193 285.632 305.681 285.437 305.291 285.046 L 290.638 270.394 C 289.857 269.613 289.857 268.347 290.638 267.566 C 291.419 266.785 292.686 266.785 293.466 267.566 L 306.705 280.804 L 325.809 261.7 C 326.59 260.919 327.856 260.919 328.638 261.7 C 329.419 262.481 329.419 263.747 328.638 264.528 L 308.119 285.047 C 307.729 285.437 307.217 285.632 306.705 285.632 Z " fill="rgb(59,132,242)"/></g></g></g><g><g><g><path d=" M 279.681 348.077 C 285.793 348.077 290.747 342.058 290.747 334.635 C 290.747 327.212 289.121 321.194 279.681 321.194 C 270.242 321.194 268.614 327.212 268.614 334.635 C 268.614 342.058 273.57 348.077 279.681 348.077 Z " fill="rgb(143,184,253)"/></g></g><g><g><path d=" M 258.779 368.602 C 258.777 368.149 258.774 368.474 258.779 368.602 L 258.779 368.602 Z " fill="rgb(143,184,253)"/></g></g><g><g><path d=" M 300.583 368.955 C 300.589 368.83 300.585 368.096 300.583 368.955 L 300.583 368.955 Z " fill="rgb(143,184,253)"/></g></g><g><g><path d=" M 300.561 368.06 C 300.356 355.126 298.667 351.442 285.741 349.108 C 285.741 349.108 283.922 351.427 279.682 351.427 C 275.442 351.427 273.622 349.108 273.622 349.108 C 260.838 351.416 259.046 355.046 258.811 367.638 C 258.791 368.666 258.783 368.721 258.78 368.602 C 258.78 368.826 258.781 369.239 258.781 369.959 C 258.781 369.959 261.859 376.163 279.682 376.163 C 297.506 376.163 300.584 369.959 300.584 369.959 C 300.584 369.496 300.584 369.174 300.584 368.955 C 300.58 369.029 300.573 368.885 300.561 368.06 Z " fill="rgb(143,184,253)"/></g></g></g><g><g><g><path d=" M 682.98 102 L 650.066 102 C 646.093 102 643 105.562 643 109.534 L 643 131.448 C 643 135.421 646.094 139 650.066 139 L 653 139 L 653 147.441 L 661.573 139 L 682.98 139 C 686.952 139 690 135.421 690 131.448 L 690 109.534 C 690 105.562 686.953 102 682.98 102 Z " fill="rgb(143,184,253)"/></g></g><g><g><circle vector-effect="non-scaling-stroke" cx="654.0559999999999" cy="120.8580000000002" r="3.4829999999999472" fill="rgb(238,245,255)"/></g></g><g><g><circle vector-effect="non-scaling-stroke" cx="666.1559999999998" cy="120.8580000000002" r="3.4829999999999472" fill="rgb(238,245,255)"/></g></g><g><g><circle vector-effect="non-scaling-stroke" cx="678.257" cy="120.8580000000002" r="3.4829999999999472" fill="rgb(238,245,255)"/></g></g></g></g></g></svg>