<?xml version="1.0" encoding="utf-8"?>
<!-- Generator: Adobe Illustrator 16.0.3, SVG Export Plug-In . SVG Version: 6.00 Build 0)  -->
<!DOCTYPE svg PUBLIC "-//W3C//DTD SVG 1.1//EN" "http://www.w3.org/Graphics/SVG/1.1/DTD/svg11.dtd">
<svg version="1.1" xmlns="http://www.w3.org/2000/svg" xmlns:xlink="http://www.w3.org/1999/xlink" x="0px" y="0px" width="940px"
	 height="660px" viewBox="0 0 940 660" enable-background="new 0 0 940 660" xml:space="preserve">
<g id="_x38_-raportointi">
	<g id="Layer_59">
	</g>
	<g id="Layer_67">
	</g>
	<g id="Layer_62">
	</g>
	<g id="Layer_61">
	</g>
	<g id="Layer_60">
	</g>
	<g id="Layer_63">
	</g>
	<g id="Layer_64">
	</g>
	<g id="Layer_65">
	</g>
	<g id="Layer_74">
	</g>
</g>
<g id="_x37_-liitearkisto">
	<g id="Layer_44">
		<g id="Layer_48">
		</g>
		<g id="Layer_46">
		</g>
	</g>
	<g id="Layer_55">
	</g>
	<g id="Layer_49">
	</g>
	<g id="Layer_47">
	</g>
	<g id="Layer_50">
	</g>
	<g id="Layer_51">
	</g>
	<g id="Layer_52">
	</g>
	<g id="Layer_53">
	</g>
	<g id="Layer_56">
	</g>
	<g id="Layer_57">
	</g>
	<g id="Layer_58">
	</g>
</g>
<g id="_x36_-Asiakasrekisteri">
	<g id="Layer_78">
	</g>
	<g id="Layer_80">
	</g>
	<g id="Layer_81">
	</g>
	<g id="Layer_82">
	</g>
	<g id="Layer_83">
	</g>
	<g id="Layer_84">
	</g>
</g>
<g id="_x35_-Tuoterekisteri">
	<rect fill="#EEF5FF" width="940" height="660"/>
	<g id="Layer_76">
		<rect x="662.658" y="310.343" fill="none" width="48.277" height="43.342"/>
		<text transform="matrix(1 0 0 1 662.6592 337.292)" fill="#D0E1FA" font-family="'Barlow-Bold'" font-size="38.5">€</text>
		<rect x="576.858" y="198.143" fill="none" width="48.277" height="43.342"/>
		<text transform="matrix(1 0 0 1 576.8584 225.0918)" fill="#D0E1FA" font-family="'Barlow-Bold'" font-size="38.5">01</text>
		<rect x="326.571" y="175.609" fill="none" width="44.547" height="46.194"/>
		<text transform="matrix(1 0 0 1 326.5723 202.5591)" fill="#D0E1FA" font-family="'Barlow-Bold'" font-size="38.5">%</text>
		<rect x="239.721" y="348.846" fill="none" width="48.278" height="43.342"/>
		<text transform="matrix(1 0 0 1 239.7217 375.7959)" fill="#D0E1FA" font-family="'Barlow-Bold'" font-size="38.5">€</text>
		<rect x="499.269" y="479.229" fill="none" width="44.547" height="46.193"/>
		<text transform="matrix(1 0 0 1 499.2686 506.1777)" fill="#D0E1FA" font-family="'Barlow-Bold'" font-size="38.5">%</text>
	</g>
	<g id="Layer_69">
		<g>
			<g>
				<g>
					<polygon fill="#BAD3F8" points="467.286,196.68 531.152,229.549 595.286,262.15 531.152,295.019 467.286,327.888 
						403.418,295.019 339.284,262.15 403.418,229.549 					"/>
				</g>
			</g>
			<g>
				<g>
					<polygon fill="#2E6AE5" points="547.187,316.663 547.187,287.001 515.118,303.304 515.118,332.965 					"/>
				</g>
			</g>
			<g>
				<g>
					<polyline fill="#8FB8FD" points="515.118,332.965 515.118,303.304 467.286,327.888 467.286,459.097 595.286,393.625 
						595.286,262.15 547.187,287.001 546.117,287.536 546.117,316.396 					"/>
				</g>
			</g>
			<g>
				<g>
					<polygon fill="#2E6AE5" points="467.286,459.097 467.286,327.888 403.418,295.019 339.284,262.15 339.284,393.625 					"/>
				</g>
			</g>
			<g>
				<g>
					<polygon fill="#3B84F2" points="387.386,237.565 515.118,303.304 546.117,287.536 547.187,287.001 419.451,221.265 
						403.418,229.549 					"/>
				</g>
			</g>
		</g>
		<circle fill="#FFFFFF" cx="346.01" cy="262.993" r="24.614"/>
		<g>
			<path fill="#3B84F2" d="M343.499,274.092c-0.512,0-1.023-0.195-1.414-0.586l-11.162-11.161c-0.781-0.781-0.781-2.047,0-2.828
				c0.781-0.781,2.047-0.781,2.828,0l9.748,9.747l14.215-14.215c0.781-0.781,2.047-0.781,2.828,0c0.781,0.781,0.781,2.047,0,2.828
				l-15.629,15.629C344.522,273.896,344.011,274.092,343.499,274.092z"/>
		</g>
	</g>
	<g id="Layer_70">
		<g>
			<g>
				<path fill="#3B84F2" d="M296.342,211.373h-60.58c-2.381,0-4.311,1.929-4.311,4.31v81.724c0,2.381,1.93,4.312,4.311,4.312h60.58
					c2.382,0,4.312-1.931,4.312-4.312v-81.724C300.653,213.302,298.724,211.373,296.342,211.373z"/>
			</g>
		</g>
		<g>
			<g>
				<rect x="238.909" y="218.834" fill="#2E6AE5" width="54.28" height="26.67"/>
			</g>
		</g>
		<g>
			<g>
				<g>
					<circle fill="#EBF0F3" cx="243.376" cy="259.229" r="4.465"/>
				</g>
			</g>
			<g>
				<g>
					<circle fill="#EBF0F3" cx="258.494" cy="259.229" r="4.465"/>
				</g>
			</g>
			<g>
				<g>
					<circle fill="#EBF0F3" cx="273.607" cy="259.229" r="4.465"/>
				</g>
			</g>
		</g>
		<g>
			<g>
				<circle fill="#EBF0F3" cx="288.731" cy="259.229" r="4.465"/>
			</g>
		</g>
		<g>
			<g>
				<g>
					<circle fill="#EBF0F3" cx="243.376" cy="272.558" r="4.465"/>
				</g>
			</g>
			<g>
				<g>
					<circle fill="#EBF0F3" cx="258.494" cy="272.558" r="4.465"/>
				</g>
			</g>
			<g>
				<g>
					<circle fill="#EBF0F3" cx="273.607" cy="272.558" r="4.465"/>
				</g>
			</g>
		</g>
		<g>
			<g>
				<g>
					<circle fill="#EBF0F3" cx="243.376" cy="285.885" r="4.465"/>
				</g>
			</g>
			<g>
				<g>
					<circle fill="#EBF0F3" cx="258.494" cy="285.885" r="4.465"/>
				</g>
			</g>
			<g>
				<g>
					<circle fill="#EBF0F3" cx="273.607" cy="285.885" r="4.465"/>
				</g>
			</g>
		</g>
		<g>
			<g>
				<path fill="#FFFFFF" d="M288.5,290.5c-1.933,0-3.5-1.567-3.5-3.5v-16c0-1.933,1.567-3.5,3.5-3.5s3.5,1.567,3.5,3.5v16
					C292,288.933,290.433,290.5,288.5,290.5z"/>
			</g>
		</g>
	</g>
	<g id="Layer_66">
		
			<line fill="none" stroke="#D0E1FA" stroke-width="2" stroke-linecap="round" stroke-linejoin="round" stroke-miterlimit="10" x1="628" y1="199" x2="674" y2="199"/>
		
			<line fill="none" stroke="#D0E1FA" stroke-width="2" stroke-linecap="round" stroke-linejoin="round" stroke-miterlimit="10" x1="622" y1="199" x2="623" y2="199"/>
		
			<line fill="none" stroke="#D0E1FA" stroke-width="2" stroke-linecap="round" stroke-linejoin="round" stroke-miterlimit="10" x1="628" y1="209" x2="663" y2="209"/>
		
			<line fill="none" stroke="#D0E1FA" stroke-width="2" stroke-linecap="round" stroke-linejoin="round" stroke-miterlimit="10" x1="622" y1="209" x2="623" y2="209"/>
		
			<line fill="none" stroke="#D0E1FA" stroke-width="2" stroke-linecap="round" stroke-linejoin="round" stroke-miterlimit="10" x1="628" y1="240" x2="655" y2="240"/>
		
			<line fill="none" stroke="#D0E1FA" stroke-width="2" stroke-linecap="round" stroke-linejoin="round" stroke-miterlimit="10" x1="622" y1="240" x2="623" y2="240"/>
		
			<line fill="none" stroke="#D0E1FA" stroke-width="2" stroke-linecap="round" stroke-linejoin="round" stroke-miterlimit="10" x1="628" y1="219" x2="674" y2="219"/>
		
			<line fill="none" stroke="#D0E1FA" stroke-width="2" stroke-linecap="round" stroke-linejoin="round" stroke-miterlimit="10" x1="622" y1="219" x2="623" y2="219"/>
		
			<line fill="none" stroke="#D0E1FA" stroke-width="2" stroke-linecap="round" stroke-linejoin="round" stroke-miterlimit="10" x1="628" y1="229" x2="669" y2="229"/>
		
			<line fill="none" stroke="#D0E1FA" stroke-width="2" stroke-linecap="round" stroke-linejoin="round" stroke-miterlimit="10" x1="622" y1="229" x2="623" y2="229"/>
	</g>
	<g id="Layer_72">
		<path fill="#FFFFFF" d="M648,466.587c0,3.623-2.856,6.413-6.481,6.413h-81.475c-3.625,0-7.044-2.79-7.044-6.413V352.109
			c0-3.623,3.419-6.109,7.044-6.109h72.675L648,360.909V466.587z"/>
		<path fill="#D0E1FA" d="M648.081,361h-8.838c-3.624,0-6.243-2.99-6.243-6.613v-8.839L648.081,361z"/>
		<g>
			<path fill="#3B84F2" d="M629,376h-46c-0.553,0-1-0.447-1-1s0.447-1,1-1h46c0.553,0,1,0.447,1,1S629.553,376,629,376z"/>
		</g>
		<g>
			<path fill="#3B84F2" d="M610,382h-27c-0.553,0-1-0.447-1-1s0.447-1,1-1h27c0.553,0,1,0.447,1,1S610.553,382,610,382z"/>
		</g>
		<g>
			<path fill="#3B84F2" d="M571.59,381.514c-0.256,0-0.512-0.098-0.707-0.293l-4.183-4.183c-0.391-0.391-0.391-1.023,0-1.414
				s1.023-0.391,1.414,0l3.476,3.476l5.15-5.149c0.391-0.391,1.023-0.391,1.414,0s0.391,1.023,0,1.414l-5.857,5.856
				C572.102,381.416,571.846,381.514,571.59,381.514z"/>
		</g>
		<g>
			<path fill="#3B84F2" d="M629,394h-46c-0.553,0-1-0.447-1-1s0.447-1,1-1h46c0.553,0,1,0.447,1,1S629.553,394,629,394z"/>
		</g>
		<g>
			<path fill="#3B84F2" d="M610,399h-27c-0.553,0-1-0.447-1-1s0.447-1,1-1h27c0.553,0,1,0.447,1,1S610.553,399,610,399z"/>
		</g>
		<g>
			<path fill="#3B84F2" d="M571.59,399.114L571.59,399.114c-0.266,0-0.52-0.105-0.707-0.293l-4.183-4.184
				c-0.391-0.391-0.391-1.023,0-1.414s1.023-0.391,1.414,0l3.476,3.477l5.15-5.15c0.391-0.391,1.023-0.391,1.414,0
				s0.391,1.023,0,1.414l-5.857,5.857C572.109,399.009,571.855,399.114,571.59,399.114z"/>
		</g>
		<g>
			<path fill="#3B84F2" d="M629,413h-46c-0.553,0-1-0.447-1-1s0.447-1,1-1h46c0.553,0,1,0.447,1,1S629.553,413,629,413z"/>
		</g>
		<g>
			<path fill="#3B84F2" d="M610,418h-27c-0.553,0-1-0.447-1-1s0.447-1,1-1h27c0.553,0,1,0.447,1,1S610.553,418,610,418z"/>
		</g>
		<g>
			<path fill="#3B84F2" d="M571.59,417.813c-0.256,0-0.512-0.098-0.707-0.293l-4.183-4.183c-0.391-0.391-0.391-1.023,0-1.414
				s1.023-0.391,1.414,0l3.476,3.476l5.15-5.149c0.391-0.391,1.023-0.391,1.414,0s0.391,1.023,0,1.414l-5.857,5.856
				C572.102,417.716,571.846,417.813,571.59,417.813z"/>
		</g>
	</g>
	<g id="Layer_75">
		<g>
			<g>
				<path fill="#3B84F2" d="M628.068,454.838c-0.157,0-0.314-0.037-0.458-0.111l-6.999-3.595c-0.334-0.171-0.545-0.516-0.544-0.892
					c0.001-0.375,0.212-0.719,0.547-0.89l6.996-3.578c0.287-0.148,0.629-0.148,0.916,0l6.997,3.578
					c0.335,0.17,0.546,0.514,0.547,0.89s-0.21,0.721-0.544,0.892l-7,3.595C628.383,454.801,628.226,454.838,628.068,454.838z
					 M623.267,450.246l4.802,2.467l4.802-2.467l-4.802-2.46L623.267,450.246z"/>
			</g>
			<g>
				<path fill="#3B84F2" d="M628.068,462.015c-0.182,0-0.362-0.049-0.521-0.146c-0.298-0.183-0.479-0.505-0.479-0.854v-7.177
					c0-0.375,0.21-0.718,0.543-0.89l7-3.595c0.31-0.16,0.681-0.147,0.979,0.034c0.299,0.182,0.48,0.506,0.48,0.854v7.191
					c0,0.376-0.21,0.72-0.545,0.891l-7.002,3.581C628.381,461.979,628.225,462.015,628.068,462.015z M629.068,454.448v4.932
					l5.002-2.558v-4.938L629.068,454.448z"/>
			</g>
			<g>
				<path fill="#3B84F2" d="M628.068,462.015c-0.156,0-0.313-0.036-0.455-0.109l-7.001-3.581c-0.335-0.171-0.545-0.516-0.545-0.891
					v-7.191c0-0.349,0.182-0.672,0.479-0.854s0.668-0.196,0.978-0.036l7.003,3.597c0.333,0.171,0.542,0.514,0.542,0.889v7.177
					c0,0.349-0.181,0.671-0.479,0.854C628.431,461.966,628.25,462.015,628.068,462.015z M622.067,456.822l5.001,2.558v-4.932
					l-5.001-2.57V456.822z"/>
			</g>
		</g>
	</g>
	<g id="Layer_73">
		<g>
			<g>
				<g>
					<g>
						<rect x="282.858" y="407.776" fill-rule="evenodd" clip-rule="evenodd" fill="#3B84F2" width="8.519" height="49.061"/>
					</g>
				</g>
				<g>
					<g>
						<rect x="295.444" y="407.776" fill-rule="evenodd" clip-rule="evenodd" fill="#3B84F2" width="3.654" height="49.061"/>
					</g>
				</g>
				<g>
					<g>
						<rect x="309.484" y="407.776" fill-rule="evenodd" clip-rule="evenodd" fill="#3B84F2" width="5.661" height="49.061"/>
					</g>
				</g>
				<g>
					<g>
						<rect x="317.243" y="407.776" fill-rule="evenodd" clip-rule="evenodd" fill="#3B84F2" width="2.558" height="49.061"/>
					</g>
				</g>
				<g>
					<g>
						<rect x="325.56" y="407.776" fill-rule="evenodd" clip-rule="evenodd" fill="#3B84F2" width="2.558" height="49.061"/>
					</g>
				</g>
				<g>
					<g>
						<rect x="331.804" y="407.776" fill-rule="evenodd" clip-rule="evenodd" fill="#3B84F2" width="11.191" height="49.061"/>
					</g>
				</g>
				<g>
					<g>
						<rect x="347.138" y="407.776" fill-rule="evenodd" clip-rule="evenodd" fill="#3B84F2" width="5.597" height="49.061"/>
					</g>
				</g>
				<g>
					<g>
						<rect x="361.009" y="407.776" fill-rule="evenodd" clip-rule="evenodd" fill="#3B84F2" width="1.374" height="49.061"/>
					</g>
				</g>
				<g>
					<g>
						<rect x="364.38" y="407.776" fill-rule="evenodd" clip-rule="evenodd" fill="#3B84F2" width="3.781" height="49.061"/>
					</g>
				</g>
				<g>
					<g>
						<rect x="373.718" y="407.776" fill-rule="evenodd" clip-rule="evenodd" fill="#3B84F2" width="2.658" height="49.061"/>
					</g>
				</g>
				<g>
					<g>
						<rect x="382.112" y="407.776" fill-rule="evenodd" clip-rule="evenodd" fill="#3B84F2" width="11.077" height="49.061"/>
					</g>
				</g>
				<g>
					<g>
						<rect x="399.007" y="407.776" fill-rule="evenodd" clip-rule="evenodd" fill="#3B84F2" width="2.574" height="60.201"/>
					</g>
				</g>
				<g>
					<g>
						<rect x="273.247" y="407.776" fill-rule="evenodd" clip-rule="evenodd" fill="#3B84F2" width="2.575" height="60.201"/>
					</g>
				</g>
				<g>
					<g>
						<g>
							<path fill="#3B84F2" d="M283.06,464.597c0-0.812,0.082-1.464,0.25-1.957c0.165-0.494,0.415-0.877,0.743-1.144
								c0.329-0.268,0.742-0.402,1.24-0.402c0.368,0,0.69,0.075,0.969,0.224c0.277,0.147,0.505,0.361,0.688,0.641
								c0.181,0.277,0.322,0.618,0.423,1.019c0.104,0.401,0.155,0.94,0.155,1.62c0,0.803-0.083,1.451-0.247,1.945
								c-0.166,0.494-0.414,0.875-0.741,1.146c-0.33,0.27-0.744,0.404-1.246,0.404c-0.66,0-1.179-0.235-1.556-0.712
								C283.285,466.812,283.06,465.882,283.06,464.597L283.06,464.597z M283.924,464.597c0,1.124,0.131,1.871,0.396,2.245
								c0.261,0.372,0.587,0.559,0.973,0.559c0.387,0,0.711-0.188,0.975-0.563c0.264-0.373,0.396-1.119,0.396-2.241
								c0-1.129-0.132-1.879-0.396-2.249c-0.264-0.371-0.592-0.557-0.983-0.557c-0.387,0-0.696,0.164-0.926,0.492
								C284.069,462.699,283.924,463.471,283.924,464.597L283.924,464.597z M291.551,467.976h-0.841v-5.361
								c-0.202,0.193-0.468,0.387-0.796,0.58c-0.33,0.192-0.625,0.338-0.887,0.434v-0.813c0.471-0.221,0.881-0.488,1.235-0.805
								c0.35-0.315,0.601-0.619,0.747-0.916h0.541V467.976L291.551,467.976z M296.365,464.597c0-0.812,0.084-1.464,0.252-1.957
								c0.166-0.494,0.414-0.877,0.743-1.144c0.329-0.268,0.741-0.402,1.238-0.402c0.37,0,0.692,0.075,0.971,0.224
								c0.276,0.147,0.505,0.361,0.688,0.641c0.179,0.277,0.321,0.618,0.423,1.019c0.105,0.401,0.156,0.94,0.156,1.62
								c0,0.803-0.083,1.451-0.249,1.945s-0.412,0.875-0.741,1.146c-0.328,0.27-0.743,0.404-1.247,0.404
								c-0.659,0-1.178-0.235-1.555-0.712C296.594,466.812,296.365,465.882,296.365,464.597L296.365,464.597z M297.23,464.597
								c0,1.124,0.133,1.871,0.396,2.245c0.265,0.372,0.587,0.559,0.973,0.559c0.388,0,0.714-0.188,0.976-0.563
								c0.264-0.373,0.396-1.119,0.396-2.241c0-1.129-0.132-1.879-0.396-2.249c-0.262-0.371-0.59-0.557-0.982-0.557
								c-0.387,0-0.696,0.164-0.928,0.492C297.377,462.699,297.23,463.471,297.23,464.597L297.23,464.597z M307.518,467.976h-0.841
								v-5.361c-0.203,0.193-0.468,0.387-0.796,0.58c-0.329,0.192-0.625,0.338-0.887,0.434v-0.813
								c0.47-0.221,0.882-0.488,1.235-0.805c0.35-0.315,0.602-0.619,0.747-0.916h0.541V467.976L307.518,467.976z M309.674,464.597
								c0-0.812,0.082-1.464,0.251-1.957c0.165-0.494,0.413-0.877,0.742-1.144c0.328-0.268,0.743-0.402,1.24-0.402
								c0.367,0,0.689,0.075,0.968,0.224c0.277,0.147,0.505,0.361,0.688,0.641c0.18,0.277,0.321,0.618,0.424,1.019
								c0.104,0.401,0.154,0.94,0.154,1.62c0,0.803-0.082,1.451-0.247,1.945s-0.412,0.875-0.742,1.146
								c-0.327,0.27-0.743,0.404-1.245,0.404c-0.661,0-1.18-0.235-1.556-0.712C309.899,466.812,309.674,465.882,309.674,464.597
								L309.674,464.597z M310.537,464.597c0,1.124,0.133,1.871,0.397,2.245c0.263,0.372,0.586,0.559,0.973,0.559
								s0.711-0.188,0.975-0.563c0.263-0.373,0.396-1.119,0.396-2.241c0-1.129-0.133-1.879-0.396-2.249
								c-0.264-0.371-0.591-0.557-0.983-0.557c-0.387,0-0.695,0.164-0.928,0.492C310.684,462.699,310.537,463.471,310.537,464.597
								L310.537,464.597z M318.166,467.976h-0.841v-5.361c-0.203,0.193-0.469,0.387-0.797,0.58
								c-0.329,0.192-0.625,0.338-0.887,0.434v-0.813c0.471-0.221,0.882-0.488,1.235-0.805c0.35-0.315,0.602-0.619,0.747-0.916
								h0.542V467.976L318.166,467.976z M326.149,467.976h-0.842v-5.361c-0.201,0.193-0.467,0.387-0.795,0.58
								c-0.331,0.192-0.627,0.338-0.888,0.434v-0.813c0.472-0.221,0.883-0.488,1.235-0.805c0.351-0.315,0.602-0.619,0.749-0.916
								h0.54V467.976L326.149,467.976z M328.305,464.597c0-0.812,0.082-1.464,0.251-1.957c0.165-0.494,0.415-0.877,0.743-1.144
								c0.329-0.268,0.741-0.402,1.24-0.402c0.368,0,0.689,0.075,0.969,0.224c0.276,0.147,0.505,0.361,0.688,0.641
								c0.181,0.277,0.321,0.618,0.423,1.019c0.104,0.401,0.155,0.94,0.155,1.62c0,0.803-0.083,1.451-0.247,1.945
								c-0.167,0.494-0.415,0.875-0.742,1.146c-0.329,0.27-0.745,0.404-1.245,0.404c-0.662,0-1.18-0.235-1.557-0.712
								C328.531,466.812,328.305,465.882,328.305,464.597L328.305,464.597z M329.169,464.597c0,1.124,0.132,1.871,0.396,2.245
								c0.264,0.372,0.587,0.559,0.974,0.559s0.71-0.188,0.974-0.563c0.264-0.373,0.395-1.119,0.395-2.241
								c0-1.129-0.131-1.879-0.395-2.249c-0.264-0.371-0.591-0.557-0.982-0.557c-0.388,0-0.696,0.164-0.927,0.492
								C329.314,462.699,329.169,463.471,329.169,464.597L329.169,464.597z M336.288,464.597c0-0.812,0.083-1.464,0.251-1.957
								c0.166-0.494,0.414-0.877,0.742-1.144c0.329-0.268,0.741-0.402,1.24-0.402c0.367,0,0.69,0.075,0.969,0.224
								c0.278,0.147,0.505,0.361,0.688,0.641c0.18,0.277,0.322,0.618,0.424,1.019c0.104,0.401,0.154,0.94,0.154,1.62
								c0,0.803-0.083,1.451-0.246,1.945c-0.166,0.494-0.415,0.875-0.741,1.146c-0.331,0.27-0.744,0.404-1.247,0.404
								c-0.66,0-1.179-0.235-1.556-0.712C336.514,466.812,336.288,465.882,336.288,464.597L336.288,464.597z M337.151,464.597
								c0,1.124,0.134,1.871,0.396,2.245c0.264,0.372,0.588,0.559,0.974,0.559c0.388,0,0.711-0.188,0.974-0.563
								c0.264-0.373,0.396-1.119,0.396-2.241c0-1.129-0.133-1.879-0.396-2.249c-0.263-0.371-0.588-0.557-0.982-0.557
								c-0.388,0-0.695,0.164-0.927,0.492C337.298,462.699,337.151,463.471,337.151,464.597L337.151,464.597z M344.779,467.976
								h-0.84v-5.361c-0.203,0.193-0.467,0.387-0.797,0.58c-0.33,0.192-0.624,0.338-0.887,0.434v-0.813
								c0.47-0.221,0.881-0.488,1.233-0.805c0.353-0.315,0.603-0.619,0.75-0.916h0.54V467.976L344.779,467.976z M352.764,467.976
								h-0.842v-5.361c-0.202,0.193-0.466,0.387-0.796,0.58c-0.33,0.192-0.624,0.338-0.886,0.434v-0.813
								c0.47-0.221,0.882-0.488,1.235-0.805c0.35-0.315,0.601-0.619,0.746-0.916h0.542V467.976L352.764,467.976z M357.377,467.976
								h-0.84v-5.361c-0.203,0.193-0.469,0.387-0.797,0.58c-0.33,0.192-0.624,0.338-0.888,0.434v-0.813
								c0.472-0.221,0.883-0.488,1.235-0.805c0.353-0.315,0.602-0.619,0.749-0.916h0.54V467.976L357.377,467.976z M362.191,464.597
								c0-0.812,0.085-1.464,0.252-1.957c0.165-0.494,0.414-0.877,0.743-1.144c0.327-0.268,0.741-0.402,1.239-0.402
								c0.367,0,0.689,0.075,0.969,0.224c0.277,0.147,0.504,0.361,0.687,0.641c0.181,0.277,0.322,0.618,0.426,1.019
								c0.104,0.401,0.153,0.94,0.153,1.62c0,0.803-0.081,1.451-0.247,1.945c-0.165,0.494-0.412,0.875-0.741,1.146
								c-0.328,0.27-0.744,0.404-1.246,0.404c-0.66,0-1.18-0.235-1.557-0.712C362.418,466.812,362.191,465.882,362.191,464.597
								L362.191,464.597z M363.058,464.597c0,1.124,0.132,1.871,0.395,2.245c0.263,0.372,0.587,0.559,0.974,0.559
								c0.388,0,0.711-0.188,0.975-0.563c0.263-0.373,0.396-1.119,0.396-2.241c0-1.129-0.134-1.879-0.396-2.249
								c-0.264-0.371-0.59-0.557-0.983-0.557c-0.388,0-0.694,0.164-0.928,0.492C363.201,462.699,363.058,463.471,363.058,464.597
								L363.058,464.597z M367.516,464.597c0-0.812,0.084-1.464,0.251-1.957c0.166-0.494,0.415-0.877,0.742-1.144
								c0.33-0.268,0.745-0.402,1.24-0.402c0.368,0,0.69,0.075,0.97,0.224c0.277,0.147,0.505,0.361,0.687,0.641
								c0.182,0.277,0.322,0.618,0.424,1.019c0.104,0.401,0.156,0.94,0.156,1.62c0,0.803-0.085,1.451-0.248,1.945
								c-0.166,0.494-0.413,0.875-0.741,1.146c-0.331,0.27-0.744,0.404-1.247,0.404c-0.66,0-1.178-0.235-1.555-0.712
								C367.743,466.812,367.516,465.882,367.516,464.597L367.516,464.597z M368.381,464.597c0,1.124,0.133,1.871,0.395,2.245
								c0.264,0.372,0.588,0.559,0.974,0.559c0.389,0,0.712-0.188,0.977-0.563c0.261-0.373,0.394-1.119,0.394-2.241
								c0-1.129-0.133-1.879-0.394-2.249c-0.265-0.371-0.591-0.557-0.983-0.557c-0.389,0-0.696,0.164-0.928,0.492
								C368.527,462.699,368.381,463.471,368.381,464.597L368.381,464.597z M378.667,467.976h-0.84v-5.361
								c-0.203,0.193-0.468,0.387-0.796,0.58c-0.331,0.192-0.627,0.338-0.887,0.434v-0.813c0.471-0.221,0.882-0.488,1.234-0.805
								c0.351-0.315,0.601-0.619,0.748-0.916h0.54V467.976L378.667,467.976z M383.482,464.597c0-0.812,0.084-1.464,0.251-1.957
								c0.166-0.494,0.415-0.877,0.744-1.144c0.327-0.268,0.741-0.402,1.239-0.402c0.367,0,0.689,0.075,0.968,0.224
								c0.276,0.147,0.506,0.361,0.688,0.641c0.18,0.277,0.321,0.618,0.424,1.019c0.104,0.401,0.155,0.94,0.155,1.62
								c0,0.803-0.084,1.451-0.248,1.945c-0.165,0.494-0.411,0.875-0.742,1.146c-0.327,0.27-0.742,0.404-1.244,0.404
								c-0.66,0-1.18-0.235-1.557-0.712C383.708,466.812,383.482,465.882,383.482,464.597L383.482,464.597z M384.348,464.597
								c0,1.124,0.132,1.871,0.396,2.245c0.263,0.372,0.587,0.559,0.974,0.559c0.388,0,0.711-0.188,0.975-0.563
								c0.263-0.373,0.396-1.119,0.396-2.241c0-1.129-0.134-1.879-0.396-2.249c-0.264-0.371-0.592-0.557-0.983-0.557
								c-0.388,0-0.695,0.164-0.927,0.492C384.492,462.699,384.348,463.471,384.348,464.597L384.348,464.597z M391.976,467.976
								h-0.84v-5.361c-0.204,0.193-0.469,0.387-0.798,0.58c-0.33,0.192-0.626,0.338-0.886,0.434v-0.813
								c0.47-0.221,0.882-0.488,1.233-0.805c0.351-0.315,0.603-0.619,0.748-0.916h0.542V467.976z"/>
						</g>
					</g>
				</g>
			</g>
		</g>
	</g>
</g>
<g id="_x34_-toistuva_laskutus">
	<g id="Layer_34">
		<g id="Layer_43">
		</g>
		<g id="Layer_42">
		</g>
	</g>
	<g id="Layer_36">
	</g>
	<g id="Layer_38">
	</g>
	<g id="Layer_37">
	</g>
	<g id="Layer_39">
	</g>
	<g id="Layer_40_copy_2">
	</g>
	<g id="Layer_40_copy_3">
	</g>
</g>
<g id="_x33_-Ryhmälaskutus">
	<g id="Layer_25">
	</g>
	<g id="Layer_27">
	</g>
	<g id="Layer_29">
	</g>
	<g id="Layer_28">
	</g>
	<g id="Layer_30">
	</g>
	<g id="Layer_31">
	</g>
	<g id="Layer_32">
	</g>
	<g id="Layer_35">
	</g>
</g>
<g id="_x32_-Puhelinsovellus">
	<g id="Layer_1">
	</g>
	<g id="Layer_2">
	</g>
	<g id="Layer_3">
	</g>
	<g id="luuri">
	</g>
	<g id="Layer_10">
	</g>
	<g id="Layer_13">
	</g>
	<g id="Layer_12">
	</g>
	<g id="credit-card">
	</g>
	<g id="Layer_14">
	</g>
	<g id="lasku">
		<g id="Layer_6">
		</g>
	</g>
	<g id="kansio">
	</g>
	<g id="Layer_11">
	</g>
	<g id="Layer_71">
	</g>
</g>
<g id="_x31_-sahkopostilasku">
	<g id="Layer_16">
		<g id="Layer_17">
		</g>
	</g>
	<g id="Layer_20">
	</g>
	<g id="Layer_21">
	</g>
	<g id="Layer_19">
	</g>
</g>
</svg>
