<?xml version="1.0" encoding="utf-8"?>
<!-- Generator: Adobe Illustrator 16.0.3, SVG Export Plug-In . SVG Version: 6.00 Build 0)  -->
<!DOCTYPE svg PUBLIC "-//W3C//DTD SVG 1.1//EN" "http://www.w3.org/Graphics/SVG/1.1/DTD/svg11.dtd">
<svg version="1.1" xmlns="http://www.w3.org/2000/svg" xmlns:xlink="http://www.w3.org/1999/xlink" x="0px" y="0px" width="940px"
	 height="660px" viewBox="0 0 940 660" enable-background="new 0 0 940 660" xml:space="preserve">
<g id="_x38_-raportointi">
	<g id="Layer_59">
	</g>
	<g id="Layer_67">
	</g>
	<g id="Layer_62">
	</g>
	<g id="Layer_61">
	</g>
	<g id="Layer_60">
	</g>
	<g id="Layer_63">
	</g>
	<g id="Layer_64">
	</g>
	<g id="Layer_65">
	</g>
	<g id="Layer_74">
	</g>
</g>
<g id="_x37_-liitearkisto">
	<g id="Layer_44">
		<g id="Layer_48">
		</g>
		<g id="Layer_46">
		</g>
	</g>
	<g id="Layer_55">
	</g>
	<g id="Layer_49">
	</g>
	<g id="Layer_47">
	</g>
	<g id="Layer_50">
	</g>
	<g id="Layer_51">
	</g>
	<g id="Layer_52">
	</g>
	<g id="Layer_53">
	</g>
	<g id="Layer_56">
	</g>
	<g id="Layer_57">
	</g>
	<g id="Layer_58">
	</g>
</g>
<g id="_x36_-Asiakasrekisteri">
	<g id="Layer_78">
	</g>
	<g id="Layer_80">
	</g>
	<g id="Layer_81">
	</g>
	<g id="Layer_82">
	</g>
	<g id="Layer_83">
	</g>
	<g id="Layer_84">
	</g>
</g>
<g id="_x35_-Tuoterekisteri">
	<g id="Layer_76">
	</g>
	<g id="Layer_69">
	</g>
	<g id="Layer_70">
	</g>
	<g id="Layer_66">
	</g>
	<g id="Layer_72">
	</g>
	<g id="Layer_75">
	</g>
	<g id="Layer_73">
	</g>
</g>
<g id="_x34_-toistuva_laskutus">
	<rect fill="#EEF5FF" width="940" height="660"/>
	<g id="Layer_34">
		<g>
			<g>
				<path fill="#FFFFFF" d="M586.726,254H368.384C356.41,254,347,264.363,347,276.34V407.44c0,11.976,9.41,21.56,21.384,21.56
					h218.342c11.973,0,21.274-9.584,21.274-21.56V276.34C608,264.363,598.698,254,586.726,254z"/>
			</g>
		</g>
		<g>
			<g>
				<path fill="#2E6AE5" d="M586.726,219H368.384C356.41,219,347,228.016,347,239.992V280h261v-40.008
					C608,228.016,598.698,219,586.726,219z"/>
			</g>
		</g>
		<g id="Layer_43">
			<g>
				<g>
					<circle fill="#D0E1FA" cx="380.5" cy="236.879" r="5.5"/>
				</g>
			</g>
			<g>
				<g>
					<circle fill="#D0E1FA" cx="413.5" cy="236.879" r="5.5"/>
				</g>
			</g>
			<g>
				<g>
					<path fill="#D0E1FA" d="M450.901,236.879c0,3.04-2.465,5.501-5.5,5.501c-3.041,0-5.503-2.461-5.503-5.501
						s2.462-5.499,5.503-5.499C448.437,231.38,450.901,233.839,450.901,236.879z"/>
				</g>
			</g>
			<g>
				<g>
					<circle fill="#D0E1FA" cx="478.4" cy="236.879" r="5.5"/>
				</g>
			</g>
			<g>
				<g>
					<circle fill="#D0E1FA" cx="508.1" cy="236.879" r="5.5"/>
				</g>
			</g>
			<g>
				<g>
					<circle fill="#D0E1FA" cx="540" cy="236.879" r="5.5"/>
				</g>
			</g>
			<g>
				<g>
					<circle fill="#D0E1FA" cx="573" cy="236.879" r="5.5"/>
				</g>
			</g>
		</g>
		<g id="Layer_42">
			<g>
				<g>
					<path fill="#3B84F2" d="M380.5,239.5c-1.381,0-2.5-1.119-2.5-2.5v-22c0-1.381,1.119-2.5,2.5-2.5s2.5,1.119,2.5,2.5v22
						C383,238.381,381.881,239.5,380.5,239.5z"/>
				</g>
			</g>
			<g>
				<g>
					<path fill="#3B84F2" d="M413.5,239.5c-1.381,0-2.5-1.119-2.5-2.5v-22c0-1.381,1.119-2.5,2.5-2.5s2.5,1.119,2.5,2.5v22
						C416,238.381,414.881,239.5,413.5,239.5z"/>
				</g>
			</g>
			<g>
				<g>
					<path fill="#3B84F2" d="M445.5,239.5c-1.381,0-2.5-1.119-2.5-2.5v-22c0-1.381,1.119-2.5,2.5-2.5s2.5,1.119,2.5,2.5v22
						C448,238.381,446.881,239.5,445.5,239.5z"/>
				</g>
			</g>
			<g>
				<g>
					<path fill="#3B84F2" d="M478.5,239.5c-1.381,0-2.5-1.119-2.5-2.5v-22c0-1.381,1.119-2.5,2.5-2.5s2.5,1.119,2.5,2.5v22
						C481,238.381,479.881,239.5,478.5,239.5z"/>
				</g>
			</g>
			<g>
				<g>
					<path fill="#3B84F2" d="M507.5,239.5c-1.381,0-2.5-1.119-2.5-2.5v-22c0-1.381,1.119-2.5,2.5-2.5s2.5,1.119,2.5,2.5v22
						C510,238.381,508.881,239.5,507.5,239.5z"/>
				</g>
			</g>
			<g>
				<g>
					<path fill="#3B84F2" d="M539.5,239.5c-1.381,0-2.5-1.119-2.5-2.5v-22c0-1.381,1.119-2.5,2.5-2.5s2.5,1.119,2.5,2.5v22
						C542,238.381,540.881,239.5,539.5,239.5z"/>
				</g>
			</g>
			<g>
				<g>
					<path fill="#3B84F2" d="M572.5,239.5c-1.381,0-2.5-1.119-2.5-2.5v-22c0-1.381,1.119-2.5,2.5-2.5s2.5,1.119,2.5,2.5v22
						C575,238.381,573.881,239.5,572.5,239.5z"/>
				</g>
			</g>
		</g>
		<g>
			<g>
				<path fill="#2E6AE5" d="M430.211,309.479c0,5.603-4.543,10.14-10.143,10.14c-5.601,0-10.142-4.537-10.142-10.14
					c0-5.604,4.541-10.137,10.142-10.137C425.668,299.342,430.211,303.875,430.211,309.479z"/>
			</g>
		</g>
		<g>
			<g>
				<circle fill="#D0E1FA" cx="458.6" cy="309.479" r="7.574"/>
			</g>
		</g>
		<g>
			<g>
				<circle fill="#D0E1FA" cx="497.127" cy="309.479" r="7.575"/>
			</g>
		</g>
		<g>
			<g>
				<circle fill="#D0E1FA" cx="535.658" cy="309.479" r="7.575"/>
			</g>
		</g>
		<g>
			<g>
				<circle fill="#D0E1FA" cx="574.185" cy="309.479" r="7.575"/>
			</g>
		</g>
		<g>
			<g>
				<path fill="#D0E1FA" d="M389.117,338.557c0,4.186-3.395,7.575-7.574,7.575c-4.187,0-7.575-3.39-7.575-7.575
					c0-4.184,3.389-7.57,7.575-7.57C385.723,330.986,389.117,334.373,389.117,338.557z"/>
			</g>
		</g>
		<g>
			<g>
				<circle fill="#D0E1FA" cx="420.069" cy="338.557" r="7.576"/>
			</g>
		</g>
		<g>
			<g>
				<circle fill="#D0E1FA" cx="458.6" cy="338.557" r="7.574"/>
			</g>
		</g>
		<g>
			<g>
				<circle fill="#D0E1FA" cx="497.127" cy="338.557" r="7.575"/>
			</g>
		</g>
		<g>
			<g>
				<circle fill="#D0E1FA" cx="535.658" cy="338.557" r="7.575"/>
			</g>
		</g>
		<g>
			<g>
				<circle fill="#D0E1FA" cx="574.185" cy="338.557" r="7.575"/>
			</g>
		</g>
		<g>
			<g>
				<path fill="#D0E1FA" d="M389.117,367.635c0,4.186-3.395,7.575-7.574,7.575c-4.187,0-7.575-3.39-7.575-7.575
					c0-4.184,3.389-7.571,7.575-7.571C385.723,360.063,389.117,363.451,389.117,367.635z"/>
			</g>
		</g>
		<g>
			<g>
				<circle fill="#D0E1FA" cx="420.069" cy="367.635" r="7.576"/>
			</g>
		</g>
		<g>
			<g>
				<circle fill="#D0E1FA" cx="458.6" cy="367.635" r="7.574"/>
			</g>
		</g>
		<g>
			<g>
				<circle fill="#2E6AE5" cx="497.127" cy="367.634" r="10.139"/>
			</g>
		</g>
		<g>
			<g>
				<circle fill="#D0E1FA" cx="535.658" cy="367.635" r="7.575"/>
			</g>
		</g>
		<g>
			<g>
				<circle fill="#D0E1FA" cx="574.185" cy="367.635" r="7.575"/>
			</g>
		</g>
		<g>
			<g>
				<path fill="#D0E1FA" d="M389.117,396.713c0,4.186-3.395,7.575-7.574,7.575c-4.187,0-7.575-3.39-7.575-7.575
					c0-4.185,3.389-7.571,7.575-7.571C385.723,389.142,389.117,392.528,389.117,396.713z"/>
			</g>
		</g>
		<g>
			<g>
				<circle fill="#D0E1FA" cx="420.069" cy="396.713" r="7.576"/>
			</g>
		</g>
		<g>
			<g>
				<circle fill="#D0E1FA" cx="458.6" cy="396.713" r="7.574"/>
			</g>
		</g>
		<g>
			<g>
				<circle fill="#D0E1FA" cx="497.127" cy="396.713" r="7.575"/>
			</g>
		</g>
		<g>
			<g>
				<path fill="#FFFFFF" d="M418.926,313.983c-0.256,0-0.512-0.098-0.707-0.293l-3.907-3.906c-0.391-0.39-0.391-1.023,0-1.414
					s1.023-0.391,1.414,0l3.2,3.199l4.764-4.764c0.391-0.391,1.023-0.391,1.414,0s0.391,1.023,0,1.414l-5.471,5.471
					C419.438,313.886,419.182,313.983,418.926,313.983z"/>
			</g>
		</g>
		<g>
			<g>
				<path fill="#FFFFFF" d="M497.025,371.184c-0.256,0-0.512-0.098-0.707-0.293l-3.906-3.906c-0.391-0.391-0.391-1.023,0-1.414
					s1.023-0.391,1.414,0l3.199,3.199l4.765-4.764c0.391-0.391,1.023-0.391,1.414,0s0.391,1.023,0,1.414l-5.472,5.471
					C497.537,371.086,497.281,371.184,497.025,371.184z"/>
			</g>
		</g>
	</g>
	<g id="Layer_36">
		<circle fill="#D0E1FA" cx="293.663" cy="244.692" r="30.338"/>
		<g>
			<path fill="#3B84F2" d="M293,226c-0.553,0-1-0.448-1-1v-6c0-0.552,0.447-1,1-1s1,0.448,1,1v6C294,225.552,293.553,226,293,226z"
				/>
		</g>
		<g>
			<path fill="#3B84F2" d="M293,271c-0.553,0-1-0.448-1-1v-5c0-0.552,0.447-1,1-1s1,0.448,1,1v5C294,270.552,293.553,271,293,271z"
				/>
		</g>
		<g>
			<path fill="#3B84F2" d="M319,248h-5c-0.553,0-1-0.448-1-1s0.447-1,1-1h5c0.553,0,1,0.448,1,1S319.553,248,319,248z"/>
		</g>
		<g>
			<path fill="#3B84F2" d="M273,248h-4c-0.553,0-1-0.448-1-1s0.447-1,1-1h4c0.553,0,1,0.448,1,1S273.553,248,273,248z"/>
		</g>
		<g>
			<path fill="#3B84F2" d="M309.504,230.223c-0.256,0-0.512-0.098-0.707-0.292c-0.391-0.391-0.391-1.024,0-1.415l1.384-1.385
				c0.391-0.391,1.023-0.39,1.414,0c0.391,0.391,0.391,1.024,0,1.415l-1.384,1.385C310.016,230.125,309.76,230.223,309.504,230.223z
				"/>
		</g>
		<g>
			<path fill="#3B84F2" d="M275.821,263.905c-0.256,0-0.512-0.098-0.707-0.293c-0.391-0.391-0.391-1.024,0-1.415l1.385-1.384
				c0.391-0.39,1.023-0.39,1.414,0s0.391,1.024,0,1.415l-1.385,1.384C276.333,263.808,276.077,263.905,275.821,263.905z"/>
		</g>
		<g>
			<path fill="#3B84F2" d="M310.427,263.905c-0.256,0-0.512-0.098-0.707-0.293l-1.384-1.384c-0.391-0.391-0.391-1.023,0-1.414
				s1.023-0.391,1.414,0l1.384,1.384c0.391,0.391,0.391,1.023,0,1.414C310.938,263.808,310.683,263.905,310.427,263.905z"/>
		</g>
		<g>
			<path fill="#3B84F2" d="M276.744,230.223c-0.256,0-0.512-0.098-0.707-0.292l-1.386-1.385c-0.391-0.391-0.391-1.024,0-1.415
				s1.023-0.39,1.414,0l1.386,1.385c0.391,0.391,0.391,1.024,0,1.415C277.256,230.125,277,230.223,276.744,230.223z"/>
		</g>
		<g>
			<path fill="#2E6AE5" d="M293.081,245.208c-0.217,0-0.43-0.071-0.605-0.204l-8.405-6.394c-0.439-0.334-0.524-0.962-0.19-1.401
				c0.333-0.439,0.962-0.525,1.401-0.19l7.5,5.705l7.702-13.384c0.276-0.479,0.887-0.643,1.366-0.368
				c0.479,0.275,0.644,0.887,0.368,1.365l-8.27,14.37c-0.144,0.25-0.388,0.425-0.669,0.482
				C293.213,245.202,293.146,245.208,293.081,245.208z"/>
		</g>
		<circle fill="#3B84F2" cx="293.662" cy="244.692" r="2.5"/>
	</g>
	<g id="Layer_38">
		<g>
			<g>
				<path fill="#BAD3F8" d="M687.402,408.153c0.616-0.525,1.001-1.226,1.155-2.099c0.077-0.308,0.256-0.436,0.539-0.385l4.427,0.809
					c0.154,0.025,0.264,0.084,0.328,0.173c0.063,0.091,0.083,0.212,0.058,0.366c-0.334,2.027-1.284,3.632-2.85,4.813
					s-3.555,1.771-5.967,1.771c-1.771,0-3.331-0.353-4.678-1.059c-1.348-0.705-2.394-1.706-3.138-3.003
					c-0.745-1.296-1.117-2.804-1.117-4.523v-1.386c0-0.129-0.064-0.193-0.192-0.193h-2.464c-0.129,0-0.237-0.044-0.327-0.135
					c-0.09-0.089-0.135-0.198-0.135-0.327v-1.925c0-0.128,0.045-0.237,0.135-0.327s0.198-0.135,0.327-0.135h2.464
					c0.128,0,0.192-0.063,0.192-0.192v-1.193c0-0.128-0.064-0.192-0.192-0.192h-2.464c-0.129,0-0.237-0.045-0.327-0.135
					s-0.135-0.199-0.135-0.327v-1.926c0-0.128,0.045-0.236,0.135-0.327c0.09-0.089,0.198-0.135,0.327-0.135h2.464
					c0.128,0,0.192-0.063,0.192-0.192v-1.386c0-1.72,0.366-3.228,1.098-4.523s1.771-2.291,3.118-2.984
					c1.348-0.692,2.92-1.039,4.717-1.039c2.438,0,4.452,0.604,6.044,1.81s2.541,2.849,2.85,4.928v0.077
					c0,0.23-0.142,0.372-0.424,0.424l-4.505,0.577h-0.077c-0.23,0-0.385-0.141-0.462-0.424c-0.153-0.847-0.532-1.514-1.136-2.002
					c-0.603-0.487-1.366-0.731-2.29-0.731c-1.053,0-1.9,0.347-2.541,1.04c-0.643,0.692-0.963,1.591-0.963,2.694v1.54
					c0,0.129,0.063,0.192,0.192,0.192h7.662c0.153,0,0.27,0.052,0.346,0.154c0.077,0.103,0.09,0.231,0.039,0.385l-0.578,1.925
					c-0.076,0.257-0.244,0.386-0.5,0.386h-6.969c-0.129,0-0.192,0.064-0.192,0.192v1.193c0,0.129,0.063,0.192,0.192,0.192h6.353
					c0.154,0,0.27,0.052,0.347,0.154s0.09,0.23,0.038,0.385l-0.577,1.925c-0.077,0.257-0.244,0.385-0.5,0.385h-5.66
					c-0.129,0-0.192,0.064-0.192,0.193v1.616c0,1.104,0.32,1.996,0.963,2.676c0.641,0.681,1.488,1.021,2.541,1.021
					C686.017,408.942,686.786,408.68,687.402,408.153z"/>
			</g>
		</g>
		<g>
			<g>
				<path fill="#FFFFFF" d="M345.593,320h-66.077c-3.623,0-6.516,3.187-6.516,6.812v60.575c0,3.624,2.893,6.613,6.516,6.613h57.277
					L352,378.587v-51.775C352,323.187,349.217,320,345.593,320z"/>
			</g>
		</g>
		<g>
			<g>
				<path fill="#2E6AE5" d="M345.593,315h-66.077c-3.623,0-6.516,2.687-6.516,6.312V336h79v-14.688
					C352,317.687,349.217,315,345.593,315z"/>
			</g>
		</g>
		<g>
			<g>
				<path fill="#2E6AE5" d="M298.282,348.849h4.658c0.128,0,0.237,0.045,0.327,0.135c0.09,0.091,0.135,0.199,0.135,0.327v26.026
					c0,0.129-0.045,0.237-0.135,0.327s-0.199,0.135-0.327,0.135h-4.504c-0.129,0-0.238-0.045-0.327-0.135
					c-0.091-0.09-0.135-0.198-0.135-0.327v-21.098c0-0.052-0.026-0.103-0.077-0.154c-0.052-0.051-0.104-0.063-0.154-0.039
					l-3.812,1.04l-0.154,0.038c-0.23,0-0.346-0.141-0.346-0.423l-0.116-3.312c0-0.256,0.116-0.436,0.347-0.539l4.043-1.887
					C297.833,348.888,298.025,348.849,298.282,348.849z"/>
			</g>
			<g>
				<path fill="#2E6AE5" d="M327.928,367.175c0,1.309-0.206,2.49-0.616,3.542c-0.591,1.643-1.631,2.945-3.119,3.908
					c-1.488,0.962-3.233,1.443-5.235,1.443c-1.951,0-3.664-0.468-5.14-1.405c-1.477-0.937-2.522-2.214-3.138-3.831
					c-0.257-0.667-0.45-1.372-0.578-2.117v-0.077c0-0.282,0.154-0.424,0.462-0.424h4.659c0.256,0,0.423,0.142,0.5,0.424
					c0.025,0.154,0.063,0.283,0.115,0.385c0.052,0.104,0.09,0.192,0.116,0.27c0.256,0.668,0.641,1.182,1.154,1.54
					c0.514,0.36,1.117,0.539,1.81,0.539c0.719,0,1.348-0.192,1.887-0.577s0.937-0.924,1.193-1.617
					c0.257-0.513,0.385-1.181,0.385-2.002c0-0.744-0.115-1.411-0.346-2.002c-0.181-0.667-0.539-1.181-1.078-1.54
					s-1.168-0.539-1.887-0.539s-1.386,0.167-2.002,0.501c-0.616,0.333-1.027,0.77-1.232,1.309c-0.076,0.257-0.244,0.385-0.5,0.385
					h-4.735c-0.129,0-0.238-0.044-0.327-0.135c-0.091-0.09-0.135-0.198-0.135-0.327v-15.516c0-0.128,0.044-0.236,0.135-0.327
					c0.089-0.09,0.198-0.135,0.327-0.135h15.9c0.128,0,0.237,0.045,0.327,0.135c0.09,0.091,0.135,0.199,0.135,0.327v3.734
					c0,0.129-0.045,0.238-0.135,0.328s-0.199,0.135-0.327,0.135h-10.741c-0.129,0-0.193,0.063-0.193,0.192l-0.038,5.697
					c0,0.181,0.077,0.219,0.231,0.116c1.154-0.744,2.489-1.117,4.004-1.117c1.796,0,3.368,0.456,4.716,1.367
					s2.304,2.162,2.868,3.754C327.734,364.775,327.928,365.994,327.928,367.175z"/>
			</g>
		</g>
		<g>
			<g>
				<path fill="#D0E1FA" d="M337,393.949v-8.838c0-3.624,2.692-6.111,6.315-6.111h8.839L337,393.949z"/>
			</g>
		</g>
		<g>
			<g>
				<circle fill="#D0E1FA" cx="284.25" cy="324.331" r="3.725"/>
			</g>
		</g>
		<g>
			<g>
				<circle fill="#D0E1FA" cx="340.35" cy="324.331" r="3.724"/>
			</g>
		</g>
		<g>
			<g>
				<path fill="#BAD3F8" d="M324.254,478.121c-0.938-0.538-1.682-1.276-2.233-2.213c-0.552-0.938-0.827-1.957-0.827-3.062
					c0-1.103,0.275-2.117,0.827-3.041s1.296-1.662,2.233-2.214c0.937-0.552,1.97-0.828,3.1-0.828c1.103,0,2.117,0.276,3.041,0.828
					s1.662,1.29,2.214,2.214s0.828,1.938,0.828,3.041c0,1.104-0.27,2.124-0.809,3.062c-0.539,0.937-1.277,1.675-2.214,2.213
					c-0.938,0.539-1.958,0.809-3.061,0.809C326.224,478.93,325.19,478.66,324.254,478.121z M329.374,474.926
					c0.552-0.564,0.828-1.257,0.828-2.079c0-0.795-0.276-1.476-0.828-2.04s-1.226-0.847-2.021-0.847
					c-0.822,0-1.515,0.282-2.079,0.847c-0.565,0.564-0.848,1.245-0.848,2.04c0,0.822,0.282,1.515,0.848,2.079
					c0.564,0.565,1.257,0.848,2.079,0.848C328.148,475.773,328.822,475.491,329.374,474.926z M325.505,493.906
					c-0.052-0.102-0.038-0.23,0.039-0.385l14.515-26.103c0.128-0.205,0.32-0.309,0.577-0.309h2.849c0.18,0,0.295,0.052,0.347,0.154
					s0.039,0.23-0.038,0.385l-14.477,26.104c-0.128,0.205-0.321,0.308-0.577,0.308h-2.888
					C325.672,494.061,325.557,494.01,325.505,493.906z M339.308,493.579c-0.938-0.552-1.682-1.296-2.233-2.232
					c-0.552-0.938-0.827-1.957-0.827-3.062c0-1.103,0.275-2.117,0.827-3.041s1.296-1.655,2.233-2.194
					c0.937-0.539,1.957-0.809,3.061-0.809s2.124,0.27,3.061,0.809s1.681,1.271,2.233,2.194c0.552,0.924,0.827,1.938,0.827,3.041
					c0,1.104-0.275,2.124-0.827,3.062c-0.553,0.937-1.297,1.681-2.233,2.232s-1.957,0.828-3.061,0.828
					S340.244,494.131,339.308,493.579z M344.409,490.364c0.563-0.564,0.847-1.257,0.847-2.079c0-0.795-0.283-1.476-0.847-2.04
					c-0.565-0.564-1.246-0.847-2.041-0.847c-0.796,0-1.477,0.275-2.04,0.827c-0.565,0.553-0.848,1.239-0.848,2.06
					c0,0.822,0.275,1.515,0.828,2.079c0.552,0.565,1.238,0.848,2.06,0.848C343.163,491.212,343.844,490.93,344.409,490.364z"/>
			</g>
		</g>
		<g>
			<g>
				<path fill="#BAD3F8" d="M242.565,209.256c0.616-0.526,1.001-1.226,1.155-2.098c0.077-0.308,0.256-0.437,0.539-0.385l4.427,0.809
					c0.154,0.026,0.264,0.083,0.328,0.173c0.063,0.09,0.083,0.211,0.058,0.366c-0.334,2.028-1.284,3.632-2.85,4.813
					c-1.565,1.181-3.555,1.771-5.967,1.771c-1.771,0-3.331-0.353-4.678-1.059c-1.348-0.706-2.394-1.707-3.138-3.003
					c-0.745-1.295-1.117-2.804-1.117-4.523v-1.386c0-0.128-0.064-0.192-0.192-0.192h-2.464c-0.129,0-0.237-0.044-0.327-0.135
					c-0.09-0.09-0.135-0.199-0.135-0.327v-1.925c0-0.128,0.045-0.237,0.135-0.327c0.09-0.089,0.198-0.135,0.327-0.135h2.464
					c0.128,0,0.192-0.063,0.192-0.192v-1.193c0-0.128-0.064-0.193-0.192-0.193h-2.464c-0.129,0-0.237-0.044-0.327-0.135
					c-0.09-0.089-0.135-0.198-0.135-0.327v-1.925c0-0.128,0.045-0.237,0.135-0.327s0.198-0.135,0.327-0.135h2.464
					c0.128,0,0.192-0.064,0.192-0.193v-1.386c0-1.719,0.366-3.228,1.098-4.524c0.731-1.295,1.771-2.291,3.118-2.983
					c1.348-0.693,2.92-1.04,4.717-1.04c2.438,0,4.452,0.603,6.044,1.809c1.592,1.207,2.541,2.849,2.85,4.928v0.077
					c0,0.231-0.142,0.372-0.424,0.423l-4.505,0.578h-0.077c-0.23,0-0.385-0.141-0.462-0.424c-0.153-0.847-0.532-1.514-1.136-2.002
					c-0.603-0.487-1.366-0.731-2.29-0.731c-1.053,0-1.9,0.347-2.541,1.04c-0.643,0.693-0.963,1.592-0.963,2.695v1.54
					c0,0.129,0.063,0.193,0.192,0.193h7.662c0.153,0,0.27,0.052,0.346,0.154c0.077,0.103,0.09,0.231,0.039,0.385l-0.578,1.925
					c-0.076,0.257-0.244,0.385-0.5,0.385h-6.969c-0.129,0-0.192,0.064-0.192,0.193v1.193c0,0.129,0.063,0.192,0.192,0.192h6.353
					c0.154,0,0.27,0.052,0.347,0.154s0.09,0.231,0.038,0.385l-0.577,1.925c-0.077,0.257-0.244,0.385-0.5,0.385h-5.66
					c-0.129,0-0.192,0.064-0.192,0.192v1.617c0,1.104,0.32,1.996,0.963,2.676c0.641,0.68,1.488,1.02,2.541,1.02
					C241.18,210.045,241.949,209.783,242.565,209.256z"/>
			</g>
		</g>
		<g>
			<g>
				<path fill="#BAD3F8" d="M617.951,176.739c-0.938-0.539-1.682-1.276-2.233-2.214c-0.552-0.937-0.827-1.957-0.827-3.061
					s0.275-2.118,0.827-3.042c0.552-0.924,1.296-1.662,2.233-2.214c0.937-0.552,1.97-0.828,3.1-0.828
					c1.103,0,2.117,0.276,3.041,0.828c0.924,0.552,1.662,1.29,2.214,2.214c0.552,0.924,0.828,1.938,0.828,3.042
					s-0.27,2.124-0.809,3.061c-0.539,0.938-1.277,1.675-2.214,2.214c-0.938,0.539-1.958,0.809-3.061,0.809
					C619.921,177.547,618.888,177.278,617.951,176.739z M623.071,173.543c0.552-0.564,0.828-1.257,0.828-2.079
					c0-0.795-0.276-1.476-0.828-2.041c-0.552-0.564-1.226-0.847-2.021-0.847c-0.822,0-1.515,0.283-2.079,0.847
					c-0.565,0.565-0.848,1.245-0.848,2.041c0,0.822,0.282,1.515,0.848,2.079c0.564,0.564,1.257,0.847,2.079,0.847
					C621.846,174.39,622.52,174.108,623.071,173.543z M619.202,192.524c-0.052-0.103-0.038-0.231,0.039-0.385l14.515-26.103
					c0.128-0.205,0.32-0.308,0.577-0.308h2.849c0.18,0,0.295,0.052,0.347,0.154s0.039,0.231-0.038,0.385l-14.477,26.103
					c-0.128,0.206-0.321,0.308-0.577,0.308h-2.888C619.369,192.678,619.254,192.626,619.202,192.524z M633.005,192.196
					c-0.938-0.551-1.682-1.295-2.233-2.233c-0.552-0.937-0.827-1.957-0.827-3.061c0-1.104,0.275-2.118,0.827-3.042
					c0.552-0.924,1.296-1.656,2.233-2.195c0.937-0.539,1.957-0.808,3.061-0.808s2.124,0.27,3.061,0.808
					c0.937,0.539,1.681,1.271,2.233,2.195c0.552,0.924,0.827,1.938,0.827,3.042c0,1.104-0.275,2.124-0.827,3.061
					c-0.553,0.938-1.297,1.682-2.233,2.233c-0.937,0.552-1.957,0.828-3.061,0.828S633.941,192.748,633.005,192.196z
					 M638.106,188.982c0.563-0.564,0.847-1.257,0.847-2.079c0-0.795-0.283-1.476-0.847-2.041c-0.565-0.564-1.246-0.847-2.041-0.847
					c-0.796,0-1.477,0.276-2.04,0.828c-0.565,0.552-0.848,1.239-0.848,2.06c0,0.822,0.275,1.515,0.828,2.079
					c0.552,0.564,1.238,0.847,2.06,0.847C636.86,189.829,637.541,189.546,638.106,188.982z"/>
			</g>
		</g>
	</g>
	<g id="Layer_37">
		<circle fill="#D0E1FA" cx="274.604" cy="390.099" r="10.45"/>
		<g>
			<path fill="#2E6AE5" d="M278,393h-4c-0.553,0-1-0.447-1-1v-8c0-0.553,0.447-1,1-1s1,0.447,1,1v7h3c0.553,0,1,0.447,1,1
				S278.553,393,278,393z"/>
		</g>
	</g>
	<g id="Layer_39">
		<g>
			<g>
				<path fill="#FFFFFF" d="M704.193,249h-66.077c-3.624,0-6.116,2.687-6.116,6.312v60.575c0,3.624,2.492,6.113,6.116,6.113h57.277
					L711,307.086v-51.774C711,251.687,707.816,249,704.193,249z"/>
			</g>
		</g>
		<g>
			<g>
				<path fill="#2E6AE5" d="M704.193,243h-66.077c-3.624,0-6.116,3.187-6.116,6.812V264h79v-14.188
					C711,246.187,707.816,243,704.193,243z"/>
			</g>
		</g>
		<g>
			<g>
				<path fill="#2E6AE5" d="M670.765,295.521c0,1.386-0.231,2.669-0.693,3.85c-0.616,1.643-1.649,2.926-3.1,3.85
					c-1.45,0.924-3.163,1.386-5.14,1.386c-1.95,0-3.664-0.487-5.14-1.463s-2.535-2.297-3.176-3.966
					c-0.36-1.001-0.565-2.079-0.616-3.234c0-0.308,0.154-0.462,0.462-0.462h4.543c0.309,0,0.462,0.154,0.462,0.462
					c0.103,0.847,0.244,1.476,0.424,1.887c0.23,0.667,0.609,1.188,1.136,1.559c0.525,0.372,1.148,0.558,1.867,0.558
					c1.438,0,2.426-0.628,2.965-1.886c0.358-0.77,0.539-1.668,0.539-2.695c0-1.206-0.193-2.194-0.578-2.964
					c-0.591-1.206-1.578-1.81-2.964-1.81c-0.283,0-0.578,0.083-0.886,0.25c-0.309,0.167-0.681,0.404-1.117,0.712
					c-0.103,0.077-0.205,0.116-0.308,0.116c-0.154,0-0.27-0.077-0.347-0.231l-2.271-3.196c-0.052-0.077-0.077-0.167-0.077-0.27
					c0-0.154,0.052-0.282,0.154-0.385l6.122-5.352c0.051-0.051,0.07-0.102,0.058-0.154c-0.014-0.051-0.058-0.077-0.135-0.077h-9.048
					c-0.129,0-0.237-0.044-0.327-0.135c-0.09-0.09-0.135-0.199-0.135-0.327v-3.734c0-0.128,0.045-0.237,0.135-0.328
					c0.09-0.089,0.198-0.135,0.327-0.135h16.055c0.128,0,0.237,0.045,0.327,0.135c0.09,0.09,0.135,0.199,0.135,0.328v4.235
					c0,0.206-0.09,0.398-0.27,0.578l-5.044,4.62c-0.052,0.052-0.07,0.103-0.058,0.154c0.013,0.052,0.07,0.077,0.174,0.077
					c2.232,0.437,3.824,1.759,4.773,3.966C670.508,292.62,670.765,293.98,670.765,295.521z"/>
			</g>
			<g>
				<path fill="#2E6AE5" d="M681.545,277.348h4.658c0.128,0,0.237,0.045,0.327,0.135c0.09,0.09,0.135,0.199,0.135,0.328v26.026
					c0,0.128-0.045,0.237-0.135,0.327c-0.09,0.09-0.199,0.135-0.327,0.135h-4.504c-0.129,0-0.238-0.044-0.327-0.135
					c-0.091-0.09-0.135-0.199-0.135-0.327v-21.098c0-0.051-0.026-0.102-0.077-0.154c-0.052-0.051-0.104-0.064-0.154-0.039
					l-3.812,1.04l-0.154,0.039c-0.23,0-0.346-0.141-0.346-0.424l-0.116-3.311c0-0.256,0.116-0.436,0.347-0.539l4.043-1.886
					C681.096,277.387,681.288,277.348,681.545,277.348z"/>
			</g>
		</g>
		<g>
			<g>
				<path fill="#D0E1FA" d="M695,322.449v-8.838c0-3.625,3.293-6.611,6.916-6.611h8.839L695,322.449z"/>
			</g>
		</g>
		<g>
			<g>
				<circle fill="#D0E1FA" cx="642.85" cy="252.831" r="3.724"/>
			</g>
		</g>
		<g>
			<g>
				<circle fill="#D0E1FA" cx="698.95" cy="252.831" r="3.724"/>
			</g>
		</g>
		<g>
			<g>
				<circle fill="#D0E1FA" cx="633.205" cy="318.599" r="10.45"/>
			</g>
		</g>
		<g>
			<g>
				<path fill="#2E6AE5" d="M637,321h-4c-0.553,0-1-0.448-1-1v-7c0-0.552,0.447-1,1-1s1,0.448,1,1v6h3c0.553,0,1,0.448,1,1
					S637.553,321,637,321z"/>
			</g>
		</g>
	</g>
	<g id="Layer_40_copy_2">
		<g>
			<path fill="#3B84F2" d="M570,462h-3.344c-18.609,0-33.75-15.242-33.75-33.852c0-10.249,4.577-19.875,12.559-26.32l2.724-2.225
				l4.397,5.434l-2.723,2.191c-6.328,5.111-9.957,12.799-9.957,20.923c0,14.75,12,26.849,26.75,26.849H570V462z"/>
		</g>
		<g>
			<polygon fill="#3B84F2" points="556,414 549,414 549,402 537,402 537,395 556,395 			"/>
		</g>
		<g>
			<path fill="#3B84F2" d="M584.575,457.617l-4.397-5.446l2.723-2.198c6.328-5.109,9.957-12.898,9.957-21.023
				c0-14.75-12-26.949-26.75-26.949H563v-7h3.107c18.609,0,33.75,15.34,33.75,33.949c0,10.25-4.577,19.925-12.559,26.369
				L584.575,457.617z"/>
		</g>
		<g>
			<polygon fill="#3B84F2" points="595,462 577,462 577,444 584,444 584,455 595,455 			"/>
		</g>
	</g>
	<g id="Layer_40_copy_3">
	</g>
</g>
<g id="_x33_-Ryhmälaskutus">
	<g id="Layer_25">
	</g>
	<g id="Layer_27">
	</g>
	<g id="Layer_29">
	</g>
	<g id="Layer_28">
	</g>
	<g id="Layer_30">
	</g>
	<g id="Layer_31">
	</g>
	<g id="Layer_32">
	</g>
	<g id="Layer_35">
	</g>
</g>
<g id="_x32_-Puhelinsovellus">
	<g id="Layer_1">
	</g>
	<g id="Layer_2">
	</g>
	<g id="Layer_3">
	</g>
	<g id="luuri">
	</g>
	<g id="Layer_10">
	</g>
	<g id="Layer_13">
	</g>
	<g id="Layer_12">
	</g>
	<g id="credit-card">
	</g>
	<g id="Layer_14">
	</g>
	<g id="lasku">
		<g id="Layer_6">
		</g>
	</g>
	<g id="kansio">
	</g>
	<g id="Layer_11">
	</g>
	<g id="Layer_71">
	</g>
</g>
<g id="_x31_-sahkopostilasku">
	<g id="Layer_16">
		<g id="Layer_17">
		</g>
	</g>
	<g id="Layer_20">
	</g>
	<g id="Layer_21">
	</g>
	<g id="Layer_19">
	</g>
</g>
</svg>
