<?xml version="1.0" encoding="utf-8"?>
<!-- Generator: Adobe Illustrator 16.0.3, SVG Export Plug-In . SVG Version: 6.00 Build 0)  -->
<!DOCTYPE svg PUBLIC "-//W3C//DTD SVG 1.1//EN" "http://www.w3.org/Graphics/SVG/1.1/DTD/svg11.dtd">
<svg version="1.1" xmlns="http://www.w3.org/2000/svg" xmlns:xlink="http://www.w3.org/1999/xlink" x="0px" y="0px" width="940px"
	 height="660px" viewBox="0 0 940 660" enable-background="new 0 0 940 660" xml:space="preserve">
<g id="_x38_-raportointi">
	<g id="Layer_59">
	</g>
	<g id="Layer_67">
	</g>
	<g id="Layer_62">
	</g>
	<g id="Layer_61">
	</g>
	<g id="Layer_60">
	</g>
	<g id="Layer_63">
	</g>
	<g id="Layer_64">
	</g>
	<g id="Layer_65">
	</g>
	<g id="Layer_74">
	</g>
</g>
<g id="_x37_-liitearkisto">
	<g id="Layer_44">
		<g id="Layer_48">
		</g>
		<g id="Layer_46">
		</g>
	</g>
	<g id="Layer_55">
	</g>
	<g id="Layer_49">
	</g>
	<g id="Layer_47">
	</g>
	<g id="Layer_50">
	</g>
	<g id="Layer_51">
	</g>
	<g id="Layer_52">
	</g>
	<g id="Layer_53">
	</g>
	<g id="Layer_56">
	</g>
	<g id="Layer_57">
	</g>
	<g id="Layer_58">
	</g>
</g>
<g id="_x36_-Asiakasrekisteri">
	<g>
		<g>
			<rect fill="#EEF5FF" width="940" height="660"/>
		</g>
	</g>
	<g id="Layer_78">
		<g>
			<g>
				<g>
					<polygon fill="#8FB8FD" points="504,349.091 504,388.554 465.934,399.829 432,388.554 432,343.453 					"/>
				</g>
			</g>
		</g>
		<g>
			<g>
				<path fill="#D0E1FA" d="M526,261.146v38.341C526,332.855,503.183,361,469.817,361h-4.176C432.276,361,404,332.855,404,299.486
					v-65.402l100.034-18.01L526,261.146z"/>
			</g>
		</g>
		<g>
			<g>
				<g>
					<path fill="#3B84F2" d="M591.03,458.099l-2.312-36.458c-0.973-15.069-10.813-28.098-25.012-33.111l-53.457-18.902
						l-44.712,29.315l-39.614-29.315l-53.458,18.902c-14.199,5.014-24.039,18.042-25.012,33.111l-2.311,36.458H591.03z"/>
				</g>
			</g>
		</g>
		<g>
			<g>
				<polygon fill="#D0E1FA" points="480.154,404.339 468.223,416.274 456.281,404.339 468.174,391.937 				"/>
			</g>
		</g>
		<g>
			<g>
				<polyline fill="#D0E1FA" points="472.84,406.656 492.03,467.054 468.223,490.861 444.408,467.054 463.623,406.582 				"/>
			</g>
		</g>
		<g>
			<g>
				<polygon fill="#2E6AE5" points="430.394,364.34 468.558,391.888 443.548,417.579 420.137,370.596 				"/>
			</g>
		</g>
		<g>
			<g>
				<polygon fill="#2E6AE5" points="506.176,364.34 468.013,391.888 493.023,417.579 516.439,370.596 				"/>
			</g>
		</g>
		<g>
			<g>
				<path fill="#2E6AE5" d="M466.636,329.433c-4.204,0-8.443-1.297-12.072-3.986c-0.666-0.493-0.806-1.433-0.313-2.098
					s1.433-0.806,2.098-0.312c7.676,5.687,18.546,4.068,24.232-3.607c0.493-0.666,1.433-0.805,2.098-0.312
					c0.666,0.493,0.806,1.433,0.313,2.098C479.01,326.59,472.86,329.433,466.636,329.433z"/>
			</g>
		</g>
		<g>
			<g>
				<path fill="#2E6AE5" d="M437.065,273.232c0,2.136-1.733,3.87-3.87,3.87c-2.134,0-3.869-1.734-3.869-3.87
					c0-2.135,1.735-3.87,3.869-3.87C435.332,269.362,437.065,271.097,437.065,273.232z"/>
			</g>
		</g>
		<g>
			<g>
				<path fill="#2E6AE5" d="M497.602,273.231c0,2.137-1.733,3.871-3.868,3.871c-2.136,0-3.87-1.734-3.87-3.871
					c0-2.134,1.734-3.869,3.87-3.869C495.868,269.362,497.602,271.097,497.602,273.231z"/>
			</g>
		</g>
		<g>
			<g>
				<rect x="391" y="437" fill="#2E6AE5" width="3" height="21"/>
			</g>
		</g>
		<g>
			<g>
				<rect x="539" y="437" fill="#2E6AE5" width="3" height="21"/>
			</g>
		</g>
		<g>
			<g>
				<path fill="#8FB8FD" d="M404.686,288.366c-6.84,0-12.383-5.541-12.383-12.382c0-6.841,5.543-12.382,12.383-12.382"/>
			</g>
		</g>
		<g>
			<g>
				<path fill="#8FB8FD" d="M526.371,288.366c6.841,0,12.381-5.541,12.381-12.382c0-6.841-5.54-12.382-12.381-12.382"/>
			</g>
		</g>
		<g>
			<g>
				<path fill="#2E6AE5" d="M529.647,213.724c-3.944-5.535-9.811-9.201-16.521-10.325c-0.873-0.146-1.752-0.244-2.631-0.3
					c-3.205-8.835-9.779-20.081-28.104-23.288c-2.334-0.408-5.22-0.615-8.576-0.615c-17.813,0-44.893,5.652-51.638,7.122
					l-10.112-15.159c-0.375-0.563-0.984-0.927-1.655-0.993c-0.674-0.065-1.34,0.172-1.817,0.651l-5.473,5.482
					c-15.962,15.953-15.998,41.903-0.103,57.909c1.025,1.261,9.142,10.548,28.982,14.766c2.181,0.465,4.774,0.7,7.71,0.7
					c20.806,0,55.018-11.528,62.869-14.274l20.929,28.3c0.431,0.582,1.106,0.914,1.813,0.914c0.157,0,0.316-0.016,0.475-0.051
					c0.865-0.186,1.543-0.863,1.729-1.729l6.493-30.131C535.146,225.998,533.594,219.258,529.647,213.724z"/>
			</g>
		</g>
	</g>
	<g>
		<g>
			<g>
				<path fill="#D0E1FA" d="M606.211,306.753c3.118,0,5.645-3.069,5.645-6.856c0-3.786-0.829-6.855-5.645-6.855
					c-4.814,0-5.645,3.069-5.645,6.855C600.566,303.684,603.094,306.753,606.211,306.753z"/>
			</g>
		</g>
		<g>
			<g>
				<path fill="#D0E1FA" d="M595.549,317.221C595.549,316.99,595.548,317.155,595.549,317.221L595.549,317.221z"/>
			</g>
		</g>
		<g>
			<g>
				<path fill="#D0E1FA" d="M616.871,317.401C616.874,317.338,616.872,316.963,616.871,317.401L616.871,317.401z"/>
			</g>
		</g>
		<g>
			<g>
				<path fill="#D0E1FA" d="M616.859,316.944c-0.104-6.598-0.966-8.476-7.559-9.666c0,0-0.928,1.184-3.09,1.184
					c-2.163,0-3.09-1.184-3.09-1.184c-6.521,1.177-7.435,3.029-7.555,9.451c-0.01,0.523-0.016,0.552-0.018,0.491
					c0,0.114,0.002,0.325,0.002,0.692c0,0,1.569,3.164,10.66,3.164c9.09,0,10.66-3.164,10.66-3.164c0-0.235,0-0.4,0-0.512
					C616.87,317.438,616.867,317.365,616.859,316.944z"/>
			</g>
		</g>
	</g>
	<g id="Layer_80">
		<g>
			<g>
				<path fill="#FFFFFF" d="M654,470.776c0,3.623-2.5,6.224-6.125,6.224h-81.477c-3.623,0-6.398-2.601-6.398-6.224V356.299
					c0-3.623,2.775-6.299,6.398-6.299h72.677L654,365.099V470.776z"/>
			</g>
		</g>
		<g>
			<g>
				<path fill="#D0E1FA" d="M654.438,365h-8.84c-3.622,0-6.598-2.801-6.598-6.424v-8.839L654.438,365z"/>
			</g>
		</g>
		<g>
			<g>
				<path fill="#3B84F2" d="M615,365h-28c-0.553,0-1-0.447-1-1s0.447-1,1-1h28c0.553,0,1,0.447,1,1S615.553,365,615,365z"/>
			</g>
		</g>
		<g>
			<g>
				<path fill="#3B84F2" d="M605,371h-18c-0.553,0-1-0.447-1-1s0.447-1,1-1h18c0.553,0,1,0.447,1,1S605.553,371,605,371z"/>
			</g>
		</g>
		<g>
			<g>
				<path fill="#3B84F2" d="M614,452h-43c-0.553,0-1-0.447-1-1s0.447-1,1-1h43c0.553,0,1,0.447,1,1S614.553,452,614,452z"/>
			</g>
		</g>
		<g>
			<g>
				<path fill="#3B84F2" d="M598,457h-27c-0.553,0-1-0.447-1-1s0.447-1,1-1h27c0.553,0,1,0.447,1,1S598.553,457,598,457z"/>
			</g>
		</g>
		<g>
			<g>
				<path fill="#3B84F2" d="M640,443h-69c-0.553,0-1-0.447-1-1v-36c0-0.553,0.447-1,1-1h69c0.553,0,1,0.447,1,1v36
					C641,442.553,640.553,443,640,443z M572,441h67v-34h-67V441z"/>
			</g>
		</g>
		<g>
			<g>
				<path fill="#3B84F2" d="M640,426h-68c-0.553,0-1-0.447-1-1s0.447-1,1-1h68c0.553,0,1,0.447,1,1S640.553,426,640,426z"/>
			</g>
		</g>
		<g>
			<g>
				<path fill="#3B84F2" d="M640,417h-68c-0.553,0-1-0.447-1-1s0.447-1,1-1h68c0.553,0,1,0.447,1,1S640.553,417,640,417z"/>
			</g>
		</g>
		<g>
			<g>
				<path fill="#3B84F2" d="M640,434h-68c-0.553,0-1-0.447-1-1s0.447-1,1-1h68c0.553,0,1,0.447,1,1S640.553,434,640,434z"/>
			</g>
		</g>
		<g>
			<g>
				<path fill="#3B84F2" d="M630,442c-0.553,0-1-0.447-1-1v-35c0-0.553,0.447-1,1-1s1,0.447,1,1v35C631,441.553,630.553,442,630,442
					z"/>
			</g>
		</g>
		<g>
			<g>
				<path fill="#3B84F2" d="M591,442c-0.553,0-1-0.447-1-1v-35c0-0.553,0.447-1,1-1s1,0.447,1,1v35C592,441.553,591.553,442,591,442
					z"/>
			</g>
		</g>
		<g>
			<g>
				<g>
					<path fill="#2E6AE5" d="M574.906,367.109c1.521,0,2.757-1.497,2.757-3.347c0-1.849-0.406-3.347-2.757-3.347
						c-2.349,0-2.754,1.498-2.754,3.347C572.152,365.612,573.386,367.109,574.906,367.109z"/>
				</g>
			</g>
			<g>
				<g>
					<path fill="#2E6AE5" d="M569.702,372.22C569.702,372.107,569.702,372.188,569.702,372.22L569.702,372.22z"/>
				</g>
			</g>
			<g>
				<g>
					<path fill="#2E6AE5" d="M580.111,372.308C580.112,372.276,580.111,372.094,580.111,372.308L580.111,372.308z"/>
				</g>
			</g>
			<g>
				<g>
					<path fill="#2E6AE5" d="M580.105,372.086c-0.051-3.222-0.471-4.139-3.688-4.72c0,0-0.455,0.578-1.511,0.578
						c-1.055,0-1.508-0.578-1.508-0.578c-3.182,0.574-3.631,1.479-3.687,4.614c-0.007,0.256-0.009,0.27-0.01,0.239
						c0,0.055,0.001,0.158,0.001,0.338c0,0,0.766,1.545,5.203,1.545c4.439,0,5.205-1.545,5.205-1.545c0-0.115,0-0.195,0-0.25
						C580.111,372.326,580.108,372.29,580.105,372.086z"/>
				</g>
			</g>
		</g>
	</g>
	<g id="Layer_81">
		<g>
			<g>
				<path fill="#3B84F2" d="M365.552,363.867h-53.047c-1.22,0-2.107-1.159-1.789-2.338l12.049-33.033
					c0.219-0.807,0.951-1.37,1.789-1.37h53.047c1.221,0,1.79,1.168,1.79,2.339l-12.049,33.031
					C367.124,363.305,366.39,363.867,365.552,363.867z"/>
			</g>
		</g>
		<g>
			<g>
				<path fill="#8FB8FD" d="M370.729,325.171l-1.253-6.693L363.688,310h-1.155h-8.395h-3.354l-5.925,8.478l-1.464,6.602
					C343.967,325.08,370.729,325.171,370.729,325.171z"/>
			</g>
		</g>
		<g>
			<g>
				<path fill="#3B84F2" d="M350.929,325.171l-1.254-6.693L343.889,310h-1.155h-8.395h-3.355l-5.924,8.478l-1.464,6.602
					C324.167,325.08,350.929,325.171,350.929,325.171z"/>
			</g>
		</g>
		<g>
			<g>
				<g>
					<path fill="#2E6AE5" d="M370.227,317.561h-39.848l-5.924-8.297h-11.75c-1.135,0-2.054,0.919-2.054,2.055v50.638
						c0.081,0.003,0.163,0.007,0.242,0.012l11.869-32.372c0.218-0.809,0.952-1.369,1.79-1.369h47.727v-8.614
						C372.279,318.479,371.359,317.561,370.227,317.561z"/>
				</g>
			</g>
		</g>
		<g>
			<g>
				<path fill="#FFFFFF" d="M319.726,316.126l-0.165-0.539c-0.008-0.014-0.017-0.022-0.028-0.022h-1.353
					c-0.011,0-0.021,0.008-0.027,0.022l-0.16,0.539c-0.011,0.037-0.034,0.055-0.071,0.055h-0.698c-0.022,0-0.038-0.006-0.05-0.019
					c-0.011-0.013-0.013-0.032-0.005-0.058l1.188-3.718c0.011-0.037,0.035-0.055,0.071-0.055h0.864c0.036,0,0.061,0.019,0.071,0.055
					l1.188,3.718c0.004,0.007,0.006,0.017,0.006,0.028c0,0.033-0.021,0.049-0.061,0.049h-0.698
					C319.76,316.182,319.736,316.164,319.726,316.126z M318.372,314.966h0.968c0.022,0,0.029-0.011,0.022-0.033l-0.495-1.633
					c-0.004-0.015-0.009-0.021-0.017-0.02c-0.007,0.002-0.013,0.008-0.017,0.02l-0.483,1.633
					C318.347,314.955,318.354,314.966,318.372,314.966z"/>
			</g>
		</g>
		<g>
			<g>
				<path fill="#FFFFFF" d="M338.515,314.207c0.348,0.18,0.522,0.479,0.522,0.896c0,0.356-0.121,0.625-0.363,0.806
					c-0.242,0.182-0.559,0.272-0.951,0.272h-1.425c-0.019,0-0.034-0.006-0.047-0.019c-0.013-0.013-0.019-0.029-0.019-0.047v-3.718
					c0-0.018,0.006-0.034,0.019-0.046c0.013-0.013,0.028-0.02,0.047-0.02h1.381c0.869,0,1.304,0.352,1.304,1.056
					c0,0.367-0.156,0.629-0.468,0.787C338.492,314.185,338.492,314.196,338.515,314.207z M337.008,313.024v0.858
					c0,0.018,0.009,0.027,0.027,0.027h0.644c0.172,0,0.306-0.041,0.401-0.121c0.095-0.081,0.143-0.19,0.143-0.33
					c0-0.143-0.048-0.255-0.143-0.338c-0.096-0.083-0.229-0.124-0.401-0.124h-0.644
					C337.017,312.997,337.008,313.006,337.008,313.024z M338.118,315.381c0.096-0.086,0.144-0.204,0.144-0.354
					s-0.048-0.269-0.144-0.355c-0.095-0.086-0.229-0.129-0.401-0.129h-0.682c-0.019,0-0.027,0.009-0.027,0.028v0.913
					c0,0.019,0.009,0.028,0.027,0.028h0.688C337.891,315.511,338.023,315.468,338.118,315.381z"/>
			</g>
		</g>
		<g>
			<g>
				<path fill="#FFFFFF" d="M355.897,316.058c-0.216-0.112-0.383-0.269-0.5-0.471c-0.117-0.201-0.176-0.434-0.176-0.698v-1.271
					c0-0.264,0.059-0.497,0.176-0.699c0.117-0.201,0.284-0.357,0.5-0.467c0.217-0.11,0.468-0.165,0.754-0.165
					c0.282,0,0.531,0.052,0.745,0.157c0.215,0.104,0.382,0.253,0.501,0.445c0.119,0.193,0.179,0.416,0.179,0.668
					c0,0.033-0.022,0.053-0.066,0.061l-0.644,0.039h-0.011c-0.037,0-0.055-0.02-0.055-0.061c0-0.194-0.06-0.35-0.179-0.468
					c-0.119-0.117-0.276-0.176-0.471-0.176c-0.198,0-0.356,0.059-0.476,0.176c-0.119,0.118-0.179,0.273-0.179,0.468v1.326
					c0,0.19,0.06,0.344,0.179,0.462c0.119,0.117,0.277,0.176,0.476,0.176c0.194,0,0.352-0.059,0.471-0.176
					c0.119-0.118,0.179-0.271,0.179-0.462c0-0.041,0.021-0.061,0.065-0.061l0.644,0.027c0.019,0,0.034,0.005,0.047,0.017
					c0.013,0.011,0.02,0.024,0.02,0.039c0,0.253-0.06,0.477-0.179,0.671s-0.286,0.345-0.501,0.451
					c-0.214,0.106-0.463,0.16-0.745,0.16C356.365,316.226,356.114,316.17,355.897,316.058z"/>
			</g>
		</g>
	</g>
	<g>
		<g>
			<path fill="#D0E1FA" d="M250.85,379.138c-1.644-1.578-2.464-3.728-2.464-6.448v-10.164c0-2.67,0.82-4.787,2.464-6.353
				c1.642-1.565,3.875-2.349,6.698-2.349s5.063,0.783,6.719,2.349s2.483,3.683,2.483,6.353v10.164c0,2.721-0.828,4.87-2.483,6.448
				s-3.896,2.368-6.719,2.368S252.491,380.716,250.85,379.138z M260.301,375.788c0.68-0.705,1.021-1.648,1.021-2.829v-10.588
				c0-1.181-0.341-2.124-1.021-2.83c-0.68-0.705-1.598-1.059-2.753-1.059c-1.129,0-2.034,0.354-2.714,1.059
				c-0.681,0.706-1.021,1.649-1.021,2.83v10.588c0,1.181,0.34,2.124,1.021,2.829c0.68,0.706,1.585,1.059,2.714,1.059
				C258.703,376.847,259.621,376.494,260.301,375.788z"/>
		</g>
		<g>
			<path fill="#D0E1FA" d="M287.693,372.304c0,1.387-0.231,2.67-0.693,3.851c-0.616,1.643-1.649,2.926-3.1,3.85
				s-3.163,1.386-5.14,1.386c-1.95,0-3.664-0.487-5.14-1.463c-1.476-0.975-2.535-2.297-3.176-3.965
				c-0.36-1.001-0.565-2.079-0.616-3.234c0-0.308,0.154-0.462,0.462-0.462h4.543c0.309,0,0.462,0.154,0.462,0.462
				c0.103,0.847,0.244,1.477,0.424,1.887c0.23,0.668,0.609,1.188,1.136,1.559c0.525,0.373,1.148,0.559,1.867,0.559
				c1.438,0,2.426-0.629,2.965-1.887c0.358-0.77,0.539-1.668,0.539-2.694c0-1.206-0.193-2.195-0.578-2.965
				c-0.591-1.206-1.578-1.81-2.964-1.81c-0.283,0-0.578,0.084-0.886,0.25c-0.309,0.168-0.681,0.404-1.117,0.713
				c-0.103,0.077-0.205,0.115-0.308,0.115c-0.154,0-0.27-0.077-0.347-0.231l-2.271-3.195c-0.052-0.077-0.077-0.166-0.077-0.27
				c0-0.153,0.052-0.282,0.154-0.385l6.122-5.352c0.051-0.051,0.07-0.103,0.058-0.154c-0.014-0.051-0.058-0.076-0.135-0.076h-9.048
				c-0.129,0-0.237-0.045-0.327-0.135s-0.135-0.199-0.135-0.328v-3.734c0-0.128,0.045-0.236,0.135-0.327
				c0.09-0.09,0.198-0.135,0.327-0.135h16.055c0.128,0,0.237,0.045,0.327,0.135c0.09,0.091,0.135,0.199,0.135,0.327v4.235
				c0,0.206-0.09,0.398-0.27,0.577l-5.044,4.62c-0.052,0.052-0.07,0.104-0.058,0.154c0.013,0.052,0.07,0.077,0.174,0.077
				c2.232,0.437,3.824,1.758,4.773,3.965C287.437,369.404,287.693,370.764,287.693,372.304z"/>
		</g>
	</g>
	<g>
		<g>
			<path fill="#D0E1FA" d="M679,298h-47c-0.553,0-1-0.448-1-1s0.447-1,1-1h47c0.553,0,1,0.448,1,1S679.553,298,679,298z"/>
		</g>
	</g>
	<g>
		<g>
			<path fill="#D0E1FA" d="M627,298h-1c-0.553,0-1-0.448-1-1s0.447-1,1-1h1c0.553,0,1,0.448,1,1S627.553,298,627,298z"/>
		</g>
	</g>
	<g>
		<g>
			<path fill="#D0E1FA" d="M663,308h-31c-0.553,0-1-0.448-1-1s0.447-1,1-1h31c0.553,0,1,0.448,1,1S663.553,308,663,308z"/>
		</g>
	</g>
	<g>
		<g>
			<path fill="#D0E1FA" d="M627,308h-1c-0.553,0-1-0.448-1-1s0.447-1,1-1h1c0.553,0,1,0.448,1,1S627.553,308,627,308z"/>
		</g>
	</g>
	<g>
		<g>
			<path fill="#D0E1FA" d="M670,318h-38c-0.553,0-1-0.448-1-1s0.447-1,1-1h38c0.553,0,1,0.448,1,1S670.553,318,670,318z"/>
		</g>
	</g>
	<g>
		<g>
			<path fill="#D0E1FA" d="M627,318h-1c-0.553,0-1-0.448-1-1s0.447-1,1-1h1c0.553,0,1,0.448,1,1S627.553,318,627,318z"/>
		</g>
	</g>
	<g>
		<g>
			<g>
				<path fill="#D0E1FA" d="M297.11,241.853c3.118,0,5.646-3.069,5.646-6.856c0-3.786-0.83-6.854-5.646-6.854
					c-4.813,0-5.643,3.068-5.643,6.854C291.468,238.783,293.994,241.853,297.11,241.853z"/>
			</g>
		</g>
		<g>
			<g>
				<path fill="#D0E1FA" d="M286.45,252.321C286.449,252.091,286.448,252.255,286.45,252.321L286.45,252.321z"/>
			</g>
		</g>
		<g>
			<g>
				<path fill="#D0E1FA" d="M307.771,252.501C307.774,252.438,307.773,252.063,307.771,252.501L307.771,252.501z"/>
			</g>
		</g>
		<g>
			<g>
				<path fill="#D0E1FA" d="M307.759,252.044c-0.104-6.597-0.965-8.476-7.558-9.666c0,0-0.929,1.184-3.091,1.184
					s-3.089-1.184-3.089-1.184c-6.521,1.178-7.436,3.029-7.556,9.451c-0.01,0.524-0.015,0.552-0.016,0.492
					c0,0.113,0.001,0.324,0.001,0.691c0,0,1.569,3.165,10.659,3.165c9.091,0,10.661-3.165,10.661-3.165c0-0.235,0-0.399,0-0.512
					C307.77,252.538,307.767,252.465,307.759,252.044z"/>
			</g>
		</g>
	</g>
	<g>
		<g>
			<path fill="#D0E1FA" d="M370,233h-47c-0.553,0-1-0.448-1-1s0.447-1,1-1h47c0.553,0,1,0.448,1,1S370.553,233,370,233z"/>
		</g>
	</g>
	<g>
		<g>
			<path fill="#D0E1FA" d="M318,233h-1c-0.553,0-1-0.448-1-1s0.447-1,1-1h1c0.553,0,1,0.448,1,1S318.553,233,318,233z"/>
		</g>
	</g>
	<g>
		<g>
			<path fill="#D0E1FA" d="M354,243h-31c-0.553,0-1-0.448-1-1s0.447-1,1-1h31c0.553,0,1,0.448,1,1S354.553,243,354,243z"/>
		</g>
	</g>
	<g>
		<g>
			<path fill="#D0E1FA" d="M318,243h-1c-0.553,0-1-0.448-1-1s0.447-1,1-1h1c0.553,0,1,0.448,1,1S318.553,243,318,243z"/>
		</g>
	</g>
	<g>
		<g>
			<path fill="#D0E1FA" d="M361,253h-38c-0.553,0-1-0.448-1-1s0.447-1,1-1h38c0.553,0,1,0.448,1,1S361.553,253,361,253z"/>
		</g>
	</g>
	<g>
		<g>
			<path fill="#D0E1FA" d="M318,253h-1c-0.553,0-1-0.448-1-1s0.447-1,1-1h1c0.553,0,1,0.448,1,1S318.553,253,318,253z"/>
		</g>
	</g>
	<g>
		<g>
			<g>
				<path fill="#D0E1FA" d="M331.211,494.853c3.118,0,5.645-3.069,5.645-6.856c0-3.786-0.829-6.854-5.645-6.854
					c-4.814,0-5.644,3.068-5.644,6.854C325.567,491.783,328.094,494.853,331.211,494.853z"/>
			</g>
		</g>
		<g>
			<g>
				<path fill="#D0E1FA" d="M320.55,505.321C320.549,505.091,320.548,505.256,320.55,505.321L320.55,505.321z"/>
			</g>
		</g>
		<g>
			<g>
				<path fill="#D0E1FA" d="M341.871,505.501C341.874,505.438,341.873,505.063,341.871,505.501L341.871,505.501z"/>
			</g>
		</g>
		<g>
			<g>
				<path fill="#D0E1FA" d="M341.859,505.044c-0.104-6.597-0.966-8.476-7.559-9.666c0,0-0.928,1.184-3.09,1.184
					c-2.163,0-3.09-1.184-3.09-1.184c-6.521,1.178-7.435,3.029-7.555,9.451c-0.01,0.524-0.016,0.552-0.017,0.492
					c0,0.113,0.001,0.324,0.001,0.691c0,0,1.569,3.165,10.66,3.165s10.66-3.165,10.66-3.165c0-0.235,0-0.399,0-0.512
					C341.87,505.538,341.867,505.465,341.859,505.044z"/>
			</g>
		</g>
	</g>
	<g>
		<g>
			<path fill="#D0E1FA" d="M404,486h-47c-0.553,0-1-0.447-1-1s0.447-1,1-1h47c0.553,0,1,0.447,1,1S404.553,486,404,486z"/>
		</g>
	</g>
	<g>
		<g>
			<path fill="#D0E1FA" d="M352,486h-1c-0.553,0-1-0.447-1-1s0.447-1,1-1h1c0.553,0,1,0.447,1,1S352.553,486,352,486z"/>
		</g>
	</g>
	<g>
		<g>
			<path fill="#D0E1FA" d="M388,496h-31c-0.553,0-1-0.447-1-1s0.447-1,1-1h31c0.553,0,1,0.447,1,1S388.553,496,388,496z"/>
		</g>
	</g>
	<g>
		<g>
			<path fill="#D0E1FA" d="M352,496h-1c-0.553,0-1-0.447-1-1s0.447-1,1-1h1c0.553,0,1,0.447,1,1S352.553,496,352,496z"/>
		</g>
	</g>
	<g>
		<g>
			<path fill="#D0E1FA" d="M395,506h-38c-0.553,0-1-0.447-1-1s0.447-1,1-1h38c0.553,0,1,0.447,1,1S395.553,506,395,506z"/>
		</g>
	</g>
	<g>
		<g>
			<path fill="#D0E1FA" d="M352,506h-1c-0.553,0-1-0.447-1-1s0.447-1,1-1h1c0.553,0,1,0.447,1,1S352.553,506,352,506z"/>
		</g>
	</g>
	<g id="Layer_82">
	</g>
	<g id="Layer_83">
		<g>
			<g>
				<path fill="#D0E1FA" d="M310.868,449.433h-28.711c-2.268,0-4.112-1.845-4.112-4.113v-18.965c0-2.267,1.845-4.111,4.112-4.111
					h28.711c2.268,0,4.112,1.845,4.112,4.111v18.965C314.98,447.588,313.136,449.433,310.868,449.433z M282.157,424.243
					c-1.165,0-2.112,0.947-2.112,2.111v18.965c0,1.165,0.947,2.113,2.112,2.113h28.711c1.165,0,2.112-0.948,2.112-2.113v-18.965
					c0-1.164-0.947-2.111-2.112-2.111H282.157z"/>
			</g>
		</g>
		<g>
			<g>
				<path fill="#D0E1FA" d="M296.514,439.939c-0.233,0-0.467-0.081-0.654-0.244l-16.809-14.558c-0.418-0.361-0.463-0.993-0.102-1.41
					c0.361-0.419,0.995-0.462,1.41-0.102l16.154,13.99l16.152-13.99c0.415-0.36,1.047-0.317,1.41,0.102
					c0.361,0.417,0.316,1.049-0.102,1.41l-16.807,14.558C296.98,439.858,296.747,439.939,296.514,439.939z"/>
			</g>
		</g>
		<g>
			<g>
				<path fill="#D0E1FA" d="M280.168,448.364c-0.279,0-0.558-0.117-0.756-0.346c-0.361-0.417-0.316-1.049,0.102-1.41l12.659-10.966
					c0.415-0.361,1.047-0.317,1.41,0.102c0.361,0.417,0.316,1.049-0.102,1.41l-12.659,10.966
					C280.634,448.284,280.4,448.364,280.168,448.364z"/>
			</g>
		</g>
		<g>
			<g>
				<path fill="#D0E1FA" d="M312.857,448.364c-0.232,0-0.466-0.08-0.654-0.244l-12.661-10.965c-0.418-0.361-0.463-0.993-0.102-1.41
					c0.361-0.419,0.995-0.463,1.41-0.102l12.661,10.965c0.418,0.361,0.463,0.993,0.102,1.41
					C313.416,448.247,313.137,448.364,312.857,448.364z"/>
			</g>
		</g>
	</g>
	<g id="Layer_84">
		<g>
			<g>
				<path fill="#D0E1FA" d="M590,268h-24c-0.553,0-1-0.448-1-1v-16.061c0-0.246,0.091-0.484,0.255-0.667l12-13.402
					c0.379-0.424,1.111-0.424,1.49,0l12,13.402c0.164,0.183,0.255,0.421,0.255,0.667V267C591,267.552,590.553,268,590,268z M567,266
					h22v-14.678l-11-12.286l-11,12.286V266z"/>
			</g>
		</g>
		<g>
			<g>
				<path fill="#D0E1FA" d="M606,268h-23c-0.553,0-1-0.448-1-1s0.447-1,1-1h22v-14.674L593.806,239H579c-0.553,0-1-0.448-1-1
					s0.447-1,1-1h15.248c0.282,0,0.551,0.119,0.74,0.328l11.752,12.939c0.167,0.184,0.26,0.424,0.26,0.672V267
					C607,267.552,606.553,268,606,268z"/>
			</g>
		</g>
		<g>
			<g>
				
					<path fill="none" stroke="#D0E1FA" stroke-width="2" stroke-linecap="round" stroke-linejoin="round" stroke-miterlimit="10" d="
					M599.274,254.291"/>
			</g>
		</g>
		<g>
			<g>
				<path fill="#D0E1FA" d="M606,252h-40c-0.553,0-1-0.448-1-1s0.447-1,1-1h40c0.553,0,1,0.448,1,1S606.553,252,606,252z"/>
			</g>
		</g>
		<g>
			<g>
				<path fill="#D0E1FA" d="M581,268h-7c-0.553,0-1-0.448-1-1v-12c0-0.552,0.447-1,1-1h7c0.553,0,1,0.448,1,1v12
					C582,267.552,581.553,268,581,268z M575,266h5v-10h-5V266z"/>
			</g>
		</g>
		<g>
			<g>
				<path fill="#D0E1FA" d="M602,262h-5c-0.553,0-1-0.448-1-1v-4c0-0.552,0.447-1,1-1h5c0.553,0,1,0.448,1,1v4
					C603,261.552,602.553,262,602,262z M598,260h3v-2h-3V260z"/>
			</g>
		</g>
		<g>
			<g>
				<path fill="#D0E1FA" d="M581,262h-1c-0.553,0-1-0.448-1-1s0.447-1,1-1h1c0.553,0,1,0.448,1,1S581.553,262,581,262z"/>
			</g>
		</g>
	</g>
</g>
<g id="_x35_-Tuoterekisteri">
	<g id="Layer_76">
	</g>
	<g id="Layer_69">
	</g>
	<g id="Layer_70">
	</g>
	<g id="Layer_66">
	</g>
	<g id="Layer_72">
	</g>
	<g id="Layer_75">
	</g>
	<g id="Layer_73">
	</g>
</g>
<g id="_x34_-toistuva_laskutus">
	<g id="Layer_34">
		<g id="Layer_43">
		</g>
		<g id="Layer_42">
		</g>
	</g>
	<g id="Layer_36">
	</g>
	<g id="Layer_38">
	</g>
	<g id="Layer_37">
	</g>
	<g id="Layer_39">
	</g>
	<g id="Layer_40_copy_2">
	</g>
	<g id="Layer_40_copy_3">
	</g>
</g>
<g id="_x33_-Ryhmälaskutus">
	<g id="Layer_25">
	</g>
	<g id="Layer_27">
	</g>
	<g id="Layer_29">
	</g>
	<g id="Layer_28">
	</g>
	<g id="Layer_30">
	</g>
	<g id="Layer_31">
	</g>
	<g id="Layer_32">
	</g>
	<g id="Layer_35">
	</g>
</g>
<g id="_x32_-Puhelinsovellus">
	<g id="Layer_1">
	</g>
	<g id="Layer_2">
	</g>
	<g id="Layer_3">
	</g>
	<g id="luuri">
	</g>
	<g id="Layer_10">
	</g>
	<g id="Layer_13">
	</g>
	<g id="Layer_12">
	</g>
	<g id="credit-card">
	</g>
	<g id="Layer_14">
	</g>
	<g id="lasku">
		<g id="Layer_6">
		</g>
	</g>
	<g id="kansio">
	</g>
	<g id="Layer_11">
	</g>
	<g id="Layer_71">
	</g>
</g>
<g id="_x31_-sahkopostilasku">
	<g id="Layer_16">
		<g id="Layer_17">
		</g>
	</g>
	<g id="Layer_20">
	</g>
	<g id="Layer_21">
	</g>
	<g id="Layer_19">
	</g>
</g>
</svg>
